<svg width="500" height="500" viewBox="0 0 500 500" fill="none" xmlns="http://www.w3.org/2000/svg">
<rect width="500" height="500" fill="white"/>
<path d="M20.1281 40.0781L24.0834 38.76L24.7866 39.0825C26.3884 39.9031 28.1269 40.3134 30.0019 40.3134C33.1856 40.2159 35.8369 39.1759 37.9556 37.1934C40.0744 35.2109 41.1731 32.8134 41.2519 30.0009C41.1737 27.1884 40.075 24.7909 37.9556 22.8084C35.8363 20.8259 33.185 19.7859 30.0019 19.6884C26.8181 19.7859 24.1669 20.8259 22.0481 22.8084C19.9294 24.7909 18.8306 27.1884 18.7519 30.0009C18.7519 31.0165 18.9278 32.0225 19.2797 33.0187C19.6316 34.015 20.1491 34.9525 20.8322 35.8312L21.4772 36.6806L20.1281 40.0781ZM18.78 42.4809C18.4088 42.5984 18.0913 42.5153 17.8275 42.2315C17.5638 41.9478 17.5003 41.6206 17.6372 41.25L19.3369 36.9721C18.5556 35.9371 17.95 34.8287 17.52 33.6468C17.09 32.465 16.875 31.249 16.875 29.999C16.9531 26.7765 18.2031 23.969 20.625 21.5765C23.0469 19.184 26.1719 17.929 30 17.8115C33.8281 17.929 36.9531 19.184 39.375 21.5765C41.7969 23.969 43.0469 26.7765 43.125 29.999C43.0469 33.2215 41.7969 36.029 39.375 38.4215C36.9531 40.814 33.8281 42.069 30 42.1865C27.8713 42.1865 25.8497 41.7178 23.9353 40.7803L18.78 42.4809ZM30.0009 31.4943C29.7272 31.4943 29.4781 31.4309 29.2538 31.304C29.0294 31.1771 28.8488 30.9915 28.7119 30.7471C28.575 30.5028 28.5066 30.2537 28.5066 30C28.5066 29.7462 28.575 29.4971 28.7119 29.2528C28.8488 29.0084 29.0294 28.8228 29.2538 28.6959C29.4781 28.569 29.7272 28.5056 30.0009 28.5056C30.4309 28.5056 30.7875 28.6471 31.0706 28.9303C31.3538 29.2134 31.4953 29.57 31.4953 30C31.4953 30.43 31.3538 30.7865 31.0706 31.0696C30.7875 31.3528 30.4309 31.4943 30.0009 31.4943V31.4943ZM35.6259 31.4943C35.3522 31.4943 35.1031 31.4309 34.8787 31.304C34.6544 31.1771 34.4737 30.9915 34.3369 30.7471C34.2 30.5028 34.1316 30.2537 34.1316 30C34.1316 29.7462 34.2 29.4971 34.3369 29.2528C34.4737 29.0084 34.6544 28.8228 34.8787 28.6959C35.1031 28.569 35.3522 28.5056 35.6259 28.5056C36.0559 28.5056 36.4125 28.6471 36.6956 28.9303C36.9788 29.2134 37.1203 29.57 37.1203 30C37.1203 30.43 36.9788 30.7865 36.6956 31.0696C36.4125 31.3528 36.0559 31.4943 35.6259 31.4943V31.4943ZM24.3759 31.4943C24.1022 31.4943 23.8531 31.4309 23.6287 31.304C23.4044 31.1771 23.2237 30.9915 23.0869 30.7471C22.95 30.5028 22.8816 30.2537 22.8816 30C22.8816 29.7462 22.95 29.4971 23.0869 29.2528C23.2237 29.0084 23.4044 28.8228 23.6287 28.6959C23.8531 28.569 24.1022 28.5056 24.3759 28.5056C24.8059 28.5056 25.1625 28.6471 25.4456 28.9303C25.7288 29.2134 25.8703 29.57 25.8703 30C25.8703 30.43 25.7288 30.7865 25.4456 31.0696C25.1625 31.3528 24.8059 31.4943 24.3759 31.4943V31.4943Z" fill="#08080A" fill-opacity="0.96"/>
<circle cx="30" cy="30" r="30" fill="#48EC9D" fill-opacity="0.2"/>
<path d="M110 30C111.602 29.9606 112.93 29.4138 113.984 28.3594C115.039 27.305 115.586 25.9769 115.625 24.375C115.586 22.7731 115.039 21.445 113.984 20.3906C112.93 19.3362 111.602 18.7894 110 18.75C108.398 18.7894 107.07 19.3362 106.016 20.3906C104.961 21.445 104.414 22.7731 104.375 24.375C104.414 25.9769 104.961 27.305 106.016 28.3594C107.07 29.4138 108.398 29.9606 110 30ZM110 31.875C107.871 31.8162 106.104 31.0838 104.697 29.6775C103.291 28.2713 102.559 26.5037 102.5 24.375C102.559 22.2463 103.291 20.4787 104.697 19.0725C106.104 17.6662 107.871 16.9338 110 16.875C112.129 16.9338 113.896 17.6662 115.303 19.0725C116.709 20.4787 117.441 22.2463 117.5 24.375C117.441 26.5037 116.709 28.2713 115.303 29.6775C113.896 31.0838 112.129 31.8162 110 31.875ZM110 30C110.274 30 110.498 30.0878 110.674 30.2634C110.85 30.4391 110.938 30.6638 110.938 30.9375V38.4375C110.938 38.7112 110.85 38.9359 110.674 39.1116C110.498 39.2872 110.274 39.375 110 39.375C109.726 39.375 109.502 39.2872 109.326 39.1116C109.15 38.9359 109.062 38.7112 109.062 38.4375V30.9375C109.062 30.6638 109.15 30.4391 109.326 30.2634C109.502 30.0878 109.726 30 110 30V30ZM106.25 34.0134V35.9175C104.551 36.2106 103.193 36.5962 102.178 37.0744C101.162 37.5525 100.644 38.0066 100.625 38.4366C100.684 39.0422 101.587 39.6525 103.335 40.2675C105.083 40.8825 107.305 41.2097 110 41.2491C112.696 41.2097 114.917 40.8825 116.665 40.2675C118.412 39.6525 119.316 39.0422 119.375 38.4366C119.356 38.0066 118.838 37.5525 117.822 37.0744C116.807 36.5962 115.449 36.2106 113.75 35.9175V34.0134C115.977 34.3453 117.774 34.9069 119.141 35.6981C120.507 36.4894 121.211 37.4025 121.25 38.4375C121.172 39.7656 120.073 40.8691 117.954 41.7478C115.834 42.6266 113.183 43.0856 110 43.125C106.816 43.0856 104.165 42.6266 102.046 41.7478C99.9275 40.8691 98.8287 39.7656 98.75 38.4375C98.7894 37.4025 99.4925 36.4894 100.859 35.6981C102.226 34.9069 104.023 34.3453 106.25 34.0134Z" fill="#08080A" fill-opacity="0.96"/>
<circle cx="110" cy="30" r="30" fill="#8DFF33" fill-opacity="0.2"/>
<path d="M178.75 26.25V39.375H201.25V26.25H178.75ZM177.812 24.375H202.188C202.461 24.375 202.686 24.4628 202.862 24.6384C203.037 24.8141 203.125 25.0388 203.125 25.3125V40.3125C203.125 40.5862 203.037 40.8109 202.862 40.9866C202.686 41.1622 202.461 41.25 202.188 41.25H177.812C177.539 41.25 177.314 41.1622 177.138 40.9866C176.963 40.8109 176.875 40.5862 176.875 40.3125V25.3125C176.875 25.0388 176.963 24.8141 177.138 24.6384C177.314 24.4628 177.539 24.375 177.812 24.375ZM179.688 20.625H200.312V22.5H179.688V20.625ZM182.5 16.875H197.5V18.75H182.5V16.875Z" fill="#08080A" fill-opacity="0.96"/>
<circle cx="190" cy="30" r="30" fill="#F76D6D" fill-opacity="0.2"/>
<path d="M265.518 37.5H259.688C259.414 37.5 259.189 37.4122 259.013 37.2366C258.838 37.0609 258.75 36.8363 258.75 36.5625V20.625H256.875C256.601 20.625 256.377 20.5372 256.201 20.3616C256.025 20.1859 255.938 19.9613 255.938 19.6875C255.938 19.4137 256.025 19.1891 256.201 19.0134C256.377 18.8378 256.601 18.75 256.875 18.75H283.125C283.399 18.75 283.623 18.8378 283.799 19.0134C283.975 19.1891 284.062 19.4137 284.062 19.6875C284.062 19.9613 283.975 20.1859 283.799 20.3616C283.623 20.5372 283.399 20.625 283.125 20.625H281.25V36.5625C281.25 36.8363 281.162 37.0609 280.987 37.2366C280.811 37.4122 280.586 37.5 280.312 37.5H274.482L277.734 43.125H275.566L272.314 37.5H267.684L264.432 43.125H262.264L265.518 37.5ZM279.375 20.625H260.625V35.625H279.375V20.625ZM265.049 30.6741C264.853 30.8497 264.629 30.9375 264.375 30.9375C264.121 30.9375 263.902 30.8447 263.716 30.6591C263.53 30.4734 263.438 30.2537 263.438 30C263.438 29.7463 263.525 29.5216 263.701 29.3259L268.037 25.0191L271.699 27.7734L274.892 23.7891C275.126 23.4959 275.424 23.3738 275.785 23.4225C276.147 23.4713 276.391 23.6666 276.517 24.0084C276.644 24.3503 276.591 24.6678 276.356 24.9609L272.049 30.3516L268.211 27.48L265.049 30.6741Z" fill="#08080A" fill-opacity="0.96"/>
<circle cx="270" cy="30" r="30" fill="#4857EC" fill-opacity="0.2"/>
<path d="M39.8433 112.334C40.5655 110.72 40.9372 108.99 40.9372 107.242C40.9372 103.713 39.4232 100.328 36.7281 97.833C34.033 95.3375 30.3777 93.9355 26.5663 93.9355C22.7549 93.9355 19.0996 95.3375 16.4045 97.833C13.7094 100.328 12.1953 103.713 12.1953 107.242C12.1953 108.99 12.567 110.72 13.2892 112.334C14.0114 113.949 15.07 115.416 16.4045 116.651C17.7389 117.887 19.3232 118.867 21.0667 119.536C22.8103 120.205 24.6791 120.549 26.5663 120.549C28.4535 120.549 30.3222 120.205 32.0658 119.536C33.8094 118.867 35.3936 117.887 36.7281 116.651C38.0626 115.416 39.1211 113.949 39.8433 112.334Z" fill="#E8FFD6"/>
<path d="M31.082 111.423C29.8842 112.532 28.2599 113.155 26.5663 113.155C24.8727 113.155 23.2484 112.532 22.0506 111.423M21.776 104.285H21.7919M31.3566 104.285H31.3726M40.9372 107.242C40.9372 108.99 40.5655 110.72 39.8433 112.334C39.1211 113.949 38.0626 115.416 36.7281 116.651C35.3936 117.887 33.8094 118.867 32.0658 119.536C30.3222 120.205 28.4535 120.549 26.5663 120.549C24.6791 120.549 22.8103 120.205 21.0667 119.536C19.3232 118.867 17.7389 117.887 16.4045 116.651C15.07 115.416 14.0114 113.949 13.2892 112.334C12.567 110.72 12.1953 108.99 12.1953 107.242C12.1953 103.713 13.7094 100.328 16.4045 97.833C19.0996 95.3375 22.7549 93.9355 26.5663 93.9355C30.3777 93.9355 34.033 95.3375 36.7281 97.833C39.4232 100.328 40.9372 103.713 40.9372 107.242Z" stroke="#6AAF35" stroke-width="3" stroke-linecap="round" stroke-linejoin="round"/>
<circle cx="27" cy="107" r="27" fill="#BCFF87" fill-opacity="0.5"/>
<path d="M160.641 161.537C160.39 160.821 159.296 160.821 159.044 161.537L157.768 165.172C157.713 165.328 157.606 165.464 157.463 165.561C157.319 165.657 157.146 165.709 156.969 165.709H152.842C152.029 165.709 151.689 166.673 152.348 167.117L155.687 169.363C155.831 169.459 155.938 169.595 155.992 169.752C156.047 169.908 156.047 170.076 155.992 170.232L154.717 173.867C154.465 174.584 155.351 175.18 156.009 174.737L159.349 172.491C159.492 172.394 159.665 172.342 159.842 172.342C160.02 172.342 160.193 172.394 160.336 172.491L163.676 174.737C164.334 175.18 165.22 174.584 164.968 173.867L163.693 170.232C163.638 170.076 163.638 169.908 163.693 169.752C163.747 169.595 163.854 169.459 163.998 169.363L167.337 167.117C167.995 166.673 167.657 165.709 166.843 165.709H162.715C162.538 165.709 162.365 165.657 162.222 165.56C162.079 165.464 161.972 165.328 161.917 165.172L160.641 161.537Z" fill="#F9C94E"/>
<path d="M179.641 161.537C179.39 160.821 178.296 160.821 178.044 161.537L176.768 165.172C176.713 165.328 176.606 165.464 176.463 165.561C176.319 165.657 176.146 165.709 175.969 165.709H171.842C171.029 165.709 170.689 166.673 171.348 167.117L174.687 169.363C174.831 169.459 174.938 169.595 174.992 169.752C175.047 169.908 175.047 170.076 174.992 170.232L173.717 173.867C173.465 174.584 174.351 175.18 175.009 174.737L178.349 172.491C178.492 172.394 178.665 172.342 178.842 172.342C179.02 172.342 179.193 172.394 179.336 172.491L182.676 174.737C183.334 175.18 184.22 174.584 183.968 173.867L182.693 170.232C182.638 170.076 182.638 169.908 182.693 169.752C182.747 169.595 182.854 169.459 182.998 169.363L186.337 167.117C186.995 166.673 186.657 165.709 185.843 165.709H181.715C181.538 165.709 181.365 165.657 181.222 165.56C181.079 165.464 180.972 165.328 180.917 165.172L179.641 161.537Z" stroke="#F9C94E" stroke-linecap="round" stroke-linejoin="round"/>
<path d="M111.082 111.423C109.884 112.532 108.26 113.155 106.566 113.155C104.873 113.155 103.248 112.532 102.051 111.423M101.776 104.285H101.792M111.357 104.285H111.373M120.937 107.242C120.937 108.99 120.566 110.72 119.843 112.334C119.121 113.949 118.063 115.416 116.728 116.651C115.394 117.887 113.809 118.867 112.066 119.536C110.322 120.205 108.454 120.549 106.566 120.549C104.679 120.549 102.81 120.205 101.067 119.536C99.3232 118.867 97.7389 117.887 96.4045 116.651C95.07 115.416 94.0114 113.949 93.2892 112.334C92.567 110.72 92.1953 108.99 92.1953 107.242C92.1953 103.713 93.7094 100.328 96.4045 97.833C99.0996 95.3375 102.755 93.9355 106.566 93.9355C110.378 93.9355 114.033 95.3375 116.728 97.833C119.423 100.328 120.937 103.713 120.937 107.242Z" stroke="#4857EC" stroke-width="3" stroke-linecap="round" stroke-linejoin="round"/>
<circle cx="107" cy="107" r="27" fill="#4857EC" fill-opacity="0.1"/>
<path d="M191.082 111.423C189.884 112.532 188.26 113.155 186.566 113.155C184.873 113.155 183.248 112.532 182.051 111.423M181.776 104.285H181.792M191.357 104.285H191.373M200.937 107.242C200.937 108.99 200.566 110.72 199.843 112.334C199.121 113.949 198.063 115.416 196.728 116.651C195.394 117.887 193.809 118.867 192.066 119.536C190.322 120.205 188.454 120.549 186.566 120.549C184.679 120.549 182.81 120.205 181.067 119.536C179.323 118.867 177.739 117.887 176.404 116.651C175.07 115.416 174.011 113.949 173.289 112.334C172.567 110.72 172.195 108.99 172.195 107.242C172.195 103.713 173.709 100.328 176.404 97.833C179.1 95.3375 182.755 93.9355 186.566 93.9355C190.378 93.9355 194.033 95.3375 196.728 97.833C199.423 100.328 200.937 103.713 200.937 107.242Z" stroke="#C66464" stroke-width="3" stroke-linecap="round" stroke-linejoin="round"/>
<circle cx="187" cy="107" r="27" fill="#FFD6D6" fill-opacity="0.5"/>
<g clip-path="url(#clip0_22956_1034)">
<path d="M20 170C20 164.477 15.5229 160 10 160C4.47715 160 0 164.477 0 170C0 174.991 3.65684 179.128 8.4375 179.879V172.891H5.89844V170H8.4375V167.797C8.4375 165.291 9.93047 163.906 12.2146 163.906C13.3084 163.906 14.4531 164.102 14.4531 164.102V166.563H13.1922C11.95 166.563 11.5625 167.333 11.5625 168.125V170H14.3359L13.8926 172.891H11.5625V179.879C16.3432 179.128 20 174.991 20 170Z" fill="black"/>
</g>
<g clip-path="url(#clip1_22956_1034)">
<path d="M40 161.801C42.6719 161.801 42.9883 161.812 44.0391 161.859C45.0156 161.902 45.543 162.066 45.8945 162.203C46.3594 162.383 46.6953 162.602 47.043 162.949C47.3945 163.301 47.6094 163.633 47.7891 164.098C47.9258 164.449 48.0898 164.98 48.1328 165.953C48.1797 167.008 48.1914 167.324 48.1914 169.992C48.1914 172.664 48.1797 172.98 48.1328 174.031C48.0898 175.008 47.9258 175.535 47.7891 175.887C47.6094 176.352 47.3906 176.688 47.043 177.035C46.6914 177.387 46.3594 177.602 45.8945 177.781C45.543 177.918 45.0117 178.082 44.0391 178.125C42.9844 178.172 42.668 178.184 40 178.184C37.3281 178.184 37.0117 178.172 35.9609 178.125C34.9844 178.082 34.457 177.918 34.1055 177.781C33.6406 177.602 33.3047 177.383 32.957 177.035C32.6055 176.684 32.3906 176.352 32.2109 175.887C32.0742 175.535 31.9102 175.004 31.8672 174.031C31.8203 172.977 31.8086 172.66 31.8086 169.992C31.8086 167.32 31.8203 167.004 31.8672 165.953C31.9102 164.977 32.0742 164.449 32.2109 164.098C32.3906 163.633 32.6094 163.297 32.957 162.949C33.3086 162.598 33.6406 162.383 34.1055 162.203C34.457 162.066 34.9883 161.902 35.9609 161.859C37.0117 161.812 37.3281 161.801 40 161.801ZM40 160C37.2852 160 36.9453 160.012 35.8789 160.059C34.8164 160.105 34.0859 160.277 33.4531 160.523C32.793 160.781 32.2344 161.121 31.6797 161.68C31.1211 162.234 30.7813 162.793 30.5234 163.449C30.2773 164.086 30.1055 164.812 30.0586 165.875C30.0117 166.945 30 167.285 30 170C30 172.715 30.0117 173.055 30.0586 174.121C30.1055 175.184 30.2773 175.914 30.5234 176.547C30.7813 177.207 31.1211 177.766 31.6797 178.32C32.2344 178.875 32.793 179.219 33.4492 179.473C34.0859 179.719 34.8125 179.891 35.875 179.938C36.9414 179.984 37.2813 179.996 39.9961 179.996C42.7109 179.996 43.0508 179.984 44.1172 179.938C45.1797 179.891 45.9102 179.719 46.543 179.473C47.1992 179.219 47.7578 178.875 48.3125 178.32C48.8672 177.766 49.2109 177.207 49.4648 176.551C49.7109 175.914 49.8828 175.188 49.9297 174.125C49.9766 173.059 49.9883 172.719 49.9883 170.004C49.9883 167.289 49.9766 166.949 49.9297 165.883C49.8828 164.82 49.7109 164.09 49.4648 163.457C49.2188 162.793 48.8789 162.234 48.3203 161.68C47.7656 161.125 47.207 160.781 46.5508 160.527C45.9141 160.281 45.1875 160.109 44.125 160.063C43.0547 160.012 42.7148 160 40 160Z" fill="black"/>
<path d="M40 164.863C37.1641 164.863 34.8633 167.164 34.8633 170C34.8633 172.836 37.1641 175.137 40 175.137C42.8359 175.137 45.1367 172.836 45.1367 170C45.1367 167.164 42.8359 164.863 40 164.863ZM40 173.332C38.1602 173.332 36.668 171.84 36.668 170C36.668 168.16 38.1602 166.668 40 166.668C41.8398 166.668 43.332 168.16 43.332 170C43.332 171.84 41.8398 173.332 40 173.332Z" fill="black"/>
<path d="M46.5391 164.66C46.5391 165.324 46 165.859 45.3398 165.859C44.6758 165.859 44.1406 165.32 44.1406 164.66C44.1406 163.996 44.6797 163.461 45.3398 163.461C46 163.461 46.5391 164 46.5391 164.66Z" fill="black"/>
</g>
<g clip-path="url(#clip2_22956_1034)">
<path d="M79.6014 165.155C79.4883 164.729 79.2654 164.341 78.9551 164.028C78.6448 163.716 78.2579 163.491 77.8332 163.375C76.2695 162.955 70.0195 162.955 70.0195 162.955C70.0195 162.955 63.7695 162.955 62.2059 163.375C61.7811 163.491 61.3942 163.716 61.0839 164.028C60.7736 164.341 60.5508 164.729 60.4377 165.155C60.0195 166.725 60.0195 170 60.0195 170C60.0195 170 60.0195 173.275 60.4377 174.845C60.5508 175.271 60.7736 175.659 61.0839 175.972C61.3942 176.284 61.7811 176.509 62.2059 176.625C63.7695 177.045 70.0195 177.045 70.0195 177.045C70.0195 177.045 76.2695 177.045 77.8332 176.625C78.2579 176.509 78.6448 176.284 78.9551 175.972C79.2654 175.659 79.4883 175.271 79.6014 174.845C80.0195 173.275 80.0195 170 80.0195 170C80.0195 170 80.0195 166.725 79.6014 165.155Z" fill="black"/>
<path d="M67.9727 172.974V167.026L73.1999 170L67.9727 172.974Z" fill="#FEFEFE"/>
</g>
<g clip-path="url(#clip3_22956_1034)">
<path fill-rule="evenodd" clip-rule="evenodd" d="M100 160.417C97.6264 160.418 95.3303 161.259 93.5225 162.789C91.7148 164.319 90.5134 166.438 90.1331 168.768C89.7528 171.098 90.2184 173.487 91.4467 175.507C92.675 177.527 94.5858 179.046 96.8376 179.794C97.3344 179.886 97.5215 179.578 97.5215 179.317C97.5215 179.055 97.5115 178.296 97.5082 177.466C94.7263 178.067 94.1385 176.292 94.1385 176.292C93.6847 175.139 93.029 174.836 93.029 174.836C92.1216 174.221 93.0969 174.232 93.0969 174.232C94.102 174.303 94.6303 175.258 94.6303 175.258C95.5211 176.778 96.9701 176.338 97.5397 176.081C97.6291 175.437 97.8891 174.999 98.1756 174.751C95.9533 174.501 93.6185 173.648 93.6185 169.838C93.6047 168.85 93.9735 167.894 94.6485 167.169C94.5458 166.918 94.203 165.908 94.7462 164.534C94.7462 164.534 95.5857 164.268 97.4966 165.554C99.1357 165.108 100.865 165.108 102.504 165.554C104.413 164.268 105.251 164.534 105.251 164.534C105.796 165.904 105.453 166.915 105.351 167.169C106.028 167.894 106.397 168.851 106.382 169.841C106.382 173.659 104.042 174.501 101.817 174.746C102.175 175.055 102.494 175.66 102.494 176.588C102.494 177.919 102.483 178.989 102.483 179.317C102.483 179.582 102.663 179.891 103.17 179.794C105.422 179.046 107.333 177.526 108.561 175.506C109.789 173.486 110.255 171.097 109.874 168.767C109.493 166.436 108.291 164.317 106.483 162.787C104.675 161.257 102.378 160.417 100.004 160.417H100Z" fill="black"/>
<path d="M93.7883 174.694C93.7667 174.743 93.6873 174.758 93.6227 174.723C93.5581 174.689 93.5101 174.624 93.5333 174.573C93.5564 174.522 93.6343 174.509 93.6989 174.544C93.7634 174.578 93.8131 174.644 93.7883 174.694Z" fill="black"/>
<path d="M94.1933 175.143C94.159 175.16 94.1198 175.165 94.0824 175.156C94.0449 175.148 94.0116 175.127 93.988 175.097C93.9234 175.028 93.9102 174.932 93.9599 174.889C94.0095 174.846 94.099 174.866 94.1635 174.935C94.2281 175.004 94.243 175.1 94.1933 175.143Z" fill="black"/>
<path d="M94.5867 175.714C94.5255 175.757 94.4211 175.714 94.3632 175.629C94.3471 175.613 94.3344 175.595 94.3257 175.575C94.317 175.554 94.3125 175.532 94.3125 175.51C94.3125 175.488 94.317 175.466 94.3257 175.446C94.3344 175.425 94.3471 175.407 94.3632 175.392C94.4244 175.35 94.5288 175.392 94.5867 175.476C94.6447 175.56 94.6463 175.672 94.5867 175.714V175.714Z" fill="black"/>
<path d="M95.1217 176.267C95.067 176.328 94.9561 176.312 94.865 176.23C94.7739 176.147 94.7524 176.035 94.8071 175.976C94.8617 175.917 94.9726 175.933 95.067 176.014C95.1614 176.094 95.1796 176.208 95.1217 176.267V176.267Z" fill="black"/>
<path d="M95.8725 176.59C95.8476 176.668 95.735 176.702 95.6224 176.669C95.5098 176.636 95.4353 176.544 95.4568 176.465C95.4784 176.386 95.5926 176.35 95.7069 176.386C95.8211 176.422 95.894 176.51 95.8725 176.59Z" fill="black"/>
<path d="M96.6906 176.646C96.6906 176.727 96.5979 176.796 96.4786 176.797C96.3594 176.799 96.2617 176.733 96.2617 176.652C96.2617 176.572 96.3544 176.503 96.4737 176.501C96.5929 176.499 96.6906 176.564 96.6906 176.646Z" fill="black"/>
<path d="M97.4507 176.519C97.4656 176.6 97.3828 176.684 97.2636 176.704C97.1443 176.724 97.04 176.676 97.0251 176.597C97.0102 176.518 97.0963 176.432 97.2122 176.411C97.3281 176.389 97.4358 176.439 97.4507 176.519Z" fill="black"/>
</g>
<path d="M128.243 169.39C127.673 169.39 127.223 169.89 127.223 170.5C127.223 171.11 127.683 171.61 128.243 171.61C128.813 171.61 129.263 171.11 129.263 170.5C129.273 169.89 128.813 169.39 128.243 169.39ZM131.893 169.39C131.323 169.39 130.873 169.89 130.873 170.5C130.873 171.11 131.333 171.61 131.893 171.61C132.463 171.61 132.913 171.11 132.913 170.5C132.913 169.89 132.463 169.39 131.893 169.39Z" fill="black"/>
<path d="M136.751 161H123.351C122.221 161 121.301 161.92 121.301 163.06V176.58C121.301 177.72 122.221 178.64 123.351 178.64H134.691L134.161 176.79L135.441 177.98L136.651 179.1L138.801 181V163.06C138.801 161.92 137.881 161 136.751 161ZM132.891 174.06C132.891 174.06 132.531 173.63 132.231 173.25C133.541 172.88 134.041 172.06 134.041 172.06C133.631 172.33 133.241 172.52 132.891 172.65C132.391 172.86 131.911 173 131.441 173.08C130.481 173.26 129.601 173.21 128.851 173.07C128.281 172.96 127.791 172.8 127.381 172.64C127.151 172.55 126.901 172.44 126.651 172.3C126.621 172.28 126.591 172.27 126.561 172.25C126.541 172.24 126.531 172.23 126.521 172.22C126.341 172.12 126.241 172.05 126.241 172.05C126.241 172.05 126.721 172.85 127.991 173.23C127.691 173.61 127.321 174.06 127.321 174.06C125.111 173.99 124.271 172.54 124.271 172.54C124.271 169.32 125.711 166.71 125.711 166.71C127.151 165.63 128.521 165.66 128.521 165.66L128.621 165.78C126.821 166.3 125.991 167.09 125.991 167.09C125.991 167.09 126.211 166.97 126.581 166.8C127.651 166.33 128.501 166.2 128.851 166.17C128.911 166.16 128.961 166.15 129.021 166.15C129.631 166.07 130.321 166.05 131.041 166.13C131.991 166.24 133.011 166.52 134.051 167.09C134.051 167.09 133.261 166.34 131.561 165.82L131.701 165.66C131.701 165.66 133.071 165.63 134.511 166.71C134.511 166.71 135.951 169.32 135.951 172.54C135.951 172.54 135.101 173.99 132.891 174.06V174.06Z" fill="black"/>
<defs>
<clipPath id="clip0_22956_1034">
<rect width="20" height="20" fill="white" transform="translate(0 160)"/>
</clipPath>
<clipPath id="clip1_22956_1034">
<rect width="20" height="20" fill="white" transform="translate(30 160)"/>
</clipPath>
<clipPath id="clip2_22956_1034">
<rect width="20" height="20" fill="white" transform="translate(60 160)"/>
</clipPath>
<clipPath id="clip3_22956_1034">
<rect width="20" height="20" fill="white" transform="translate(90 160)"/>
</clipPath>
</defs>
</svg>
