<svg width="1920" height="887" viewBox="0 0 1920 887" fill="none" xmlns="http://www.w3.org/2000/svg">
<g id="lines">
<g id="line">
<path d="M141.689 3.4084C64.801 11.3049 -6.56166 38.3815 -48.7643 60.9395L-49.2357 60.0576C-6.93838 37.4489 64.5489 10.3255 141.586 2.41364C218.623 -5.49812 301.279 5.79594 365.822 60.116C389.748 80.2521 410.274 101.941 428.725 124.225C428.42 124.372 428.118 124.531 427.821 124.701C409.433 102.51 388.991 80.9223 365.178 60.8811C300.921 6.80109 218.577 -4.48817 141.689 3.4084Z" fill="black"/>
<path d="M450.561 153.665C450.635 153.2 450.699 152.73 450.755 152.255C455.308 158.328 459.751 164.414 464.11 170.496C473.347 183.386 482.202 196.25 490.922 208.917L490.924 208.92C508.022 233.759 524.598 257.839 542.513 279.871C560.782 302.338 580.422 322.645 603.384 339.401C603.346 339.562 603.309 339.723 603.272 339.885C603.229 340.078 603.187 340.271 603.146 340.464C579.942 323.594 560.134 303.126 541.737 280.501C523.798 258.441 507.182 234.302 490.068 209.441C481.353 196.781 472.509 183.934 463.297 171.079C459.135 165.272 454.897 159.462 450.561 153.665Z" fill="black"/>
<path d="M659.325 370.788C694.978 384.181 737.837 390.619 791.529 387.498C833.323 385.068 871.941 377.238 908.07 366.873C908.081 366.709 908.093 366.545 908.106 366.382C908.122 366.19 908.14 365.998 908.159 365.807C871.978 376.209 833.316 384.067 791.471 386.499C737.904 389.614 695.193 383.19 659.693 369.858C659.573 370.171 659.451 370.481 659.325 370.788Z" fill="black"/>
<path d="M965.031 348.132C961.92 349.268 958.791 350.396 955.643 351.513C955.445 351.227 955.243 350.945 955.036 350.668C958.272 349.52 961.49 348.361 964.688 347.193C984.096 340.105 1002.82 332.684 1020.98 325.485L1020.99 325.484L1020.99 325.484C1051.36 313.445 1080.17 302.028 1107.98 293.831C1152.47 280.724 1194.55 275.807 1236.73 289.703C1255.69 295.948 1274.65 305.988 1293.85 320.771C1293.81 320.935 1293.78 321.099 1293.74 321.264C1293.7 321.458 1293.65 321.652 1293.61 321.847C1274.36 306.968 1255.38 296.898 1236.42 290.653C1194.51 276.847 1152.66 281.711 1108.27 294.791C1080.48 302.977 1051.76 314.363 1021.42 326.387C1003.25 333.59 984.502 341.022 965.031 348.132Z" fill="black"/>
<path d="M1331.64 357.338C1342.65 369.395 1353.79 383.156 1365.09 398.792C1409.88 460.711 1451.7 493.923 1490.8 507.915C1514.27 516.313 1536.73 517.779 1558.23 514.393C1558.18 514.066 1558.13 513.736 1558.1 513.402C1536.74 516.769 1514.44 515.311 1491.14 506.973C1452.3 493.075 1410.62 460.036 1365.91 398.206C1354.36 382.24 1342.98 368.218 1331.74 355.96C1331.71 356.422 1331.67 356.881 1331.64 357.338Z" fill="black"/>
<path d="M1580.67 508.027C1580.73 508.355 1580.79 508.687 1580.83 509.023C1587.3 506.981 1593.67 504.542 1599.95 501.768C1633.65 486.893 1664.76 462.397 1693.48 437.902C1699.59 432.689 1705.6 427.477 1711.49 422.357L1711.5 422.352C1715.5 418.878 1719.46 415.446 1723.36 412.085C1723.16 411.815 1722.97 411.542 1722.78 411.265C1718.85 414.649 1714.87 418.104 1710.84 421.6L1710.8 421.635C1704.91 426.747 1698.92 431.947 1692.83 437.142C1664.12 461.631 1633.1 486.042 1599.55 500.854C1593.34 503.594 1587.05 506.005 1580.67 508.027Z" fill="black"/>
<path d="M1914.37 372.492C1872.96 348.202 1821.88 344.094 1773.88 373.241C1773.68 372.968 1773.48 372.699 1773.28 372.433C1821.65 343.024 1873.16 347.16 1914.88 371.63C1956.88 396.268 1988.97 441.521 1997.99 493.914L1997.01 494.083C1988.03 441.976 1956.12 396.979 1914.37 372.492Z" fill="black"/>
</g>
<g id="line_2">
<path d="M210.582 277.18C223.869 279.891 237.656 282.025 251.949 283.496C382.475 296.928 463.124 354.057 509.693 411.947C509.914 411.692 510.141 411.442 510.374 411.198C463.635 353.157 382.777 295.954 252.051 282.501C237.807 281.035 224.065 278.909 210.823 276.208C210.746 276.534 210.666 276.858 210.582 277.18Z" fill="black"/>
<path d="M563.007 521.079C559.757 501.271 550.062 473.078 531.556 442.927C531.879 442.818 532.198 442.701 532.513 442.576C551.019 472.775 560.73 501.024 563.993 520.918C568.19 546.494 575.012 585.644 595.02 622.292C594.72 622.441 594.424 622.594 594.132 622.752C574.037 585.935 567.201 546.645 563.007 521.079Z" fill="black"/>
<path d="M621.49 660.803C656.97 698.476 714.741 725.228 810.543 716.997C894.225 709.807 946.694 733.026 978.308 764.888C1009.94 796.768 1020.75 837.36 1021 865.003L1022 864.994C1021.75 837.138 1010.86 796.28 979.018 764.184C947.156 732.071 894.375 708.79 810.457 716C715.156 724.189 657.75 697.672 622.483 660.397C622.156 660.538 621.825 660.673 621.49 660.803Z" fill="black"/>
<path d="M144.746 257.836C144.808 257.502 144.874 257.169 144.943 256.838C32.897 213.137 -32.1819 128.995 -53.547 83.2868L-54.4529 83.7103C-32.9892 129.63 32.3228 214.046 144.746 257.836Z" fill="black"/>
</g>
<g id="line_3">
<path d="M76.0323 363.742C29.7641 340.362 -9.27317 327.858 -26.0697 325.494L-25.9303 324.503C-8.97687 326.889 30.1734 339.448 76.4833 362.849C84.7356 367.019 93.2167 371.534 101.842 376.398C101.722 376.714 101.608 377.032 101.499 377.353C92.8371 372.465 84.3195 367.929 76.0323 363.742Z" fill="black"/>
<path d="M148.543 406.76C148.783 406.522 149.019 406.28 149.251 406.034C174.219 423.3 199.115 443.391 222.042 466.396C248.303 492.747 271.984 522.927 290.226 557.069C289.988 557.331 289.757 557.608 289.535 557.899C271.322 523.71 247.631 493.489 221.333 467.101C198.412 444.102 173.513 424.017 148.543 406.76Z" fill="black"/>
<path d="M301.598 583.052C309.249 600.94 315.386 619.812 319.66 639.682C334.61 709.199 326.758 790.992 281.05 885.781L281.95 886.216C327.742 791.255 335.64 709.236 320.637 639.472C316.324 619.417 310.12 600.379 302.382 582.34C302.128 582.594 301.867 582.831 301.598 583.052Z" fill="black"/>
</g>
</g>
</svg>
