<svg width="456" height="469" viewBox="0 0 456 469" fill="none" xmlns="http://www.w3.org/2000/svg">
<g id="rocketLine">
<path id="ml" d="M230.567 -0.000976562V299.999M230.567 327.999V398.637M230.567 423.999V447.545" stroke="black"/>
<g id="ll">
<path d="M183.478 360.078C194.113 328.217 201.316 291.424 206.15 252.726C206.466 252.856 206.792 252.942 207.126 252.979C202.289 291.654 195.084 328.442 184.451 360.32C184.136 360.213 183.811 360.132 183.478 360.078Z" fill="black"/>
<path d="M178.926 372.847C165.907 407.054 148.399 434.455 124.932 450.834C125.155 451.076 125.363 451.338 125.556 451.618C149.19 435.101 166.76 407.565 179.798 373.368C179.494 373.218 179.203 373.043 178.926 372.847Z" fill="black"/>
<path d="M46.9996 465.424C73.6532 470.38 96.101 466.913 115.008 456.903C115.024 457.268 115.06 457.626 115.116 457.976C96.084 467.947 73.5712 471.352 46.9686 466.435C46.9892 466.127 46.9998 465.815 46.9998 465.499C46.9998 465.474 46.9997 465.449 46.9996 465.424Z" fill="black"/>
<path d="M34.3273 462.513C23.7495 459.637 12.5555 455.515 0.709366 450.045L0.290161 450.953C12.2086 456.456 23.4819 460.606 34.144 463.499C34.1932 463.164 34.2545 462.835 34.3273 462.513Z" fill="black"/>
<path d="M209.152 235.412C208.84 235.252 208.516 235.135 208.183 235.068C214.083 179.228 215.5 120.454 215.5 67.499H216.5C216.5 120.521 215.081 179.43 209.152 235.412Z" fill="black"/>
</g>
<g id="rl">
<path d="M266.45 311.492C257.157 271.564 251.704 228.427 248.508 188.961C248.846 188.91 249.173 188.808 249.487 188.662C252.676 228.123 258.119 271.264 267.406 311.188C267.079 311.266 266.76 311.368 266.45 311.492Z" fill="black"/>
<path d="M271.024 329.692C271.29 330.674 271.559 331.653 271.831 332.629C279.391 359.815 289.011 384.831 301.262 405.234C301.534 405.037 301.818 404.862 302.113 404.709C289.94 384.431 280.347 359.522 272.794 332.362C272.514 331.353 272.236 330.341 271.961 329.327C271.657 329.471 271.345 329.593 271.024 329.692Z" fill="black"/>
<path d="M334.703 443.187C325.451 436.637 317.145 428.081 309.689 417.939C309.925 417.695 310.147 417.433 310.353 417.154C317.789 427.304 326.067 435.848 335.281 442.371C349.897 452.718 366.878 457.988 386.629 456.512C394.653 455.912 403.138 454.199 412.112 451.256C412.173 451.588 412.256 451.912 412.362 452.227C403.341 455.179 394.797 456.904 386.704 457.509C366.712 459.003 349.501 453.664 334.703 443.187Z" fill="black"/>
<path d="M425.428 447.224C434.882 443.099 444.821 437.7 455.272 430.918L454.728 430.08C444.291 436.852 434.379 442.232 424.966 446.335C425.14 446.619 425.295 446.916 425.428 447.224Z" fill="black"/>
<path d="M248 173.999C247.794 173.999 247.591 174.018 247.392 174.054C244.228 128.114 244 88.6762 244 67.499H245C245 88.687 245.229 128.113 248.392 174.022C248.263 174.007 248.132 173.999 248 173.999Z" fill="black"/>
</g>
</g>
</svg>
