<svg width="394" height="292" viewBox="0 0 394 292" fill="none" xmlns="http://www.w3.org/2000/svg">
<g id="vector">
<path id="desc" d="M1 214.328C9.8 216.328 66.6667 215.162 94 214.328H310C331.667 214.328 376.3 214.328 381.5 214.328M0 224.828C2.8 224.828 64.5 224.828 95 224.828H310H394" stroke="#222222"/>
<g id="man">
<path id="kboard" d="M121 127.21L114.5 127.328C114.138 129.285 113.692 131.706 113.212 134.328M121 127.21L116.5 158.832M121 127.21L127.5 127.091M116.5 158.832C112.167 158.76 109.476 158.6 109 158.328C109.146 157.161 109.696 153.916 110.417 149.828M116.5 158.832C118.873 158.872 121.737 158.885 125 158.876M113.212 134.328L225.5 131.971M113.212 134.328C112.831 136.411 112.428 138.621 112.028 140.828M225.5 131.971L224 125.328L216.5 125.465L222.5 156.609M225.5 131.971L227.275 139.828M227.275 139.828L112.028 140.828M227.275 139.828L229.138 148.078M112.028 140.828C111.461 143.959 110.9 147.084 110.417 149.828M110.417 149.828L140.5 149.385M229.138 148.078L231 156.328C228.338 156.418 225.493 156.512 222.5 156.609M229.138 148.078L151 149.23M222.5 156.609C219.472 156.707 216.293 156.808 213 156.911M162 158.302V126.461M162 158.302C147.801 158.624 134.657 158.848 125 158.876M162 158.302C165.45 158.224 168.962 158.14 172.5 158.052M162 126.461L151.632 126.65M162 126.461L172.5 126.269M151 149.23L151.632 126.65M151 149.23L140.5 149.385M151.632 126.65L142.5 126.817M142.5 126.817L140.5 149.385M142.5 126.817L134 126.972M134 126.972L131.5 149.23M134 126.972L127.5 127.091M127.5 127.091L125 158.876M172.5 126.269V158.052M172.5 126.269L183 126.077M172.5 158.052C176.196 157.96 179.921 157.863 183.637 157.763M183 126.077L183.637 157.763M183 126.077L193.5 125.886M183.637 157.763C187.449 157.66 191.252 157.555 195 157.448M193.5 125.886L195 157.448M193.5 125.886L201.5 125.739M195 157.448C197.872 157.365 200.711 157.282 203.5 157.199M203.5 157.199L201.5 125.739M203.5 157.199C206.746 157.103 209.923 157.006 213 156.911M201.5 125.739L216.5 125.328M213 156.911L209 125.465" stroke="#222222"/>
<g id="left">
<path d="M99.5806 190.873C85.5806 221.673 101.258 239.828 110.258 245.828L136.758 188.328C137.558 185.128 140.914 160.873 142.08 150.373C143.08 145.373 146.08 143.373 148.08 138.873C150.08 134.373 148.08 132.873 146.58 134.873C145.38 136.473 143.414 137.206 142.58 137.373C140.58 137.373 140.08 136.873 140.08 133.373C140.08 129.873 144.08 128.873 142.58 127.873C139.027 126.096 135.999 129.976 134.55 132.85C129.09 128.841 131.576 120.38 129.08 124.373C127.338 127.161 127.999 131.671 128.75 134.328C125.75 134.328 125.08 127.373 123.58 129.873C122.08 132.373 126.08 141.873 126.58 147.373C125.58 153.373 117.081 152.373 99.5806 190.873Z" fill="#EEEAE4"/>
<path d="M128.75 134.328C125.75 134.328 125.08 127.373 123.58 129.873C122.08 132.373 126.08 141.873 126.58 147.373C125.58 153.373 117.081 152.373 99.5806 190.873C85.5806 221.673 101.258 239.828 110.258 245.828L136.758 188.328C137.558 185.128 140.914 160.873 142.08 150.373C143.08 145.373 146.08 143.373 148.08 138.873C150.08 134.373 148.08 132.873 146.58 134.873C145.38 136.473 143.414 137.206 142.58 137.373C140.58 137.373 140.08 136.873 140.08 133.373C140.08 129.873 144.08 128.873 142.58 127.873C138.58 125.873 135.247 131.039 134.08 133.873M129.08 135.373C128.247 133.039 127.08 127.573 129.08 124.373C131.58 120.373 129.08 128.873 134.58 132.873" stroke="#222222"/>
</g>
<g id="right">
<path d="M261.226 154.612C260.426 157.412 264.226 180.112 266.226 191.112L290.258 252.828C316.258 243.228 311.059 210.612 304.726 195.112C300.726 183.612 286.559 161.612 278.226 151.112C278.226 150.445 278.126 148.112 277.726 144.112C277.226 139.112 273.226 132.612 270.726 129.612C268.726 127.212 268.559 128.612 268.726 129.612L268.928 131.816C267.671 130.024 265.79 128.385 264.63 127.541C263.08 126.397 262.147 126.175 261.678 126.416C260.968 126.782 261.329 128.215 262.226 129.112C263.726 130.612 263.668 132.612 263.889 133.612C263.233 132.753 262.365 131.751 261.226 130.612C260.115 129.502 259.279 128.939 258.671 128.752C256.817 128.181 257.096 131.106 258.226 132.612C258.385 132.825 258.533 133.065 258.671 133.328C259.832 135.54 260.279 139.325 260.726 141.112C261.226 143.112 259.726 146.612 256.726 142.612C253.726 138.612 253.226 142.612 254.226 145.612C255.226 148.612 259.726 152.612 261.226 154.612Z" fill="#EEEAE4"/>
<path d="M255.551 124.693C252.552 125.649 251.855 130.222 252 133.328C252.082 134.035 252.275 135.132 252.601 136.328C254.182 135.328 257.608 133.328 258.671 133.328C258.533 133.065 258.385 132.825 258.226 132.612C257.096 131.106 256.817 128.181 258.671 128.752C258.008 127.491 256.332 125.475 255.551 124.693Z" fill="white"/>
<path d="M263.889 133.612C263.668 132.612 263.726 130.612 262.226 129.112C261.329 128.215 260.968 126.782 261.678 126.416C258.988 124.614 257 124.231 255.551 124.693C256.332 125.475 258.008 127.491 258.671 128.752C259.279 128.939 260.115 129.502 261.226 130.612C262.365 131.751 263.233 132.753 263.889 133.612Z" fill="white"/>
<path d="M256.726 142.612C259.726 146.612 261.226 143.112 260.726 141.112C260.279 139.325 259.832 135.54 258.671 133.328C257.608 133.328 254.182 135.328 252.601 136.328C253.055 137.992 253.473 139.687 254.5 140.951C254.981 140.821 255.71 141.258 256.726 142.612Z" fill="white"/>
<path d="M261.226 154.612L261.707 154.749L261.775 154.511L261.626 154.312L261.226 154.612ZM266.226 191.112L265.734 191.201L265.742 191.249L265.76 191.293L266.226 191.112ZM290.258 252.828L289.792 253.01L289.97 253.468L290.431 253.297L290.258 252.828ZM304.726 195.112L304.253 195.276L304.258 195.289L304.263 195.301L304.726 195.112ZM278.226 151.112H277.726V151.286L277.834 151.423L278.226 151.112ZM277.726 144.112L278.223 144.062L277.726 144.112ZM270.726 129.612L270.342 129.932L270.726 129.612ZM268.726 129.612L269.224 129.566L269.222 129.548L269.219 129.53L268.726 129.612ZM268.928 131.816L268.518 132.103L269.597 133.642L269.426 131.771L268.928 131.816ZM264.63 127.541L264.333 127.944L264.336 127.945L264.63 127.541ZM262.226 129.112L262.579 128.759L262.226 129.112ZM263.889 133.612L263.491 133.915L264.377 133.504L263.889 133.612ZM258.226 132.612L257.826 132.912L258.226 132.612ZM260.726 141.112L261.211 140.991L260.726 141.112ZM256.726 142.612L257.126 142.312L256.726 142.612ZM252 133.328L251.5 133.352L251.501 133.369L251.503 133.386L252 133.328ZM261.678 126.416L261.907 126.86L261.678 126.416ZM254.5 140.951L254.112 141.266L254.317 141.518L254.63 141.434L254.5 140.951ZM252.601 136.328L252.119 136.46L252.601 136.328ZM258.671 133.328L259.114 133.096L258.671 133.328ZM243.523 47.4771C248.235 62.6064 246.374 73.4922 243.094 82.3422C241.447 86.7858 239.447 90.7068 237.711 94.4378C235.983 98.1514 234.516 101.678 234.005 105.258L234.995 105.399C235.483 101.979 236.892 98.568 238.617 94.8597C240.334 91.1688 242.366 87.1835 244.031 82.6897C247.376 73.6647 249.265 62.5505 244.478 47.1797L243.523 47.4771ZM234.005 105.258C233.495 108.826 233.901 111.47 234.908 113.432C235.918 115.399 237.503 116.624 239.236 117.409C240.961 118.19 242.849 118.541 244.495 118.762C245.313 118.871 246.101 118.952 246.758 119.032C247.432 119.114 247.974 119.196 248.368 119.309L248.643 118.348C248.164 118.211 247.55 118.121 246.879 118.039C246.191 117.955 245.444 117.88 244.628 117.77C243.009 117.553 241.238 117.217 239.649 116.498C238.068 115.782 236.681 114.695 235.798 112.975C234.912 111.25 234.505 108.831 234.995 105.399L234.005 105.258ZM260.745 154.475C260.62 154.911 260.598 155.649 260.629 156.55C260.661 157.477 260.753 158.648 260.891 160C261.167 162.705 261.631 166.158 262.181 169.861C263.282 177.268 264.733 185.698 265.734 191.201L266.718 191.023C265.718 185.526 264.269 177.107 263.17 169.714C262.621 166.016 262.16 162.581 261.886 159.899C261.749 158.557 261.659 157.41 261.629 156.516C261.597 155.597 261.631 155.013 261.707 154.749L260.745 154.475ZM265.76 191.293L289.792 253.01L290.724 252.647L266.692 190.931L265.76 191.293ZM290.431 253.297C303.662 248.412 308.942 237.652 310.114 226.234C311.283 214.838 308.376 202.725 305.188 194.923L304.263 195.301C307.408 203 310.267 214.944 309.119 226.132C307.974 237.297 302.853 247.645 290.084 252.359L290.431 253.297ZM305.198 194.948C303.179 189.143 298.612 180.728 293.526 172.475C288.436 164.213 282.799 156.071 278.617 150.801L277.834 151.423C281.985 156.653 287.599 164.761 292.675 172.999C297.756 181.246 302.273 189.582 304.253 195.276L305.198 194.948ZM278.726 151.112C278.726 150.421 278.624 148.068 278.223 144.062L277.228 144.162C277.628 148.156 277.726 150.47 277.726 151.112H278.726ZM278.223 144.062C277.964 141.469 276.805 138.527 275.419 135.88C274.028 133.226 272.384 130.821 271.11 129.292L270.342 129.932C271.567 131.403 273.173 133.748 274.533 136.344C275.896 138.947 276.987 141.756 277.228 144.162L278.223 144.062ZM271.11 129.292C270.599 128.679 270.176 128.271 269.818 128.039C269.483 127.822 269.039 127.661 268.642 127.917C268.298 128.139 268.214 128.549 268.189 128.803C268.16 129.097 268.187 129.419 268.232 129.694L269.219 129.53C269.181 129.305 269.167 129.078 269.184 128.902C269.206 128.687 269.257 128.71 269.184 128.757C269.058 128.838 269.021 128.714 269.274 128.879C269.505 129.028 269.852 129.345 270.342 129.932L271.11 129.292ZM268.228 129.658L268.43 131.862L269.426 131.771L269.224 129.566L268.228 129.658ZM269.337 131.529C268.038 129.677 266.111 128 264.924 127.137L264.336 127.945C265.47 128.77 267.304 130.372 268.518 132.103L269.337 131.529ZM261.872 129.466C262.537 130.13 262.864 130.912 263.051 131.669C263.145 132.05 263.203 132.42 263.251 132.767C263.298 133.101 263.34 133.445 263.4 133.72L264.377 133.504C264.327 133.279 264.293 132.998 264.242 132.629C264.192 132.273 264.129 131.862 264.022 131.43C263.808 130.562 263.414 129.594 262.579 128.759L261.872 129.466ZM264.286 133.309C263.615 132.43 262.732 131.411 261.579 130.259L260.872 130.966C261.997 132.091 262.851 133.076 263.491 133.915L264.286 133.309ZM260.241 141.233C260.345 141.651 260.348 142.166 260.245 142.648C260.14 143.136 259.941 143.525 259.702 143.742C259.494 143.931 259.236 144.015 258.859 143.877C258.437 143.723 257.853 143.281 257.126 142.312L256.326 142.912C257.099 143.943 257.827 144.564 258.515 144.816C259.246 145.084 259.895 144.918 260.374 144.482C260.823 144.074 261.093 143.463 261.222 142.857C261.354 142.245 261.356 141.574 261.211 140.991L260.241 141.233ZM257.126 142.312C256.738 141.795 256.38 141.393 256.049 141.097C255.722 140.804 255.398 140.594 255.077 140.494C254.741 140.39 254.401 140.406 254.102 140.58C253.818 140.745 253.634 141.014 253.516 141.29C253.283 141.835 253.225 142.584 253.274 143.347C253.323 144.125 253.488 144.98 253.751 145.77L254.7 145.454C254.463 144.744 254.316 143.974 254.272 143.283C254.226 142.578 254.294 142.014 254.435 141.684C254.504 141.523 254.571 141.464 254.604 141.445C254.62 141.435 254.663 141.413 254.781 141.449C254.912 141.49 255.112 141.6 255.382 141.842C255.649 142.081 255.963 142.429 256.326 142.912L257.126 142.312ZM253.751 145.77C254.288 147.38 255.733 149.201 257.164 150.818C257.887 151.636 258.628 152.424 259.272 153.123C259.923 153.829 260.468 154.436 260.826 154.912L261.626 154.312C261.233 153.788 260.653 153.145 260.007 152.445C259.355 151.737 258.627 150.963 257.913 150.156C256.468 148.523 255.163 146.844 254.7 145.454L253.751 145.77ZM248.368 119.309C250.127 119.813 251.71 120.304 252.908 121.115C254.072 121.902 254.87 122.991 255.054 124.745L256.048 124.641C255.831 122.568 254.855 121.224 253.469 120.286C252.118 119.372 250.378 118.844 248.643 118.348L248.368 119.309ZM264.927 127.139C264.131 126.551 263.464 126.178 262.912 125.987C262.372 125.799 261.861 125.759 261.449 125.971L261.907 126.86C261.964 126.831 262.153 126.782 262.584 126.931C263.004 127.077 263.579 127.387 264.333 127.943L264.927 127.139ZM261.449 125.971C260.772 126.32 260.736 127.103 260.861 127.672C260.996 128.287 261.36 128.954 261.872 129.466L262.579 128.759C262.194 128.373 261.929 127.874 261.838 127.457C261.736 126.994 261.874 126.877 261.907 126.86L261.449 125.971ZM252.499 133.305C252.447 132.186 252.508 130.872 252.751 129.622C252.996 128.365 253.417 127.211 254.059 126.374C254.688 125.555 255.525 125.04 256.664 125.015C257.83 124.989 259.378 125.477 261.4 126.831L261.957 126C259.85 124.589 258.098 123.983 256.642 124.015C255.157 124.047 254.051 124.742 253.266 125.766C252.493 126.773 252.03 128.095 251.77 129.431C251.509 130.773 251.445 132.167 251.5 133.352L252.499 133.305ZM251.503 133.386C251.588 134.118 251.786 135.24 252.119 136.46L253.084 136.197C252.764 135.024 252.576 133.952 252.497 133.271L251.503 133.386ZM252.119 136.46C252.563 138.087 253.004 139.902 254.112 141.266L254.888 140.636C253.942 139.471 253.548 137.897 253.084 136.197L252.119 136.46ZM257.826 132.912C257.966 133.099 258.1 133.316 258.228 133.561L259.114 133.096C258.966 132.815 258.804 132.55 258.626 132.312L257.826 132.912ZM258.228 133.561C258.775 134.602 259.166 136.043 259.477 137.485C259.632 138.201 259.765 138.904 259.888 139.547C260.011 140.185 260.125 140.77 260.241 141.233L261.211 140.991C261.103 140.56 260.994 140.002 260.87 139.359C260.748 138.72 260.613 138.004 260.455 137.274C260.141 135.824 259.728 134.267 259.114 133.096L258.228 133.561ZM252.869 136.751C253.651 136.256 254.891 135.513 256.063 134.896C256.65 134.587 257.212 134.314 257.686 134.119C258.185 133.915 258.515 133.828 258.671 133.828V132.828C258.296 132.828 257.799 132.992 257.307 133.194C256.791 133.406 256.198 133.695 255.597 134.011C254.396 134.644 253.132 135.401 252.334 135.906L252.869 136.751ZM261.579 130.259C260.455 129.134 259.547 128.499 258.818 128.274L258.524 129.23C259.01 129.38 259.775 129.869 260.872 130.966L261.579 130.259ZM258.818 128.274C258.238 128.095 257.694 128.161 257.307 128.549C256.957 128.9 256.841 129.415 256.83 129.891C256.806 130.856 257.196 132.073 257.826 132.912L258.626 132.312C258.125 131.645 257.811 130.646 257.829 129.915C257.838 129.543 257.93 129.34 258.014 129.256C258.061 129.209 258.177 129.123 258.524 129.23L258.818 128.274ZM255.197 125.046C255.96 125.811 257.598 127.786 258.229 128.985L259.114 128.519C258.418 127.196 256.703 125.139 255.905 124.34L255.197 125.046ZM255.399 124.216C253.672 124.767 252.671 126.338 252.121 128.051C251.566 129.776 251.426 131.759 251.5 133.352L252.499 133.305C252.429 131.791 252.565 129.934 253.073 128.357C253.584 126.767 254.431 125.574 255.703 125.169L255.399 124.216ZM261.957 126C259.217 124.165 257.064 123.686 255.399 124.216L255.703 125.169C256.937 124.776 258.759 125.062 261.4 126.831L261.957 126ZM254.63 141.434C254.661 141.425 254.806 141.407 255.123 141.633C255.432 141.852 255.832 142.254 256.326 142.912L257.126 142.312C256.604 141.616 256.131 141.122 255.702 140.817C255.281 140.518 254.82 140.346 254.37 140.468L254.63 141.434Z" fill="#222222"/>
</g>
<g id="head">
<path d="M175.408 156.979C170.608 151.379 173.408 147.979 175.408 146.979C189.241 144.979 218.008 142.179 222.408 146.979C227.908 152.979 221.908 157.979 219.408 160.979C216.908 163.979 216.408 164.979 215.908 167.979C215.408 170.979 215.441 175.721 209.258 179.328C203.258 182.828 196.258 182.328 190.258 179.328C184.291 176.345 181.908 171.979 181.908 167.979C181.908 163.979 181.408 163.979 175.408 156.979Z" fill="#EEEAE4"/>
<path d="M179.516 150.37C180.849 156.37 184.916 168.77 190.516 170.37C197.516 172.37 206.016 172.37 210.516 168.87C214.116 166.07 217.349 155.37 218.516 150.37C221.682 148.703 226.916 143.47 222.516 135.87C224.016 133.37 226.516 127.37 219.516 126.37C219.516 122.87 219.516 112.37 207.016 116.87C204.016 113.87 197.516 107.87 192.016 117.87C190.016 116.87 180.516 114.87 180.516 123.37C177.516 124.37 170.516 128.37 175.016 136.87C173.015 139.37 169.516 144.37 179.516 150.37Z" fill="#222222"/>
<path d="M175.408 156.979L175.788 156.653H175.788L175.408 156.979ZM175.408 146.979L175.336 146.484L175.256 146.495L175.184 146.532L175.408 146.979ZM222.408 146.979L222.777 146.641L222.408 146.979ZM209.258 179.328L209.51 179.76L209.258 179.328ZM190.258 179.328L190.034 179.776L190.258 179.328ZM179.516 150.37L180.004 150.261L179.957 150.051L179.773 149.941L179.516 150.37ZM190.516 170.37L190.653 169.889L190.516 170.37ZM210.516 168.87L210.822 169.264L210.516 168.87ZM218.516 150.37L218.283 149.927L218.081 150.034L218.029 150.256L218.516 150.37ZM222.516 135.87L222.087 135.612L221.935 135.865L222.083 136.12L222.516 135.87ZM219.516 126.37H219.016V126.803L219.445 126.865L219.516 126.37ZM207.016 116.87L206.662 117.223L206.886 117.448L207.185 117.34L207.016 116.87ZM192.016 117.87L191.792 118.317L192.222 118.532L192.454 118.111L192.016 117.87ZM180.516 123.37L180.674 123.844L181.016 123.73V123.37H180.516ZM175.016 136.87L175.406 137.182L175.611 136.926L175.457 136.636L175.016 136.87ZM175.788 156.653C173.449 153.925 173.04 151.828 173.347 150.356C173.659 148.866 174.732 147.876 175.632 147.426L175.184 146.532C174.084 147.082 172.757 148.291 172.368 150.151C171.976 152.029 172.567 154.433 175.028 157.304L175.788 156.653ZM175.479 147.474C182.385 146.475 193.016 145.278 202.464 144.928C207.19 144.754 211.603 144.792 215.1 145.17C216.849 145.358 218.353 145.631 219.546 145.997C220.751 146.366 221.579 146.815 222.039 147.317L222.777 146.641C222.137 145.943 221.104 145.429 219.839 145.041C218.563 144.649 216.99 144.368 215.207 144.175C211.64 143.79 207.172 143.754 202.427 143.929C192.933 144.28 182.264 145.482 175.336 146.484L175.479 147.474ZM222.039 147.317C223.359 148.756 223.959 150.101 224.115 151.338C224.272 152.579 223.99 153.763 223.456 154.89C222.921 156.02 222.14 157.076 221.322 158.048C220.914 158.532 220.502 158.991 220.109 159.427C219.718 159.86 219.344 160.275 219.024 160.659L219.792 161.299C220.097 160.933 220.457 160.535 220.852 160.097C221.244 159.662 221.667 159.191 222.087 158.691C222.926 157.694 223.77 156.562 224.36 155.318C224.951 154.069 225.294 152.691 225.107 151.213C224.92 149.732 224.207 148.202 222.777 146.641L222.039 147.317ZM219.024 160.659C217.773 162.16 216.989 163.198 216.461 164.255C215.927 165.322 215.667 166.38 215.415 167.897L216.401 168.061C216.648 166.577 216.889 165.635 217.355 164.702C217.827 163.759 218.543 162.798 219.792 161.299L219.024 160.659ZM215.415 167.897C215.155 169.457 215.05 171.294 214.252 173.236C213.467 175.144 212.004 177.147 209.006 178.897L209.51 179.76C212.695 177.902 214.307 175.731 215.177 173.616C216.032 171.535 216.161 169.5 216.401 168.061L215.415 167.897ZM209.006 178.897C203.183 182.293 196.367 181.824 190.481 178.881L190.034 179.776C196.148 182.833 203.332 183.364 209.51 179.76L209.006 178.897ZM190.481 178.881C184.651 175.966 182.408 171.755 182.408 167.979H181.408C181.408 172.203 183.931 176.724 190.034 179.776L190.481 178.881ZM182.408 167.979C182.408 166.976 182.378 166.181 182.225 165.454C182.071 164.715 181.794 164.065 181.33 163.335C180.429 161.92 178.76 160.121 175.788 156.653L175.028 157.304C178.056 160.836 179.636 162.537 180.486 163.872C180.897 164.517 181.12 165.055 181.247 165.659C181.376 166.277 181.408 166.982 181.408 167.979H182.408ZM179.027 150.478C179.7 153.503 181.06 158.139 182.962 162.23C183.913 164.276 185.008 166.202 186.232 167.726C187.45 169.244 188.835 170.41 190.378 170.85L190.653 169.889C189.396 169.53 188.172 168.546 187.012 167.1C185.856 165.662 184.801 163.814 183.869 161.809C182.005 157.8 180.665 153.236 180.004 150.261L179.027 150.478ZM190.378 170.85C193.925 171.864 197.856 172.372 201.479 172.181C205.093 171.991 208.459 171.102 210.822 169.264L210.209 168.475C208.072 170.137 204.938 170.998 201.427 171.183C197.925 171.367 194.106 170.875 190.653 169.889L190.378 170.85ZM210.822 169.264C211.802 168.502 212.718 167.239 213.556 165.746C214.4 164.242 215.188 162.462 215.895 160.624C217.309 156.948 218.415 153 219.002 150.483L218.029 150.256C217.449 152.739 216.356 156.641 214.961 160.265C214.264 162.077 213.496 163.81 212.684 165.256C211.867 166.713 211.029 167.837 210.209 168.475L210.822 169.264ZM218.748 150.812C220.404 149.941 222.595 148.144 223.806 145.557C225.031 142.938 225.228 139.557 222.948 135.619L222.083 136.12C224.203 139.783 223.983 142.818 222.9 145.133C221.803 147.478 219.794 149.132 218.283 149.927L218.748 150.812ZM222.944 136.127C223.705 134.858 224.77 132.629 224.703 130.541C224.668 129.477 224.339 128.426 223.506 127.575C222.678 126.729 221.406 126.135 219.586 125.875L219.445 126.865C221.125 127.105 222.165 127.635 222.791 128.274C223.411 128.907 223.675 129.699 223.703 130.573C223.761 132.361 222.826 134.381 222.087 135.612L222.944 136.127ZM220.016 126.37C220.016 125.495 220.016 124.151 219.815 122.707C219.615 121.266 219.211 119.688 218.377 118.355C217.535 117.007 216.257 115.916 214.355 115.476C212.47 115.041 210.023 115.256 206.846 116.399L207.185 117.34C210.258 116.234 212.499 116.074 214.13 116.451C215.742 116.823 216.809 117.733 217.529 118.885C218.258 120.051 218.634 121.473 218.825 122.845C219.015 124.213 219.016 125.494 219.016 126.37H220.016ZM207.369 116.516C205.882 115.029 203.413 112.67 200.566 112.008C199.117 111.67 197.565 111.772 196.014 112.636C194.476 113.494 192.98 115.079 191.577 117.629L192.454 118.111C193.801 115.661 195.18 114.246 196.501 113.509C197.81 112.78 199.102 112.694 200.34 112.982C202.868 113.57 205.149 115.711 206.662 117.223L207.369 116.516ZM192.239 117.422C191.68 117.143 190.659 116.819 189.457 116.619C188.249 116.417 186.816 116.334 185.433 116.564C184.05 116.794 182.685 117.346 181.665 118.443C180.639 119.548 180.016 121.148 180.016 123.37H181.016C181.016 121.341 181.58 120.004 182.397 119.124C183.221 118.237 184.356 117.757 185.598 117.55C186.84 117.343 188.157 117.416 189.293 117.605C190.434 117.795 191.351 118.096 191.792 118.317L192.239 117.422ZM180.357 122.895C178.804 123.413 176.194 124.71 174.546 127.017C173.716 128.179 173.13 129.599 173.055 131.293C172.98 132.985 173.416 134.916 174.574 137.104L175.457 136.636C174.365 134.573 173.988 132.817 174.054 131.337C174.12 129.859 174.628 128.623 175.36 127.598C176.837 125.529 179.227 124.326 180.674 123.844L180.357 122.895ZM174.625 136.557C173.628 137.804 172.13 139.814 172.266 142.334C172.404 144.891 174.2 147.763 179.258 150.798L179.773 149.941C174.831 146.976 173.377 144.349 173.265 142.28C173.151 140.176 174.403 138.436 175.406 137.182L174.625 136.557Z" fill="#222222"/>
</g>
<g id="body">
<path d="M132.336 268.328C130.847 267.057 132.333 265.759 132.715 263.328C128.255 264.662 117.336 262.528 109.336 243.328C108.669 240.495 107.436 233.428 107.836 227.828C108.336 220.828 111.336 213.328 114.336 209.328C121.143 198.162 144.758 175.828 184.758 175.828H213.758C226.258 176.828 258.236 182.928 275.836 197.328C297.836 215.328 299.836 239.328 290.336 252.828C281.136 263.228 274.631 264.162 272.529 263.328C273.04 265.932 273.336 268.161 273.336 269.828C256.618 289.828 178 307.328 132.336 268.328Z" fill="#222222"/>
<path d="M142.336 222.328C139.402 233.265 134.248 253.593 132.715 263.328M259.836 222.328C263.52 232.154 270.221 251.565 272.529 263.328M132.715 263.328C132.333 265.759 130.847 267.057 132.336 268.328C178 307.328 256.618 289.828 273.336 269.828C273.336 268.161 273.04 265.932 272.529 263.328M132.715 263.328C128.255 264.662 117.336 262.528 109.336 243.328C108.669 240.495 107.436 233.428 107.836 227.828C108.336 220.828 111.336 213.328 114.336 209.328C121.143 198.162 144.758 175.828 184.758 175.828H213.758C226.258 176.828 258.236 182.928 275.836 197.328C297.836 215.328 299.836 239.328 290.336 252.828C281.136 263.228 274.631 264.162 272.529 263.328" stroke="#222222"/>
</g>
</g>
<g id="desktop">
<path id="monitorUnder" d="M175 93.8284L217 93.3284C216.833 98.4951 212.6 108.828 197 108.828C177.5 108.828 175 98.3284 175 93.8284Z" fill="#222222" stroke="#222222"/>
<g id="monitor">
<path d="M126 92.3284C122 63.1618 114.2 4.42843 115 2.82843C116 0.828427 277 -1.17157 278 0.828427C278.8 2.42843 275.667 60.8284 274 89.8284L126 92.3284Z" fill="#222222"/>
<path d="M117.5 6.32843L276.5 4.32843L272.5 76.8284L126 78.8284L117.5 6.32843Z" fill="#EEEAE4"/>
<path d="M126 92.3284L125.505 92.3964L125.565 92.8359L126.008 92.8284L126 92.3284ZM274 89.8284L274.008 90.3284L274.473 90.3205L274.499 89.8571L274 89.8284ZM117.5 6.32843L117.494 5.82847L116.939 5.83545L117.003 6.38665L117.5 6.32843ZM276.5 4.32843L276.999 4.35597L277.029 3.82174L276.494 3.82847L276.5 4.32843ZM272.5 76.8284L272.507 77.3284L272.974 77.322L272.999 76.856L272.5 76.8284ZM126 78.8284L125.503 78.8867L125.556 79.3345L126.007 79.3284L126 78.8284ZM126.495 92.2605C124.495 77.6781 121.546 55.7049 119.196 37.178C118.021 27.9142 116.997 19.5143 116.316 13.3315C115.975 10.2394 115.721 7.70597 115.577 5.89755C115.505 4.9924 115.461 4.27541 115.448 3.76332C115.441 3.50638 115.442 3.30957 115.449 3.17012C115.453 3.10011 115.458 3.05262 115.463 3.02336C115.469 2.98364 115.47 3.00652 115.447 3.05203L114.553 2.60482C114.505 2.70033 114.485 2.80111 114.475 2.86652C114.463 2.9424 114.455 3.02727 114.451 3.11621C114.441 3.29465 114.441 3.52201 114.448 3.79027C114.462 4.32855 114.508 5.06595 114.58 5.97688C114.726 7.80063 114.981 10.3461 115.322 13.441C116.003 19.6321 117.029 28.0385 118.204 37.3038C120.554 55.8353 123.505 77.8121 125.505 92.3964L126.495 92.2605ZM115.447 3.05203C115.415 3.11702 115.375 3.15783 115.352 3.17834C115.328 3.19963 115.309 3.21115 115.302 3.21509C115.289 3.22221 115.292 3.21877 115.323 3.20843C115.382 3.18831 115.486 3.16216 115.645 3.13255C115.957 3.0741 116.421 3.0135 117.034 2.9519C118.257 2.82906 120.029 2.7065 122.277 2.58552C126.771 2.34367 133.141 2.10944 140.764 1.89072C156.011 1.45333 176.258 1.07837 196.506 0.828389C216.755 0.578408 237.002 0.453438 252.248 0.515923C259.872 0.547168 266.242 0.625275 270.735 0.757897C272.983 0.824242 274.755 0.904055 275.977 0.99786C276.59 1.0449 277.054 1.09465 277.366 1.14592C277.525 1.17191 277.628 1.19568 277.686 1.21425C277.716 1.22381 277.718 1.22683 277.704 1.21914C277.697 1.21491 277.676 1.20304 277.651 1.1811C277.627 1.15981 277.586 1.1182 277.553 1.05203L278.447 0.60482C278.371 0.45233 278.245 0.375572 278.191 0.345425C278.122 0.30746 278.05 0.280686 277.988 0.260937C277.862 0.220878 277.704 0.187945 277.528 0.159124C277.173 0.100781 276.675 0.0484737 276.054 0.000791378C274.807 -0.0948569 273.017 -0.175201 270.765 -0.241668C266.258 -0.37467 259.878 -0.452814 252.252 -0.484069C236.998 -0.546584 216.745 -0.421554 196.494 -0.171535C176.242 0.0784843 155.989 0.453527 140.736 0.891133C133.109 1.10992 126.729 1.34443 122.223 1.58696C119.971 1.70817 118.181 1.8317 116.934 1.95691C116.313 2.01933 115.816 2.08324 115.461 2.14955C115.285 2.18232 115.128 2.21861 115.003 2.26096C114.941 2.28185 114.87 2.30965 114.803 2.34802C114.751 2.37829 114.628 2.45513 114.553 2.60482L115.447 3.05203ZM277.553 1.05203C277.535 1.01623 277.536 1.00231 277.545 1.04383C277.551 1.07626 277.559 1.12615 277.567 1.19709C277.582 1.33849 277.596 1.53634 277.606 1.79269C277.626 2.30388 277.632 3.01842 277.626 3.91914C277.614 5.71897 277.551 8.23943 277.447 11.3147C277.24 17.4641 276.871 25.8174 276.426 35.0293C275.534 53.4522 274.334 75.3006 273.501 89.7997L274.499 89.8571C275.333 75.3563 276.533 53.5046 277.424 35.0776C277.87 25.8644 278.239 17.5053 278.447 11.3484C278.55 8.27055 278.614 5.73944 278.626 3.92599C278.632 3.02008 278.626 2.28754 278.605 1.75333C278.594 1.48697 278.58 1.26253 278.561 1.08732C278.551 0.999946 278.539 0.917947 278.525 0.845573C278.512 0.782281 278.49 0.690628 278.447 0.60482L277.553 1.05203ZM273.992 89.3285L125.992 91.8285L126.008 92.8284L274.008 90.3284L273.992 89.3285ZM117.506 6.82839L276.506 4.82839L276.494 3.82847L117.494 5.82847L117.506 6.82839ZM276.001 4.30089L272.001 76.8009L272.999 76.856L276.999 4.35597L276.001 4.30089ZM272.493 76.3285L125.993 78.3285L126.007 79.3284L272.507 77.3284L272.493 76.3285ZM126.497 78.7702L117.997 6.27021L117.003 6.38665L125.503 78.8867L126.497 78.7702Z" fill="#222222"/>
</g>
<path id="list" d="M126 15.6036C142.667 14.9369 176.3 13.8036 177.5 14.6036M127.5 20.1036L170 19.1036M147.5 29.1036C159.411 28.7131 178 28.1036 178 28.1036M149 33.6036C155.833 33.6036 169.8 33.5036 171 33.1036M151.5 45.6036C162.333 45.1036 184.2 44.2036 185 44.6036M152.5 48.6036C160.333 48.6036 176.2 48.6036 177 48.6036M153.5 61.1036C165.167 61.1036 188.8 61.2036 190 61.6036M154 65.6036C163.833 65.6036 183.7 65.5036 184.5 65.1036M205 15.1036C225.833 14.7702 267.7 14.2036 268.5 14.6036M206.5 20.1036C226.667 19.7702 267.2 19.2036 268 19.6036M227 29.6036L264.5 29.1036M227 34.1036L256 33.1036M227.5 45.6036H264.5M228.5 49.6036L255 49.1036M227 61.6036C239.5 61.6036 264.8 61.6036 266 61.6036M228.5 65.6036C238.5 65.6036 258.7 65.6036 259.5 65.6036" stroke="#222222"/>
<path id="check" d="M216.5 26.6036C213.333 26.6036 207 26.7036 207 27.1036C207 27.6036 207.5 37.1036 208 37.6036C208.5 38.1036 219.5 37.6036 220 37.6036C220.5 37.6036 220 31.6036 220 30.6036M209 29.6036L213 35.1036C216.167 31.6036 222.6 24.4036 223 23.6036M140 42.6036C137 42.4369 131 42.3036 131 43.1036C131 44.1036 132.5 51.6036 133 52.1036C133.5 52.6036 144 53.1036 144 52.1036C144 51.3036 143.333 47.1036 143 45.1036M133 45.6036C134.333 46.9369 137 49.8036 137 50.6036C137 51.6036 141.5 42.1036 144 40.6036M219 43.1036H208.5V52.1036L219.5 52.6036C219.167 49.7702 218.6 43.9036 219 43.1036ZM219.5 60.1036C216.167 59.6036 209.3 58.8036 208.5 59.6036C207.7 60.4036 208.5 66.2702 209 69.1036C212.333 69.2702 219.1 69.5036 219.5 69.1036C220 68.6036 219.5 61.1036 219.5 60.1036ZM128.5 26.6036C129 30.1036 130.1 37.2036 130.5 37.6036C130.9 38.0036 138 37.1036 141.5 36.6036L140.5 27.1036L128.5 26.6036ZM145 59.1036C141.667 59.4369 134.9 60.0036 134.5 59.6036C134 59.1036 135.5 68.1036 136 68.6036C136.5 69.1036 146 68.6036 146.5 68.1036C147 67.6036 145.5 59.6036 145 59.1036Z" stroke="#222222"/>
</g>
<g id="Book">
<g id="whiteBook">
<path d="M347.946 168.673C348.446 168.673 380.046 152.773 382.446 151.173C385.224 149.321 383.716 144.47 381.493 142.173C381.184 141.977 380.867 141.776 380.543 141.571C374.331 139.241 352.377 152.494 347.946 154.673C350.42 156.941 350.875 159.837 350.462 162.5C350.073 165.003 348.916 167.3 347.946 168.673Z" fill="#EEEAE4"/>
<path d="M318.204 133.368C327.978 140.611 347.946 154.673 347.946 154.673C352.377 152.494 374.331 139.241 380.543 141.571C367.403 133.255 342.508 118.221 340.946 120.173C333.73 122.578 311.42 123.877 315.493 130.655C316.312 131.285 317.053 132.515 318.204 133.368Z" fill="#EEEAE4"/>
<path d="M347.441 168C347.388 168.249 347.885 168.673 347.946 168.673C348.916 167.3 350.073 165.003 350.462 162.5C350.875 159.837 350.42 156.941 347.946 154.673C347.946 154.673 327.978 140.611 318.204 133.368C316.865 132.376 315.986 131.475 315.493 130.655C318.006 135.455 316.135 140.84 315.088 142.673L347.441 168Z" fill="#EEEAE4"/>
<path d="M382.446 151.173L382.724 151.589L382.446 151.173ZM347.441 168L347.93 168.105L347.996 167.799L347.749 167.606L347.441 168ZM315.088 142.673L314.654 142.425L314.439 142.8L314.78 143.067L315.088 142.673ZM340.946 120.173L341.104 120.647L341.245 120.601L341.337 120.485L340.946 120.173ZM318.204 133.368L318.502 132.967L318.204 133.368ZM382.169 150.757C381.598 151.137 379.208 152.414 375.883 154.139C372.578 155.853 368.389 157.99 364.258 160.077C360.128 162.164 356.058 164.201 352.989 165.715C351.455 166.473 350.172 167.099 349.258 167.536C348.801 167.754 348.439 167.924 348.185 168.038C348.057 168.096 347.961 168.137 347.895 168.164C347.862 168.177 347.842 168.184 347.833 168.188C347.828 168.189 347.832 168.188 347.842 168.185C347.847 168.184 347.857 168.181 347.871 168.179C347.883 168.177 347.911 168.173 347.946 168.173V169.173C348.015 169.173 348.07 169.159 348.085 169.155C348.111 169.149 348.134 169.142 348.152 169.135C348.188 169.123 348.229 169.108 348.27 169.091C348.353 169.057 348.463 169.009 348.595 168.95C348.86 168.831 349.23 168.657 349.689 168.438C350.609 167.999 351.896 167.37 353.432 166.612C356.504 165.095 360.577 163.057 364.709 160.969C368.841 158.881 373.034 156.743 376.344 155.026C379.635 153.319 382.094 152.009 382.724 151.589L382.169 150.757ZM347.946 168.173C347.981 168.173 348.009 168.177 348.03 168.18C348.051 168.184 348.069 168.189 348.082 168.192C348.107 168.2 348.126 168.208 348.137 168.213C348.148 168.218 348.156 168.222 348.161 168.225C348.165 168.227 348.169 168.229 348.17 168.23C348.172 168.232 348.171 168.231 348.166 168.228C348.162 168.224 348.155 168.219 348.147 168.213C348.112 168.185 348.065 168.142 348.02 168.092C347.998 168.068 347.978 168.045 347.962 168.023C347.946 168.001 347.935 167.985 347.93 167.974C347.923 167.962 347.927 167.966 347.931 167.982C347.935 167.999 347.943 168.044 347.93 168.105L346.952 167.895C346.901 168.132 346.989 168.337 347.048 168.446C347.115 168.571 347.204 168.682 347.282 168.767C347.362 168.855 347.447 168.933 347.521 168.993C347.558 169.022 347.599 169.052 347.64 169.078C347.66 169.091 347.689 169.108 347.724 169.124C347.74 169.131 347.829 169.173 347.946 169.173V168.173ZM347.749 167.606L315.396 142.279L314.78 143.067L347.133 168.394L347.749 167.606ZM315.522 142.921C316.077 141.949 316.828 140.082 317.121 137.841C317.415 135.596 317.253 132.939 315.936 130.423L315.05 130.887C316.246 133.171 316.405 135.607 316.13 137.712C315.854 139.821 315.145 141.564 314.654 142.425L315.522 142.921ZM381.133 142.521C382.175 143.597 383.062 145.293 383.352 146.927C383.644 148.571 383.317 149.991 382.169 150.757L382.724 151.589C384.353 150.503 384.66 148.572 384.337 146.752C384.012 144.924 383.033 143.046 381.852 141.825L381.133 142.521ZM354.153 157.128C356.902 155.879 361.074 154.005 364.658 152.444C366.451 151.663 368.093 150.962 369.336 150.456C369.958 150.203 370.475 150.001 370.859 149.863C371.052 149.794 371.205 149.743 371.319 149.71C371.454 149.67 371.478 149.673 371.446 149.673V148.673C371.314 148.673 371.157 148.715 371.038 148.75C370.897 148.791 370.722 148.85 370.521 148.922C370.118 149.067 369.586 149.275 368.959 149.53C367.705 150.04 366.054 150.745 364.259 151.527C360.668 153.091 356.491 154.967 353.739 156.218L354.153 157.128ZM346.246 159.773C341.913 156.523 335.364 151.599 329.798 147.387C327.015 145.281 324.478 143.353 322.588 141.903C321.643 141.178 320.86 140.572 320.29 140.124C319.703 139.663 319.373 139.393 319.3 139.319L318.593 140.027C318.72 140.153 319.113 140.471 319.672 140.91C320.247 141.362 321.033 141.97 321.979 142.696C323.872 144.149 326.411 146.078 329.195 148.184C334.762 152.397 341.313 157.323 345.646 160.573L346.246 159.773ZM332.158 154.082C334.408 155.665 337.807 158.064 340.694 160.118C342.137 161.145 343.452 162.085 344.43 162.792C344.919 163.146 345.323 163.441 345.616 163.659C345.763 163.769 345.88 163.857 345.965 163.924C346.061 163.999 346.094 164.028 346.093 164.027L346.8 163.319C346.749 163.268 346.663 163.2 346.58 163.135C346.486 163.062 346.362 162.968 346.213 162.857C345.914 162.635 345.506 162.337 345.016 161.982C344.035 161.272 342.718 160.33 341.274 159.303C338.385 157.248 334.984 154.848 332.734 153.264L332.158 154.082ZM347.946 154.673C348.234 154.264 348.234 154.264 348.234 154.264C348.234 154.264 348.234 154.264 348.233 154.264C348.233 154.263 348.232 154.263 348.231 154.262C348.228 154.26 348.225 154.257 348.22 154.254C348.21 154.247 348.196 154.237 348.177 154.224C348.139 154.197 348.082 154.157 348.008 154.105C347.859 154 347.64 153.845 347.357 153.646C346.792 153.247 345.974 152.67 344.962 151.954C342.938 150.523 340.137 148.539 337.03 146.329C330.816 141.908 323.384 136.584 318.502 132.967L317.906 133.77C322.798 137.394 330.237 142.723 336.45 147.144C339.558 149.355 342.36 151.339 344.385 152.771C345.397 153.487 346.216 154.064 346.781 154.463C347.064 154.663 347.283 154.817 347.432 154.922C347.506 154.974 347.563 155.014 347.601 155.041C347.62 155.055 347.634 155.065 347.644 155.072C347.649 155.075 347.652 155.078 347.655 155.079C347.656 155.08 347.657 155.081 347.658 155.081C347.658 155.081 347.658 155.082 347.658 155.082C347.658 155.082 347.658 155.082 347.946 154.673ZM318.502 132.967C317.973 132.575 317.531 132.091 317.1 131.599C316.686 131.126 316.256 130.612 315.797 130.259L315.188 131.052C315.548 131.329 315.898 131.744 316.348 132.257C316.78 132.751 317.284 133.309 317.906 133.77L318.502 132.967ZM348.355 168.961C349.358 167.54 350.552 165.172 350.956 162.577L349.968 162.423C349.593 164.835 348.473 167.06 347.538 168.385L348.355 168.961ZM350.956 162.577C351.387 159.802 350.917 156.717 348.284 154.304L347.608 155.042C349.924 157.164 350.364 159.873 349.968 162.423L350.956 162.577ZM350.651 162.963L361.631 158.463L361.251 157.537L350.272 162.037L350.651 162.963ZM318.502 132.967C316.977 131.836 316.12 130.871 315.741 130.06C315.378 129.287 315.445 128.652 315.809 128.074C316.198 127.458 316.95 126.867 318.043 126.31C319.125 125.757 320.488 125.264 322.029 124.815C325.113 123.917 328.841 123.218 332.327 122.571C335.789 121.929 339.041 121.335 341.104 120.647L340.788 119.699C338.807 120.359 335.643 120.939 332.144 121.588C328.67 122.232 324.891 122.94 321.75 123.855C320.179 124.312 318.749 124.826 317.588 125.419C316.436 126.007 315.494 126.7 314.963 127.541C314.409 128.42 314.335 129.417 314.835 130.485C315.318 131.516 316.33 132.602 317.906 133.77L318.502 132.967ZM381.761 141.751C381.452 141.555 381.135 141.354 380.811 141.149L380.276 141.994C380.599 142.198 380.916 142.399 381.224 142.595L381.761 141.751ZM380.719 141.103C379.834 140.771 378.719 140.731 377.482 140.879C376.236 141.028 374.819 141.372 373.302 141.852C370.267 142.811 366.777 144.33 363.359 145.981C359.939 147.633 356.577 149.426 353.796 150.94C351.004 152.46 348.821 153.686 347.726 154.224L348.167 155.122C349.287 154.571 351.51 153.323 354.274 151.818C357.05 150.307 360.396 148.523 363.794 146.881C367.196 145.238 370.636 143.744 373.603 142.805C375.087 142.336 376.439 142.011 377.6 141.872C378.77 141.732 379.7 141.789 380.368 142.039L380.719 141.103ZM380.811 141.149C374.237 136.988 364.721 131.146 356.649 126.586C352.615 124.308 348.931 122.343 346.153 121.069C344.767 120.434 343.586 119.961 342.692 119.71C342.248 119.585 341.847 119.506 341.513 119.5C341.207 119.495 340.807 119.547 340.556 119.861L341.337 120.485C341.281 120.555 341.258 120.496 341.495 120.5C341.704 120.504 342.01 120.557 342.422 120.672C343.24 120.902 344.363 121.349 345.736 121.978C348.475 123.234 352.129 125.182 356.157 127.457C364.208 132.005 373.71 137.838 380.276 141.994L380.811 141.149ZM381.852 141.825C381.539 141.502 381.154 141.266 380.719 141.103L380.368 142.039C380.687 142.159 380.939 142.32 381.133 142.521L381.852 141.825ZM340.788 119.699C339.024 120.287 336.315 120.813 333.261 121.381C330.224 121.946 326.869 122.548 323.866 123.289C320.879 124.026 318.168 124.915 316.455 126.083C315.596 126.669 314.931 127.362 314.648 128.197C314.356 129.055 314.497 129.969 315.064 130.913L315.921 130.398C315.47 129.647 315.418 129.038 315.594 128.519C315.779 127.975 316.246 127.436 317.018 126.909C318.569 125.852 321.122 124.996 324.106 124.26C327.073 123.528 330.394 122.931 333.443 122.364C336.475 121.8 339.26 121.262 341.104 120.647L340.788 119.699ZM318.502 132.967C317.188 131.993 316.366 131.138 315.921 130.398L315.064 130.913C315.605 131.812 316.542 132.759 317.906 133.77L318.502 132.967Z" fill="#222222"/>
</g>
<g id="blackBook">
<mask id="path-18-outside-1_469_24" maskUnits="userSpaceOnUse" x="320" y="92" width="59" height="48" fill="black">
<rect fill="white" x="320" y="92" width="59" height="48"/>
<path fill-rule="evenodd" clip-rule="evenodd" d="M352.272 120.758C351.411 124.442 349.609 132.154 356.6 137.5C359.978 136.749 370.665 129.775 376.514 125.751L358.1 138.5C348.766 136 328.7 130 323.1 126C321.1 120 319.6 112 323.1 108C326.6 104 340.6 93 341.6 93C342.6 93 372.099 101 374.1 104C373.586 104.311 373.036 104.645 372.456 105C364.952 109.594 352.6 117.515 352.6 119C352.6 119.355 352.458 119.963 352.272 120.758ZM346.6 99C345.8 99 339.6 105 339.1 106C338.6 107 339.6 107 340.1 106.5C340.35 106.25 342.1 104.75 343.85 103.25C345.6 101.75 347.35 100.25 347.6 100C348.1 99.5 347.4 99 346.6 99ZM345.1 107C344.1 107.5 344.1 107 345.1 106C345.315 105.785 345.599 105.477 345.924 105.127C347.106 103.848 348.815 102 349.6 102C350.6 102 351.7 102.3 350.1 103.5C349.7 103.9 346.1 106.5 345.1 107ZM350.1 118C349.6 117.5 332.933 111.5 324.6 109C324.1 108.85 322.6 109 324.1 110C325.127 110.685 342.454 116.217 347.959 117.974C348.886 118.271 349.478 118.46 349.6 118.5C350.441 118.78 350.6 118.5 350.1 118Z"/>
<path d="M339.1 106C339.6 105 345.8 99 346.6 99C347.4 99 348.1 99.5 347.6 100C347.35 100.25 345.6 101.75 343.85 103.25C342.1 104.75 340.35 106.25 340.1 106.5C339.6 107 338.6 107 339.1 106Z"/>
<path d="M345.1 107C344.1 107.5 344.1 107 345.1 106C345.315 105.785 345.599 105.477 345.924 105.127C347.106 103.848 348.815 102 349.6 102C350.6 102 351.7 102.3 350.1 103.5C349.7 103.9 346.1 106.5 345.1 107Z"/>
<path d="M324.6 109C332.933 111.5 349.6 117.5 350.1 118C350.6 118.5 350.441 118.78 349.6 118.5C349.478 118.46 348.886 118.271 347.959 117.974C342.454 116.217 325.127 110.685 324.1 110C322.6 109 324.1 108.85 324.6 109Z"/>
<path d="M371.764 113.5L357.6 123C357.066 123.667 356.7 124.6 359.5 123C362.172 121.473 369.815 116.157 371.828 114.173C371.804 113.951 371.782 113.727 371.764 113.5Z"/>
<path d="M357.6 129L366.1 124C367.9 123.5 369.9 123.4 363.5 127C357.1 130.6 356.9 129.833 357.6 129Z"/>
<path fill-rule="evenodd" clip-rule="evenodd" d="M356.6 137.5C359.978 136.749 370.665 129.775 376.514 125.751C374.89 124.003 372.454 119.88 371.828 114.173C369.815 116.157 362.172 121.473 359.5 123C356.7 124.6 357.066 123.667 357.6 123L371.764 113.5C371.553 110.943 371.71 108.088 372.456 105C364.952 109.594 352.6 117.515 352.6 119C352.6 119.355 352.458 119.963 352.272 120.758C351.411 124.442 349.609 132.154 356.6 137.5ZM366.1 124L357.6 129C356.9 129.833 357.1 130.6 363.5 127C369.9 123.4 367.9 123.5 366.1 124Z"/>
</mask>
<path fill-rule="evenodd" clip-rule="evenodd" d="M352.272 120.758C351.411 124.442 349.609 132.154 356.6 137.5C359.978 136.749 370.665 129.775 376.514 125.751L358.1 138.5C348.766 136 328.7 130 323.1 126C321.1 120 319.6 112 323.1 108C326.6 104 340.6 93 341.6 93C342.6 93 372.099 101 374.1 104C373.586 104.311 373.036 104.645 372.456 105C364.952 109.594 352.6 117.515 352.6 119C352.6 119.355 352.458 119.963 352.272 120.758ZM346.6 99C345.8 99 339.6 105 339.1 106C338.6 107 339.6 107 340.1 106.5C340.35 106.25 342.1 104.75 343.85 103.25C345.6 101.75 347.35 100.25 347.6 100C348.1 99.5 347.4 99 346.6 99ZM345.1 107C344.1 107.5 344.1 107 345.1 106C345.315 105.785 345.599 105.477 345.924 105.127C347.106 103.848 348.815 102 349.6 102C350.6 102 351.7 102.3 350.1 103.5C349.7 103.9 346.1 106.5 345.1 107ZM350.1 118C349.6 117.5 332.933 111.5 324.6 109C324.1 108.85 322.6 109 324.1 110C325.127 110.685 342.454 116.217 347.959 117.974C348.886 118.271 349.478 118.46 349.6 118.5C350.441 118.78 350.6 118.5 350.1 118Z" fill="#222222"/>
<path d="M339.1 106C339.6 105 345.8 99 346.6 99C347.4 99 348.1 99.5 347.6 100C347.35 100.25 345.6 101.75 343.85 103.25C342.1 104.75 340.35 106.25 340.1 106.5C339.6 107 338.6 107 339.1 106Z" fill="#EEEAE4"/>
<path d="M345.1 107C344.1 107.5 344.1 107 345.1 106C345.315 105.785 345.599 105.477 345.924 105.127C347.106 103.848 348.815 102 349.6 102C350.6 102 351.7 102.3 350.1 103.5C349.7 103.9 346.1 106.5 345.1 107Z" fill="#EEEAE4"/>
<path d="M324.6 109C332.933 111.5 349.6 117.5 350.1 118C350.6 118.5 350.441 118.78 349.6 118.5C349.478 118.46 348.886 118.271 347.959 117.974C342.454 116.217 325.127 110.685 324.1 110C322.6 109 324.1 108.85 324.6 109Z" fill="#EEEAE4"/>
<path d="M371.764 113.5L357.6 123C357.066 123.667 356.7 124.6 359.5 123C362.172 121.473 369.815 116.157 371.828 114.173C371.804 113.951 371.782 113.727 371.764 113.5Z" fill="#222222"/>
<path d="M357.6 129L366.1 124C367.9 123.5 369.9 123.4 363.5 127C357.1 130.6 356.9 129.833 357.6 129Z" fill="#222222"/>
<path fill-rule="evenodd" clip-rule="evenodd" d="M356.6 137.5C359.978 136.749 370.665 129.775 376.514 125.751C374.89 124.003 372.454 119.88 371.828 114.173C369.815 116.157 362.172 121.473 359.5 123C356.7 124.6 357.066 123.667 357.6 123L371.764 113.5C371.553 110.943 371.71 108.088 372.456 105C364.952 109.594 352.6 117.515 352.6 119C352.6 119.355 352.458 119.963 352.272 120.758C351.411 124.442 349.609 132.154 356.6 137.5ZM366.1 124L357.6 129C356.9 129.833 357.1 130.6 363.5 127C369.9 123.4 367.9 123.5 366.1 124Z" fill="#EEEAE4"/>
<path d="M356.6 137.5L356.296 137.897L356.481 138.039L356.708 137.988L356.6 137.5ZM377.6 125L377.885 125.41L377.315 124.589L377.6 125ZM357.6 123L357.321 122.585L357.257 122.628L357.209 122.688L357.6 123ZM371.764 113.5L371.617 113.022L371.546 113.044L371.485 113.085L371.764 113.5ZM357.6 129L357.346 128.569L357.272 128.613L357.217 128.678L357.6 129ZM366.1 124L365.966 123.518L365.903 123.536L365.846 123.569L366.1 124ZM347.6 100L347.953 100.354V100.354L347.6 100ZM340.1 106.5L339.746 106.146L340.1 106.5ZM345.1 106L344.746 105.646L344.746 105.646L345.1 106ZM350.1 103.5L349.8 103.1L349.771 103.121L349.746 103.146L350.1 103.5ZM324.6 109L324.456 109.479L324.456 109.479L324.6 109ZM349.6 118.5L349.442 118.974H349.442L349.6 118.5ZM324.1 110L323.822 110.416H323.822L324.1 110ZM352.272 120.758L352.759 120.872L352.272 120.758ZM345.924 105.127L346.291 105.466L345.924 105.127ZM347.959 117.974L347.806 118.451L347.959 117.974ZM359.5 123L359.252 122.566L359.5 123ZM371.828 114.173L371.477 113.817L371.828 114.173ZM377.315 124.589L376.229 125.34L376.799 126.163L377.884 125.411L377.315 124.589ZM356.708 137.988C357.625 137.784 358.979 137.178 360.546 136.356C362.128 135.527 363.974 134.453 365.891 133.28C369.727 130.933 373.869 128.178 376.797 126.163L376.231 125.34C373.311 127.348 369.185 130.093 365.369 132.427C363.461 133.594 361.636 134.656 360.082 135.471C358.512 136.294 357.263 136.84 356.491 137.012L356.708 137.988ZM376.797 126.163C377.182 125.899 377.546 125.647 377.885 125.41L377.314 124.59C376.976 124.825 376.614 125.076 376.231 125.34L376.797 126.163ZM372.195 104.574C368.44 106.873 363.468 110.006 359.433 112.753C357.416 114.125 355.625 115.406 354.334 116.442C353.69 116.959 353.159 117.424 352.784 117.814C352.597 118.009 352.438 118.198 352.322 118.374C352.217 118.535 352.1 118.756 352.1 119H353.1C353.1 119.059 353.079 119.044 353.158 118.923C353.227 118.818 353.34 118.679 353.506 118.506C353.836 118.162 354.328 117.729 354.96 117.222C356.22 116.211 357.985 114.947 359.995 113.579C364.012 110.846 368.969 107.722 372.717 105.426L372.195 104.574ZM357.878 123.415L372.042 113.915L371.485 113.085L357.321 122.585L357.878 123.415ZM357.853 129.431L366.353 124.431L365.846 123.569L357.346 128.569L357.853 129.431ZM339.547 106.224C339.579 106.159 339.693 105.998 339.915 105.734C340.126 105.484 340.405 105.176 340.733 104.828C341.39 104.133 342.23 103.295 343.081 102.488C343.933 101.679 344.789 100.907 345.479 100.339C345.824 100.054 346.12 99.8276 346.347 99.6748C346.461 99.5979 346.549 99.5464 346.611 99.5159C346.691 99.476 346.673 99.5 346.6 99.5V98.5C346.426 98.5 346.266 98.5709 346.168 98.6193C346.05 98.6772 345.922 98.7556 345.789 98.8448C345.523 99.024 345.199 99.274 344.843 99.5673C344.129 100.156 343.254 100.946 342.393 101.762C341.532 102.58 340.678 103.43 340.006 104.141C339.671 104.496 339.378 104.82 339.15 105.09C338.935 105.346 338.745 105.591 338.652 105.776L339.547 106.224ZM346.6 99.5C346.916 99.5 347.161 99.6029 347.256 99.6874C347.299 99.7254 347.272 99.7214 347.268 99.6661C347.264 99.601 347.3 99.5926 347.246 99.6465L347.953 100.354C348.149 100.157 348.286 99.899 348.266 99.5995C348.246 99.3098 348.087 99.0871 347.918 98.9376C347.589 98.6471 347.083 98.5 346.6 98.5V99.5ZM339.746 106.146C339.678 106.215 339.587 106.27 339.497 106.302C339.453 106.317 339.415 106.325 339.386 106.327C339.356 106.33 339.344 106.327 339.346 106.327C339.35 106.328 339.375 106.336 339.405 106.364C339.438 106.394 339.456 106.43 339.461 106.456C339.466 106.476 339.46 106.472 339.468 106.43C339.477 106.388 339.499 106.32 339.547 106.224L338.652 105.776C338.506 106.069 338.418 106.385 338.488 106.685C338.57 107.031 338.83 107.229 339.104 107.298C339.352 107.36 339.612 107.321 339.827 107.245C340.05 107.168 340.272 107.035 340.453 106.854L339.746 106.146ZM344.876 106.553C344.765 106.608 344.676 106.646 344.609 106.669C344.576 106.68 344.55 106.687 344.532 106.692C344.513 106.696 344.505 106.696 344.506 106.696C344.507 106.696 344.525 106.695 344.555 106.701C344.585 106.707 344.635 106.723 344.689 106.761C344.818 106.854 344.85 106.99 344.85 107.062C344.85 107.117 344.835 107.133 344.853 107.093C344.867 107.06 344.896 107.008 344.948 106.934C345.05 106.787 345.216 106.591 345.453 106.354L344.746 105.646C344.484 105.909 344.274 106.151 344.127 106.363C344.053 106.469 343.989 106.576 343.941 106.682C343.896 106.782 343.85 106.915 343.85 107.062C343.85 107.229 343.912 107.435 344.105 107.573C344.271 107.692 344.454 107.702 344.568 107.694C344.799 107.68 345.062 107.578 345.323 107.447L344.876 106.553ZM349.6 102.5C349.829 102.5 350.047 102.518 350.22 102.555C350.306 102.573 350.369 102.594 350.412 102.613C350.458 102.634 350.462 102.645 350.451 102.632C350.434 102.613 350.411 102.573 350.409 102.524C350.407 102.483 350.421 102.479 350.397 102.522C350.344 102.621 350.183 102.812 349.8 103.1L350.4 103.9C350.816 103.588 351.118 103.291 351.277 102.997C351.36 102.843 351.418 102.665 351.408 102.472C351.397 102.271 351.316 102.1 351.198 101.968C350.988 101.731 350.672 101.629 350.429 101.577C350.165 101.52 349.87 101.5 349.6 101.5V102.5ZM345.323 107.447C345.865 107.176 347.049 106.376 348.114 105.62C348.654 105.237 349.177 104.856 349.591 104.545C349.989 104.246 350.323 103.984 350.453 103.854L349.746 103.146C349.677 103.216 349.41 103.429 348.99 103.746C348.585 104.05 348.07 104.426 347.535 104.805C346.45 105.574 345.334 106.324 344.876 106.553L345.323 107.447ZM324.456 109.479C328.611 110.725 334.851 112.847 340.12 114.721C342.753 115.658 345.14 116.532 346.898 117.202C347.778 117.537 348.497 117.82 349.01 118.034C349.267 118.141 349.467 118.229 349.608 118.296C349.679 118.329 349.729 118.355 349.761 118.373C349.809 118.4 349.785 118.392 349.746 118.354L350.453 117.646C350.384 117.577 350.296 117.527 350.251 117.501C350.191 117.467 350.118 117.431 350.037 117.392C349.875 117.315 349.658 117.22 349.395 117.111C348.868 116.891 348.138 116.604 347.254 116.267C345.487 115.593 343.092 114.717 340.455 113.779C335.182 111.903 328.922 109.775 324.743 108.521L324.456 109.479ZM349.746 118.354C349.852 118.46 349.889 118.522 349.896 118.537C349.899 118.543 349.884 118.513 349.883 118.456C349.882 118.39 349.903 118.3 349.971 118.22C350.032 118.147 350.101 118.122 350.126 118.115C350.15 118.108 350.154 118.112 350.124 118.111C350.064 118.108 349.946 118.088 349.758 118.026L349.442 118.974C349.674 119.052 349.891 119.102 350.082 119.11C350.24 119.117 350.535 119.101 350.735 118.865C350.966 118.591 350.875 118.273 350.805 118.12C350.728 117.951 350.597 117.79 350.453 117.646L349.746 118.354ZM324.377 109.584C324.206 109.47 324.092 109.378 324.02 109.307C323.984 109.272 323.962 109.245 323.949 109.227C323.935 109.209 323.934 109.204 323.937 109.211C323.941 109.219 323.949 109.243 323.95 109.28C323.951 109.318 323.944 109.36 323.927 109.401C323.893 109.479 323.843 109.505 323.849 109.502C323.853 109.5 323.879 109.487 323.934 109.475C323.987 109.463 324.052 109.455 324.123 109.452C324.193 109.448 324.263 109.45 324.325 109.456C324.389 109.463 324.433 109.472 324.456 109.479L324.744 108.521C324.549 108.463 324.301 108.442 324.077 108.453C323.861 108.463 323.578 108.504 323.35 108.635C323.231 108.704 323.087 108.82 323.007 109.008C322.921 109.21 322.941 109.416 323.012 109.59C323.136 109.893 323.439 110.161 323.822 110.416L324.377 109.584ZM351.785 120.645C350.931 124.3 349.027 132.339 356.296 137.897L356.903 137.103C350.192 131.97 351.892 124.583 352.759 120.872L351.785 120.645ZM352.1 119C352.1 119.125 352.073 119.324 352.015 119.617C351.958 119.902 351.878 120.244 351.785 120.645L352.759 120.872C352.851 120.477 352.935 120.117 352.996 119.811C353.055 119.513 353.1 119.23 353.1 119H352.1ZM340.453 106.854C340.685 106.622 342.409 105.143 344.175 103.63L343.524 102.87C341.79 104.357 340.014 105.878 339.746 106.146L340.453 106.854ZM344.175 103.63C345.909 102.143 347.685 100.622 347.953 100.354L347.246 99.6465C347.014 99.8784 345.29 101.357 343.524 102.87L344.175 103.63ZM349.6 101.5C349.242 101.5 348.88 101.695 348.583 101.893C348.262 102.107 347.916 102.398 347.571 102.717C346.881 103.354 346.145 104.151 345.556 104.787L346.291 105.466C346.885 104.823 347.594 104.057 348.25 103.451C348.578 103.148 348.881 102.897 349.138 102.724C349.267 102.638 349.375 102.579 349.461 102.542C349.504 102.523 349.537 102.513 349.562 102.506C349.574 102.503 349.584 102.502 349.59 102.501C349.593 102.5 349.596 102.5 349.597 102.5C349.598 102.5 349.599 102.5 349.599 102.5C349.6 102.5 349.6 102.5 349.6 102.5V101.5ZM345.556 104.787C345.229 105.141 344.953 105.44 344.746 105.646L345.453 106.354C345.677 106.13 345.969 105.814 346.291 105.466L345.556 104.787ZM323.822 110.416C323.931 110.488 324.1 110.566 324.281 110.643C324.474 110.726 324.723 110.824 325.017 110.935C325.607 111.158 326.394 111.438 327.323 111.76C329.182 112.404 331.619 113.216 334.194 114.06C339.345 115.749 345.054 117.572 347.806 118.451L348.111 117.498C345.358 116.619 339.652 114.797 334.506 113.11C331.932 112.266 329.501 111.456 327.65 110.815C326.725 110.495 325.947 110.217 325.371 109.999C325.082 109.89 324.848 109.798 324.672 109.723C324.584 109.686 324.514 109.654 324.461 109.628C324.435 109.615 324.414 109.605 324.399 109.597C324.383 109.588 324.377 109.584 324.377 109.584L323.822 110.416ZM347.806 118.451C348.738 118.748 349.324 118.935 349.442 118.974L349.758 118.026C349.632 117.984 349.035 117.793 348.111 117.498L347.806 118.451ZM357.209 122.688C357.064 122.869 356.909 123.094 356.817 123.313C356.772 123.418 356.724 123.567 356.729 123.729C356.734 123.916 356.815 124.14 357.04 124.277C357.227 124.391 357.434 124.392 357.583 124.376C357.743 124.358 357.922 124.309 358.117 124.239C358.508 124.097 359.039 123.839 359.748 123.434L359.252 122.566C358.561 122.961 358.088 123.186 357.777 123.299C357.62 123.355 357.524 123.376 357.473 123.382C357.41 123.389 357.469 123.367 357.56 123.423C357.689 123.501 357.726 123.632 357.728 123.7C357.729 123.745 357.718 123.75 357.739 123.7C357.778 123.606 357.868 123.465 357.99 123.312L357.209 122.688ZM359.748 123.434C361.106 122.658 363.702 120.935 366.2 119.166C368.69 117.403 371.138 115.555 372.179 114.529L371.477 113.817C370.504 114.776 368.125 116.578 365.622 118.35C363.128 120.116 360.566 121.815 359.252 122.566L359.748 123.434ZM372.179 114.529C372.342 114.368 372.484 114.215 372.589 114.077C372.641 114.008 372.692 113.932 372.732 113.853C372.768 113.781 372.816 113.666 372.819 113.527C372.822 113.362 372.758 113.176 372.59 113.048C372.451 112.943 372.299 112.923 372.209 112.919C372.027 112.911 371.818 112.96 371.617 113.022L371.91 113.978C371.995 113.952 372.06 113.936 372.107 113.927C372.157 113.917 372.173 113.919 372.165 113.918C372.16 113.918 372.14 113.917 372.111 113.909C372.082 113.901 372.036 113.883 371.986 113.846C371.933 113.805 371.886 113.75 371.855 113.68C371.825 113.613 371.818 113.552 371.819 113.508C371.821 113.43 371.846 113.388 371.839 113.402C371.835 113.409 371.822 113.432 371.791 113.474C371.729 113.556 371.626 113.671 371.477 113.817L372.179 114.529ZM357.217 128.678C357.116 128.798 357.018 128.932 356.947 129.069C356.884 129.188 356.797 129.392 356.832 129.621C356.852 129.751 356.911 129.882 357.019 129.988C357.123 130.089 357.245 130.142 357.351 130.168C357.55 130.217 357.773 130.196 357.986 130.153C358.428 130.063 359.075 129.827 359.99 129.402C360.914 128.973 362.139 128.339 363.745 127.436L363.255 126.564C361.661 127.461 360.461 128.081 359.569 128.495C358.669 128.913 358.109 129.107 357.788 129.172C357.62 129.206 357.573 129.193 357.592 129.197C357.608 129.201 357.662 129.218 357.718 129.273C357.779 129.333 357.811 129.406 357.821 129.47C357.835 129.566 357.797 129.601 357.833 129.533C357.859 129.482 357.908 129.41 357.982 129.322L357.217 128.678ZM363.745 127.436C365.351 126.533 366.444 125.854 367.15 125.349C367.502 125.097 367.77 124.88 367.96 124.693C368.129 124.528 368.313 124.314 368.365 124.064C368.396 123.912 368.381 123.73 368.27 123.568C368.168 123.419 368.027 123.346 367.924 123.309C367.729 123.24 367.502 123.24 367.319 123.253C366.927 123.28 366.426 123.391 365.966 123.518L366.233 124.482C366.674 124.359 367.097 124.27 367.387 124.25C367.545 124.24 367.597 124.255 367.588 124.251C367.577 124.248 367.505 124.22 367.444 124.132C367.374 124.029 367.373 123.922 367.385 123.861C367.399 123.793 367.418 123.824 367.259 123.981C367.122 124.116 366.901 124.298 366.569 124.535C365.906 125.009 364.849 125.667 363.255 126.564L363.745 127.436ZM374.1 104L374.617 104.856L375.511 104.315L374.932 103.445L374.1 104ZM358.1 138.5L357.841 139.466L358.288 139.586L358.669 139.322L358.1 138.5ZM323.1 126L322.151 126.316L322.254 126.625L322.518 126.814L323.1 126ZM376.514 125.751L377.083 126.574L378.032 125.917L377.247 125.071L376.514 125.751ZM372.456 105L371.934 104.147L371.582 104.363L371.484 104.765L372.456 105ZM371.764 113.5L370.767 113.582L371.764 113.5ZM371.828 114.173L372.822 114.064L371.828 114.173ZM358.358 137.534C353.707 136.288 346.377 134.169 339.518 131.865C336.088 130.712 332.786 129.517 330 128.365C327.194 127.204 324.981 126.115 323.681 125.186L322.518 126.814C324.018 127.885 326.413 129.046 329.236 130.213C332.079 131.389 335.428 132.6 338.881 133.76C345.788 136.081 353.159 138.212 357.841 139.466L358.358 137.534ZM324.048 125.684C323.063 122.727 322.216 119.32 322.035 116.192C321.853 113.031 322.363 110.361 323.852 108.659L322.347 107.341C320.337 109.639 319.846 112.969 320.039 116.308C320.233 119.68 321.136 123.273 322.151 126.316L324.048 125.684ZM323.852 108.659C325.534 106.736 329.838 103.04 333.912 99.7809C335.935 98.1622 337.875 96.6725 339.366 95.5907C340.114 95.0486 340.738 94.6169 341.198 94.3243C341.43 94.1769 341.604 94.075 341.723 94.0135C341.784 93.9824 341.814 93.9703 341.819 93.9682C341.849 93.9569 341.755 94 341.6 94V92C341.382 92 341.2 92.0646 341.118 92.0951C341.012 92.135 340.906 92.1851 340.808 92.2355C340.61 92.3371 340.378 92.4754 340.125 92.6366C339.614 92.9612 338.953 93.4202 338.192 93.9718C336.668 95.0775 334.702 96.5878 332.662 98.2191C328.611 101.46 324.165 105.264 322.347 107.341L323.852 108.659ZM341.6 94C341.529 94 341.503 93.9902 341.599 94.0074C341.667 94.0195 341.764 94.0391 341.894 94.0675C342.152 94.124 342.511 94.2089 342.961 94.3202C343.857 94.5425 345.092 94.8647 346.557 95.262C349.485 96.0564 353.318 97.1472 357.182 98.3311C361.048 99.5161 364.93 100.79 367.961 101.95C369.479 102.53 370.763 103.075 371.718 103.558C372.197 103.8 372.574 104.018 372.851 104.207C372.988 104.301 373.091 104.382 373.164 104.448C373.2 104.48 373.226 104.506 373.244 104.526C373.261 104.546 373.268 104.555 373.268 104.555L374.932 103.445C374.698 103.095 374.337 102.801 373.981 102.557C373.605 102.3 373.143 102.038 372.621 101.774C371.577 101.245 370.22 100.673 368.676 100.082C365.582 98.8978 361.651 97.6089 357.768 96.4189C353.881 95.2278 350.027 94.1311 347.08 93.3318C345.607 92.9322 344.357 92.6059 343.442 92.379C342.985 92.2657 342.605 92.1758 342.321 92.1136C342.179 92.0827 342.054 92.0571 341.951 92.0386C341.877 92.0254 341.733 92 341.6 92V94ZM375.945 124.929L357.53 137.678L358.669 139.322L377.083 126.574L375.945 124.929ZM373.582 103.144C373.067 103.456 372.515 103.792 371.934 104.147L372.979 105.853C373.556 105.499 374.105 105.165 374.617 104.856L373.582 103.144ZM372.76 113.418C372.558 110.964 372.708 108.215 373.428 105.235L371.484 104.765C370.712 107.96 370.548 110.923 370.767 113.582L372.76 113.418ZM370.834 114.282C371.482 120.198 374.008 124.523 375.781 126.432L377.247 125.071C375.771 123.483 373.425 119.561 372.822 114.064L370.834 114.282ZM372.822 114.064C372.799 113.851 372.778 113.636 372.76 113.418L370.767 113.582C370.786 113.818 370.809 114.051 370.834 114.282L372.822 114.064Z" fill="#222222" mask="url(#path-18-outside-1_469_24)"/>
</g>
</g>
<g id="pencil">
<path id="pencilHole" d="M297.038 79.8284C309.038 80.3284 309.038 86.3284 309.038 89.3284C308.871 91.6617 306.538 96.4284 298.538 96.8284C288.538 97.3284 286.538 93.3284 286.038 89.3284C285.704 85.9951 287.438 79.4284 297.038 79.8284Z" fill="black" stroke="black"/>
<g id="pencil02">
<path d="M310.038 67.8284L307.801 71.6921C307.88 72.1163 308.438 72.8375 310.038 72.3284V67.8284Z" fill="black"/>
<path d="M304.538 77.3284C306.938 79.3284 309.204 78.8284 310.038 78.3284V72.3284C308.438 72.8375 307.88 72.1163 307.801 71.6921L304.538 77.3284Z" fill="white"/>
<path d="M304.538 77.3284L298.038 106.828L304.038 108.328L310.038 78.3284C309.204 78.8284 306.938 79.3284 304.538 77.3284Z" fill="#EEEAE4"/>
<path d="M304.538 77.3284L304.105 77.0779L304.066 77.1451L304.049 77.2208L304.538 77.3284ZM298.038 106.828L297.549 106.721L297.445 107.196L297.916 107.314L298.038 106.828ZM310.038 67.8284H310.538V65.9669L309.605 67.5779L310.038 67.8284ZM310.038 78.3284L310.528 78.4265L310.538 78.3779V78.3284H310.038ZM304.038 108.328L303.916 108.814L304.425 108.941L304.528 108.426L304.038 108.328ZM307.801 71.6921L307.368 71.4416L307.801 71.6921ZM304.049 77.2208L297.549 106.721L298.526 106.936L305.026 77.436L304.049 77.2208ZM309.78 77.8997C309.12 78.2957 307.086 78.8015 304.858 76.9443L304.218 77.7125C306.789 79.8554 309.288 79.3611 310.295 78.7572L309.78 77.8997ZM309.547 78.2304L303.547 108.23L304.528 108.426L310.528 78.4265L309.547 78.2304ZM304.159 107.843L298.159 106.343L297.916 107.314L303.916 108.814L304.159 107.843ZM304.97 77.5789L308.233 71.9426L307.368 71.4416L304.105 77.0779L304.97 77.5789ZM308.233 71.9426L310.47 68.0789L309.605 67.5779L307.368 71.4416L308.233 71.9426ZM309.538 67.8284V72.3284H310.538V67.8284H309.538ZM309.538 72.3284V78.3284H310.538V72.3284H309.538ZM307.309 71.7836C307.376 72.1416 307.629 72.5666 308.13 72.81C308.632 73.0538 309.313 73.0836 310.189 72.8049L309.886 71.852C309.162 72.0823 308.764 72.0061 308.567 71.9105C308.37 71.8145 308.305 71.6669 308.292 71.6006L307.309 71.7836Z" fill="black"/>
</g>
<g id="pencil01">
<path d="M294.038 62.3284L293.538 68.3284C294.038 68.4951 295.338 68.5284 296.538 67.3284L294.038 62.3284Z" fill="black"/>
<path d="M293.038 74.3284C295.038 75.5284 298.204 74.1618 299.538 73.3284L296.538 67.3284C295.338 68.5284 294.038 68.4951 293.538 68.3284L293.038 74.3284Z" fill="white"/>
<path d="M299.538 73.3284C298.204 74.1618 295.038 75.5284 293.038 74.3284L297.538 109.828L303.038 109.328L299.538 73.3284Z" fill="#EEEAE4"/>
<path d="M293.038 74.3284L292.539 74.2869L292.535 74.3392L292.542 74.3913L293.038 74.3284ZM294.038 62.3284L294.485 62.1048L293.687 60.51L293.539 62.2869L294.038 62.3284ZM299.538 73.3284L300.035 73.28L300.026 73.1878L299.985 73.1048L299.538 73.3284ZM303.038 109.328L303.083 109.826L303.584 109.781L303.535 109.28L303.038 109.328ZM297.538 109.828L297.042 109.891L297.102 110.37L297.583 110.326L297.538 109.828ZM299.273 72.9044C298.642 73.2984 297.566 73.8243 296.419 74.1053C295.256 74.3898 294.126 74.3982 293.295 73.8997L292.78 74.7572C293.949 75.4586 295.402 75.3837 296.656 75.0766C297.926 74.7659 299.1 74.1918 299.803 73.7524L299.273 72.9044ZM299.04 73.3768L302.54 109.377L303.535 109.28L300.035 73.28L299.04 73.3768ZM292.542 74.3913L297.042 109.891L298.034 109.766L293.534 74.2656L292.542 74.3913ZM297.583 110.326L303.083 109.826L302.992 108.83L297.492 109.33L297.583 110.326ZM293.536 74.37L294.036 68.37L293.039 68.2869L292.539 74.2869L293.536 74.37ZM294.036 68.37L294.536 62.37L293.539 62.2869L293.039 68.2869L294.036 68.37ZM293.59 62.552L296.09 67.552L296.985 67.1048L294.485 62.1048L293.59 62.552ZM296.09 67.552L299.09 73.552L299.985 73.1048L296.985 67.1048L296.09 67.552ZM293.379 68.8028C294.051 69.0267 295.551 69.0218 296.891 67.682L296.184 66.9749C295.124 68.0351 294.024 67.9635 293.696 67.8541L293.379 68.8028Z" fill="black"/>
</g>
<path id="pencilCase" d="M286.038 88.8284C286.038 88.8284 287.038 107.828 288.538 111.828C290.038 115.828 292.538 116.828 298.538 116.828C303.338 116.828 305.871 112.828 306.538 110.828C307.371 104.328 309.038 90.8284 309.038 88.8284C307.838 93.2284 300.871 94.6618 297.538 94.8284C289.538 95.2284 286.538 90.9951 286.038 88.8284Z" fill="#EEEAE4" stroke="black"/>
</g>
<g id="pen">
<path d="M82 149.226C80 151.726 72.5 166.226 70.5 170.726C69.8672 172.15 69.37 174.142 68.9897 176.226L72.6635 179.432C74.1031 177.756 75.6363 175.93 77 174.226C81 169.226 86.5 155.726 87.5 152.726C87.5551 152.56 87.6102 152.394 87.6647 152.226C86.8599 150.226 83.5529 149.392 82 149.226Z" fill="#222222"/>
<path d="M87 145.226C84.5 144.226 84 146.726 82 149.226C83.5529 149.392 86.8599 150.226 87.6647 152.226C88.5996 149.348 89.3622 146.171 87 145.226Z" fill="#EEEAE4"/>
<path d="M68.9897 176.226C68.4086 179.411 68.1008 182.812 68 184.726C68.9564 183.674 70.725 181.689 72.6635 179.432L68.9897 176.226Z" fill="white"/>
<path d="M68 184.726L67.5007 184.699L67.427 186.099L68.37 185.062L68 184.726ZM70.5 170.726L70.0431 170.523L70.5 170.726ZM77 174.226L76.6096 173.913L77 174.226ZM68.9897 176.226L68.4979 176.136L68.9897 176.226ZM89 156.726L88.5097 156.824L89 156.726ZM87.6647 152.226L88.1403 152.38L87.6647 152.226ZM70.9569 170.929C71.9497 168.695 74.3182 163.957 76.6922 159.459C77.8783 157.212 79.063 155.03 80.075 153.255C81.0946 151.466 81.9193 150.127 82.3904 149.538L81.6096 148.913C81.0807 149.575 80.2179 150.985 79.2063 152.759C78.187 154.547 76.9967 156.74 75.8078 158.992C73.4318 163.494 71.0503 168.257 70.0431 170.523L70.9569 170.929ZM82.3904 149.538C82.9082 148.891 83.3268 148.246 83.6938 147.676C84.0678 147.095 84.3763 146.612 84.6942 146.236C85.0088 145.864 85.2929 145.648 85.593 145.555C85.8837 145.465 86.2628 145.469 86.8143 145.69L87.1857 144.762C86.4872 144.482 85.8663 144.424 85.2977 144.6C84.7384 144.772 84.3037 145.15 83.9308 145.59C83.5612 146.027 83.2135 146.575 82.853 147.135C82.4857 147.705 82.0918 148.311 81.6096 148.913L82.3904 149.538ZM87.0257 152.568C86.5334 154.044 84.9163 158.152 82.9203 162.518C80.9187 166.896 78.5661 171.468 76.6096 173.913L77.3904 174.538C79.4339 171.984 81.8313 167.305 83.8297 162.934C85.8337 158.55 87.4666 154.407 87.9743 152.884L87.0257 152.568ZM68.4993 184.752C68.5992 182.853 68.9052 179.475 69.4816 176.316L68.4979 176.136C67.912 179.347 67.6023 182.77 67.5007 184.699L68.4993 184.752ZM69.4816 176.316C69.86 174.242 70.3488 172.297 70.9569 170.929L70.0431 170.523C69.3856 172.002 68.88 174.042 68.4979 176.136L69.4816 176.316ZM85.4419 167.96C86.1977 166.532 87.3058 164.266 88.1764 162.1C88.6115 161.017 88.9916 159.949 89.2381 159.018C89.4781 158.11 89.6149 157.251 89.4903 156.628L88.5097 156.824C88.5851 157.201 88.5094 157.862 88.2713 158.762C88.0396 159.638 87.676 160.663 87.2486 161.727C86.3942 163.852 85.3023 166.086 84.5581 167.492L85.4419 167.96ZM89.4903 156.628C89.3681 156.017 89.3072 155.59 89.2608 155.258C89.2158 154.935 89.1801 154.661 89.1058 154.401C88.9504 153.857 88.6348 153.406 87.9 152.426L87.1 153.026C87.8652 154.046 88.0496 154.344 88.1442 154.676C88.1949 154.853 88.2217 155.047 88.2704 155.396C88.3178 155.736 88.3819 156.185 88.5097 156.824L89.4903 156.628ZM86.8143 145.69C87.2964 145.883 87.5984 146.177 87.7878 146.543C87.9836 146.922 88.0745 147.408 88.0688 147.996C88.0574 149.183 87.6575 150.63 87.1892 152.071L88.1403 152.38C88.6068 150.944 89.0557 149.363 89.0688 148.006C89.0753 147.321 88.9723 146.657 88.676 146.084C88.3733 145.498 87.8848 145.041 87.1857 144.762L86.8143 145.69ZM87.1892 152.071C87.1352 152.238 87.0805 152.403 87.0257 152.568L87.9743 152.884C88.0297 152.718 88.0853 152.55 88.1403 152.38L87.1892 152.071ZM81.9466 149.723C82.6841 149.802 83.8492 150.042 84.9164 150.498C86.0035 150.963 86.8747 151.602 87.2009 152.412L88.1286 152.039C87.6499 150.85 86.4652 150.072 85.3093 149.578C84.1337 149.076 82.8688 148.816 82.0534 148.729L81.9466 149.723ZM68.661 176.602L72.3347 179.809L72.9922 179.055L69.3185 175.849L68.661 176.602ZM73.0428 179.758C74.4845 178.079 76.0218 176.249 77.3904 174.538L76.6096 173.913C75.2507 175.612 73.7216 177.433 72.2842 179.106L73.0428 179.758ZM72.2842 179.106C70.3488 181.359 68.5833 183.341 67.63 184.389L68.37 185.062C69.3295 184.007 71.1013 182.018 73.0428 179.758L72.2842 179.106Z" fill="#222222"/>
</g>
<g id="globe">
<g id="stay">
<path d="M34.1246 109.5C34.1246 109.5 28.1289 110.5 27.6289 119C27.1289 127.5 40.129 134.5 54.629 134.5C69.129 134.5 77.129 129 77.129 122C77.129 115 70.129 108.5 62.629 107.5C53.429 105.1 34.1246 109.5 34.1246 109.5Z" fill="#222222"/>
<path d="M38.6359 58.5L30.6359 44.5M36.1359 42C27.1359 45.8333 9.50067 56.5615 6.62405 73C3.1242 93 14.6241 107.5 34.1246 109.5M34.1246 109.5C34.1246 109.5 28.1289 110.5 27.6289 119C27.1289 127.5 40.129 134.5 54.629 134.5C69.129 134.5 77.129 129 77.129 122C77.129 115 70.129 108.5 62.629 107.5C53.429 105.1 34.1246 109.5 34.1246 109.5Z" stroke="#222222" stroke-linecap="round"/>
</g>
<g id="orb">
<path fill-rule="evenodd" clip-rule="evenodd" d="M37.4272 50.9024C28.4272 53.069 11.1272 62.5024 13.9272 82.9024C15.8008 96.5527 25.3904 104.696 34.4272 109.039C35.0939 107.16 35.8272 103.102 33.4272 101.902C30.4272 100.402 25.4272 100.902 24.9272 97.9024C24.4272 94.9024 30.4272 91.4024 29.4272 89.9024C28.4272 88.4024 19.4272 86.4024 19.9272 82.9024C20.4272 79.4024 24.4272 71.4024 29.4272 71.4024C34.4272 71.4024 34.4272 74.9024 38.9272 74.9024C43.4272 74.9024 49.9272 69.9024 50.9272 71.9024C51.9272 73.9024 55.4272 80.4024 50.9272 84.9024C46.4272 89.4024 39.9272 88.9024 39.9272 91.4024C39.9272 93.9024 51.9272 94.9024 50.9272 97.9024C49.9272 100.902 50.4272 107.667 42.4272 112.035C43.8838 112.432 45.2345 112.717 46.4272 112.902C54.4272 113.569 72.0272 111.002 78.4272 95.4024C78.9487 94.1313 79.3958 92.7922 79.7651 91.4024C76.103 91.9024 72.9272 93.9024 69.4272 89.9024C64.4272 81.9024 72.9272 74.4024 71.9272 71.9024C70.9272 69.4024 66.4272 74.9024 62.9272 73.4024C59.4272 71.9024 63.4272 70.9024 61.4272 67.4024C59.4272 63.9024 57.4272 70.4024 51.4272 63.9024C46.6272 58.7024 55.4272 52.6706 60.4272 50.3047C54.3028 48.5074 46.6898 48.4401 37.4272 50.9024ZM60.4272 99.9024C61.6272 100.302 63.2606 99.7357 63.9272 99.4024C65.9272 100.902 65.4272 101.402 66.4272 102.402C67.4272 103.402 71.4272 101.902 69.4272 97.9024C67.4272 93.9024 61.9272 94.9024 59.9272 95.4024C57.9272 95.9024 58.9272 99.4024 60.4272 99.9024Z" fill="#EEEAE4"/>
<path d="M33.4272 101.902C35.8272 103.102 35.0939 107.16 34.4272 109.039C37.2292 110.386 39.9781 111.368 42.4272 112.035C50.4272 107.667 49.9272 100.902 50.9272 97.9024C51.9272 94.9024 39.9272 93.9024 39.9272 91.4024C39.9272 88.9024 46.4272 89.4024 50.9272 84.9024C55.4272 80.4024 51.9272 73.9024 50.9272 71.9024C49.9272 69.9024 43.4272 74.9024 38.9272 74.9024C34.4272 74.9024 34.4272 71.4024 29.4272 71.4024C24.4272 71.4024 20.4272 79.4024 19.9272 82.9024C19.4272 86.4024 28.4272 88.4024 29.4272 89.9024C30.4272 91.4024 24.4272 94.9024 24.9272 97.9024C25.4272 100.902 30.4272 100.402 33.4272 101.902Z" fill="#EEEAE4"/>
<path d="M60.4272 50.3047C55.4272 52.6706 46.6272 58.7024 51.4272 63.9024C57.4272 70.4024 59.4272 63.9024 61.4272 67.4024C63.4272 70.9024 59.4272 71.9024 62.9272 73.4024C66.4272 74.9024 70.9272 69.4024 71.9272 71.9024C72.9272 74.4024 64.4272 81.9024 69.4272 89.9024C72.9272 93.9024 76.103 91.9024 79.7651 91.4024C83.7328 76.4698 78.7179 55.6722 60.4272 50.3047Z" fill="#EEEAE4"/>
<path d="M63.9272 99.4024C63.2606 99.7357 61.6272 100.302 60.4272 99.9024C58.9272 99.4024 57.9272 95.9024 59.9272 95.4024C61.9272 94.9024 67.4272 93.9024 69.4272 97.9024C71.4272 101.902 67.4272 103.402 66.4272 102.402C65.4272 101.402 65.9272 100.902 63.9272 99.4024Z" fill="#EEEAE4"/>
<path d="M34.4272 109.039C25.3904 104.696 15.8008 96.5527 13.9272 82.9024C11.1272 62.5024 28.4272 53.069 37.4272 50.9024C46.6898 48.4401 54.3028 48.5074 60.4272 50.3047M34.4272 109.039C35.0939 107.16 35.8272 103.102 33.4272 101.902C30.4272 100.402 25.4272 100.902 24.9272 97.9024C24.4272 94.9024 30.4272 91.4024 29.4272 89.9024C28.4272 88.4024 19.4272 86.4024 19.9272 82.9024C20.4272 79.4024 24.4272 71.4024 29.4272 71.4024C34.4272 71.4024 34.4272 74.9024 38.9272 74.9024C43.4272 74.9024 49.9272 69.9024 50.9272 71.9024C51.9272 73.9024 55.4272 80.4024 50.9272 84.9024C46.4272 89.4024 39.9272 88.9024 39.9272 91.4024C39.9272 93.9024 51.9272 94.9024 50.9272 97.9024C49.9272 100.902 50.4272 107.667 42.4272 112.035M34.4272 109.039C37.2292 110.386 39.9781 111.368 42.4272 112.035M42.4272 112.035C43.8838 112.432 45.2345 112.717 46.4272 112.902C54.4272 113.569 72.0272 111.002 78.4272 95.4024C78.9487 94.1313 79.3958 92.7922 79.7651 91.4024M60.4272 50.3047C55.4272 52.6706 46.6272 58.7024 51.4272 63.9024C57.4272 70.4024 59.4272 63.9024 61.4272 67.4024C63.4272 70.9024 59.4272 71.9024 62.9272 73.4024C66.4272 74.9024 70.9272 69.4024 71.9272 71.9024C72.9272 74.4024 64.4272 81.9024 69.4272 89.9024C72.9272 93.9024 76.103 91.9024 79.7651 91.4024M60.4272 50.3047C78.7179 55.6722 83.7328 76.4698 79.7651 91.4024M63.9272 99.4024C63.2606 99.7357 61.6272 100.302 60.4272 99.9024C58.9272 99.4024 57.9272 95.9024 59.9272 95.4024C61.9272 94.9024 67.4272 93.9024 69.4272 97.9024C71.4272 101.902 67.4272 103.402 66.4272 102.402C65.4272 101.402 65.9272 100.902 63.9272 99.4024Z" stroke="#222222"/>
</g>
</g>
</g>
</svg>
