<svg viewBox="0 0 1004 1871" fill="none" xmlns="http://www.w3.org/2000/svg">
<path id="cat" d="M204.5 1547.5C232.5 1567 292 1615.5 306 1653.5C323.5 1701 348.5 1789 330.5 1823C312.5 1857 294.5 1870 266 1868.5C237.5 1867 129 1839.5 91 1801C53 1762.5 4.20213e-05 1682 2.00004 1630.5C4.00004 1579 13 1478 75.5 1419C138 1360 173 1322 239.5 1313.5C282.167 1307.5 377 1301.1 415 1323.5C462.5 1351.5 546.5 1399 574.5 1482C602.5 1565 612.5 1667 596 1706.5C579.5 1746 576.5 1754 562 1756.5C547.5 1759 527 1755.5 524 1745C521 1734.5 536 1735 546 1735C556 1735 615 1732 625.5 1752.5C636 1773 626 1792 609 1807.5C592 1823 547 1832 515.5 1830.5C484 1829 373.5 1823.5 352 1819C330.5 1814.5 296.5 1804.5 277.5 1788C258.5 1771.5 160.5 1679 132.5 1595C104.5 1511 69.5 1381.5 75.5 1313.5C81.5 1245.5 96.5 1175.5 107 1152.5C117.5 1129.5 172 1007 211.5 963C251 919 350.5 819 393.5 794C436.5 769 519.5 730.5 554 729.5C588.5 728.5 630.5 728 648.5 770C666.5 812 680.5 854 683 887C685.5 920 691.5 1083.5 690 1102.5C688.5 1121.5 681 1239.5 679 1265C677 1290.5 679 1441 679 1464.5C679 1488 692.5 1591.5 698 1625C703.5 1658.5 730 1756 743 1776C756 1796 770 1815.5 782.5 1818C795 1820.5 878.5 1823 889 1818C899.5 1813 913 1807 913.5 1791.5C914 1776 914.5 1756 899.5 1744.5C884.5 1733 860.5 1730.5 841.5 1729.5C822.5 1728.5 816.5 1730.5 819.5 1737.5C822.5 1744.5 835 1752.5 845.5 1752.5C856 1752.5 859.5 1726 858 1706.5C856.5 1687 845.5 1559 845.5 1516C845.5 1473 843.5 1387.5 860.5 1333C877.5 1278.5 913 1167.5 929.5 1137C946 1106.5 987.5 988 990.5 965.5C993.5 943 1003.5 788.5 1002 770C1000.5 751.5 985 596 975.5 562.5C966 529 919 374 896 326.5C873 279 784 124 728 74.5C672 25 640 -1.49996 630.5 2.00004C621 5.50004 625 20.5 630.5 39.5C636 58.5 667 128.5 651.5 153C636 177.5 626 186.5 604 183.5C582 180.5 532 119 527.5 106C523 93 525.5 90 540.5 98C555.5 106 579.5 116.5 571 131C562.5 145.5 531.5 181 500 204C468.5 227 448 251.5 446.5 263.5C445 275.5 455 306 446.5 328C438 350 426 374 423.5 384.5C421 395 415 415.5 411.5 420C408 424.5 395 445.5 393.5 452.5C392 459.5 391 460.5 403.5 472.5C416 484.5 446.5 499 446.5 502.5C446.5 506 464 518.5 472.5 519C481 519.5 484 522.5 506 519C523.6 516.2 603.333 494.833 641 484.5" stroke="#DCD8C4" stroke-width="3" stroke-linecap="round"/>
</svg>
