<svg
  class="res"
  viewBox="0 0 1179 311"
  fill="none"
  xmlns="http://www.w3.org/2000/svg"
>
  <path
    id="HyunloKim"
    d="M392.8 30C392.8 29.4 392.6 28.8 392.2 28.6C390.8 26.8 384 26.8 383.2 29C379.2 38.6 352.2 113.8 328.2 182.2C303.8 182.2 274.8 182.4 246.2 182.4C287.4 71.8 282.6 0.79999 224.8 0.999999C94.2 1.39999 0.799998 183.4 155.2 190.6C171.6 191.4 200.4 191.6 232 191.4C218.6 223 202.2 258.2 182.6 296.2C178.8 302.8 185.2 309.8 191.8 301.6C212.6 262 229.8 225 242.8 191.4C271 191.4 300.4 191 325 190.6C306.2 244 289.6 291 288 295.8C285.2 303.8 292.8 306.6 297.2 296.2C299.2 291.4 315.8 244 334.6 190.6C362.2 190.2 381.6 189.8 381.6 189.8C391.8 189.8 393 181.4 383.8 181.6C375.8 181.8 359.2 182 337.6 182C351.2 143.4 365.6 102.4 376.4 72.6C378.8 73.4 382.8 73 383 71.6L392.8 30ZM146 182.6C15.6 182.6 100.4 12 228.2 9.19998C283.6 7.99999 280.6 73 235.8 182.4C202 182.6 169.4 182.6 146 182.6ZM462.311 183.2C452.511 188.8 443.711 195 435.511 201.4C436.511 197.4 437.511 193.6 438.111 190.2C441.111 174 440.311 162.8 433.911 161.8C428.511 161 422.711 167.6 411.311 181C399.711 194.8 388.311 202.2 385.111 200.8C382.111 199.4 389.711 186.8 398.111 175.6C399.111 176.8 402.311 176.2 403.111 174.8L407.911 164C408.111 163.6 407.911 163.2 407.911 162.8C407.111 160.2 400.511 159.8 397.511 163.6C379.311 185.8 375.511 202.6 384.311 204.4C389.311 205.4 399.911 203.8 417.511 185C426.111 175.8 431.511 170 434.111 170.4C437.111 171 436.911 178.6 434.511 190.2C433.711 194.6 432.511 199.6 431.111 205C414.511 218.8 401.111 233.6 388.511 247.6C361.111 278.6 361.711 302.6 377.911 303.4C395.711 304.2 413.111 266.8 426.511 230.4C428.711 224.6 430.711 218.4 432.511 212.4C441.311 204.8 451.511 197.2 464.111 189.8C471.511 185.6 467.511 180.2 462.311 183.2ZM423.311 230C410.911 263.6 394.511 299 381.111 299C369.511 299 372.111 275 395.711 250C405.711 239.4 415.511 228 427.711 216.6C426.511 221 424.911 225.6 423.311 230ZM552.403 182.8C545.203 186.8 517.003 202.2 507.603 199.2C502.403 197.6 503.803 191.8 505.203 185.4C506.203 180.8 510.203 172.6 512.403 167.6C513.803 165 514.003 163.4 513.003 162.4C510.003 159.6 502.203 169.8 492.803 180.6C482.203 192.8 472.203 207.4 465.603 202.6C461.603 199.8 468.403 186.8 476.603 175.6C477.803 176.8 480.803 176.2 481.603 174.8L486.403 164C486.603 163.6 486.403 163.2 486.403 162.8C485.603 160.2 479.003 159.8 476.003 163.6C457.803 185.8 454.803 200 462.803 204.4C471.203 209 482.603 201.6 498.003 185C500.403 182.4 502.603 180 504.403 177.8L502.803 184.4C500.603 194.2 500.803 202.6 509.403 204.4C524.603 207.6 548.603 192.4 553.203 189.8C558.603 185.8 556.603 180.4 552.403 182.8ZM638.991 182.6C617.591 193.6 608.191 200.2 602.391 196.8C598.991 194.8 601.391 187.8 604.391 179.8C609.391 167.4 615.991 152.8 603.191 152.8C589.591 152.8 564.591 184.2 549.591 205L560.191 178.8C561.591 179 563.191 178.4 563.391 177.4L566.791 162.6C566.791 162.4 566.791 162.2 566.591 161.8C566.191 160 561.991 160 560.991 162.2L538.391 221.8C537.791 225 545.191 225.4 547.391 222.2C556.791 208.4 591.791 160.2 604.991 160.8C610.191 161 606.191 169.6 602.591 179C598.591 189.2 594.991 200.6 602.591 203.4C610.791 206.4 622.191 200.2 638.991 190C642.991 187.4 642.991 181.4 638.991 182.6ZM685.584 182.8C682.784 185.2 675.984 192.4 668.384 199.4C658.784 208.6 646.384 219.2 638.584 215.2C633.984 212.8 638.984 201.6 648.384 178.4C655.584 160.4 665.984 133.8 675.584 108.4C676.984 108.2 677.984 107.6 678.184 107L681.584 92.2C681.584 91 680.384 90.4 678.784 90.2C676.384 89.8 673.384 90.4 672.784 91.8C663.184 119 647.384 156.2 639.984 177.4C630.584 204.6 632.184 219.6 644.784 220.4C652.584 220.8 663.584 212.6 672.584 204.4C679.384 198.2 684.184 192.8 686.384 190.2C689.984 186 687.784 181 685.584 182.8ZM729.32 177C724.32 178.4 718.72 179.8 713.32 180.8C717.52 167.8 716.72 154.2 706.12 152.2C693.72 149.8 683.92 164.4 686.52 175.6C681.12 188 679.12 203.6 691.12 204.6C698.92 205.2 706.52 196.8 711.12 186.4C716.72 185.8 722.72 184.6 728.32 183.2C732.12 182.4 732.92 176 729.32 177ZM705.72 154.2C714.12 155.4 714.12 168.8 709.92 181.2C703.72 181.8 697.72 181.6 693.92 178.8L696.92 172.4C698.12 172.6 699.52 172 699.72 171L701.92 163.8C701.92 163.4 702.12 163 701.92 162.8C701.92 159.6 697.72 159 694.52 162.4C692.92 164 691.32 166.4 689.52 169.4C690.32 161.4 698.52 153.2 705.72 154.2ZM691.32 202.4C686.72 202.2 688.32 193 691.92 183.6C695.92 186.4 701.52 187 707.72 186.8C703.72 195.4 697.72 202.6 691.32 202.4ZM1067.53 26.6C1037.33 50.2 978.927 125.6 921.927 199.4C921.127 198.8 920.127 198 919.327 197.2C914.927 193.6 909.727 189 903.727 184.2C944.727 69.8 933.127 1.79999 884.327 0.999999C838.127 0.399995 794.527 42.8 763.327 89C730.127 138.2 713.727 191.8 721.727 201.6C727.927 209.2 746.127 204.6 744.327 197.4C741.927 188 734.727 205.2 730.127 201.4C722.927 195.6 739.727 141.2 772.327 92.8C801.527 49.8 843.527 7.6 887.327 9.19998C932.927 10.8 939.927 73 897.727 179.6C883.927 169.4 868.527 161 855.927 165.2C829.927 174 841.127 229 870.927 240C861.327 259.4 850.327 280 838.127 301.6C834.727 311 844.727 309.8 851.327 301.6L851.927 300.4H852.127C876.127 266.6 899.127 235.2 920.927 206.8C962.127 242 1007.13 285.2 1028.73 305.4C1034.93 311 1045.13 301 1037.73 296C1016.73 281.6 968.327 238.6 924.727 201.8C984.727 124 1035.93 67.2 1075.93 35C1089.53 24.2 1079.53 17.2 1067.53 26.6ZM856.127 169.4C868.727 164.8 882.927 173.8 895.727 184.6C889.527 200 882.327 216.4 873.927 233.6C845.127 225.8 829.927 178.8 856.127 169.4ZM898.127 230.4C893.127 233 888.327 234.4 883.727 234.6C890.527 219 896.527 204 901.927 189.8C906.927 194.4 911.927 199 916.127 202.6L918.327 204.4C911.527 213.2 904.727 221.8 898.127 230.4ZM880.527 241.8C883.727 241.8 886.927 241.4 890.527 240.4C882.527 250.8 874.727 260.8 867.127 270.4C871.927 260.6 876.327 251.2 880.527 241.8ZM1019.18 136.2C1017.78 139.8 1016.78 142.6 1015.18 147.2C1013.98 150 1018.38 150.6 1019.58 148.6C1021.38 145.4 1022.38 143.8 1025.78 138.4C1028.38 134.2 1020.58 132.6 1019.18 136.2ZM1055.58 183.2C1034.78 197.8 1014.18 209 1002.58 205.2C996.978 203.4 1001.18 193.6 1004.38 185C1006.78 178.8 1009.18 173.8 1011.98 170C1014.18 167 1013.18 162.6 1010.78 161C1008.98 159.8 1006.58 161 1005.38 163.2C1003.58 166.8 999.778 178.6 998.378 184.4C995.578 194.2 994.778 207.4 1005.58 210.4C1020.78 214.6 1042.78 200.6 1055.58 190.8C1060.98 186.6 1058.58 181.8 1055.58 183.2ZM1174.73 183C1157.93 189.6 1141.13 197.8 1135.73 191.2C1134.53 189.6 1134.93 186.8 1135.73 183.6C1137.53 177.6 1140.53 170.4 1134.53 169.2C1126.53 167.6 1116.13 176.6 1105.33 189.6C1114.53 169.6 1125.33 145.4 1108.13 146.2C1091.53 147 1070.13 176.6 1052.93 202.6L1062.53 178.8C1064.13 179 1065.73 178.4 1065.93 177.4L1069.13 162.6C1069.13 162.4 1069.13 162.2 1068.93 161.8C1068.53 160 1064.33 160 1063.33 162.2L1040.73 221.8C1039.53 225.8 1047.33 226 1050.93 220.6C1065.93 198 1093.33 155.4 1108.13 154.2C1122.93 153 1104.53 182 1095.93 201.6C1093.53 206.8 1100.93 206.8 1104.93 201.6C1117.13 185.8 1131.13 174.2 1134.73 175.2C1136.53 175.6 1134.93 179.2 1133.93 183.6C1132.73 188.4 1132.13 194 1136.73 197.8C1143.93 203.6 1160.33 195.8 1174.53 190.4C1177.93 188.8 1178.73 181.8 1174.73 183Z"
    stroke="white"
    fill="#222"
  />
</svg>