<svg viewBox="0 0 1380 1474" fill="none" xmlns="http://www.w3.org/2000/svg">
<path id="kid" d="M810.5 178.5C803.833 156 787.9 109.2 777.5 102C764.5 92.9998 762 81.9998 707.5 94.9998C653 108 540.5 138.5 524.5 153.5C508.5 168.5 471.5 203.5 474.5 225.5C477.5 247.5 517.5 277 506.5 283.5C495.5 290 474.5 317 474.5 323C474.5 329 484.5 353 474.5 357C464.5 361 399.5 405 388.5 399.5C383 398.667 368.3 393.6 353.5 380C335 363 297.5 307.5 289.5 293.5C281.5 279.5 269.5 257.5 271.5 245C273.5 232.5 286 197 295 185.5C304 174 319.5 153 330.5 146.5C341.5 140 360 130.5 371 127.5C382 124.5 420 117 432.5 116C445 115 497.5 117.5 503.5 122.5C509.5 127.5 522.5 135.5 513 148.5C503.5 161.5 442.5 204 440 209C437.5 214 425 234.5 440 251C455 267.5 475.5 285.5 472 289.5C468.5 293.5 443.5 306 443.5 318C443.5 330 461 355.5 458 359.5C455 363.5 425.5 386 421.5 394C417.5 402 402 425.5 409.5 428.5C417 431.5 433 427.5 443.5 422.5C454 417.5 463.5 413.5 469 415.5C474.5 417.5 487 423.5 491.5 442.5C496 461.5 504 480 500.5 483C497 486 483.5 466 472 459.5C460.5 453 418.5 440 412 439C405.5 438 390 437.5 385.5 433C381 428.5 383.5 414.5 380 406C376.5 397.5 357.5 356 346.5 342C337.7 330.8 300.167 269 282.5 239.5C277.833 226.666 268.6 198.4 269 188C269.5 175 282.5 132.5 284.5 127.5C286.5 122.5 290.5 120.5 284.5 120C278.5 119.5 268.5 129 260 132C251.5 135 206.5 150 202.5 152.5C198.5 155 194.5 158 196 161.5C197.5 165 208.5 172.5 216.5 173.5C224.5 174.5 236.5 171.5 241.5 168C246.5 164.5 274.5 135 276.5 127.5C278.5 120 281.5 108.5 279 101.5C276.5 94.4998 264.5 65.9998 260 64.4998C255.5 62.9998 249.5 64.4998 249.5 72.9998C249.5 81.4998 252 99.0001 256 107.5C260 116 265.711 120.5 271.5 122.5C277.288 124.5 289.5 120.5 295 116C300.5 111.5 352.5 55 358 49.5C363.5 44 408.5 9.99995 453.5 5.49995C498.5 0.999954 583.5 1.49995 600.5 3.49995C617.5 5.49995 692.5 15 707.5 25C722.5 35 744.5 58 741.5 69C738.5 80 726.5 84 717 84C707.5 84 616.5 89.9996 600.5 94.9998C584.5 100 560.5 108 552 112C543.5 116 462.5 155.5 452.5 163.5C442.5 171.5 405.5 190 386.5 196.5C367.5 203 309.5 218 298.5 221.5C287.5 225 264.5 237 259 241C253.5 245 246.5 259.5 253 266C256.167 272.5 264.8 287.6 274 296C285.5 306.5 334.5 357.5 340.5 362.5C346.5 367.5 370 396.5 371 406C372 415.5 371 422.5 366 422.5C361 422.5 337.5 416.5 337.5 412.5C337.5 408.5 338.5 405.5 344.5 409C350.5 412.5 353.5 426 355 436C356.5 446 363 487.5 363.5 492.5C364 497.5 373 546.5 371 554.5C369 562.5 367 592 362 597C357 602 342.5 571 329 554.5C318.2 541.3 278.5 496 260 475C259 473.167 258.4 469.1 264 467.5C271 465.5 283.5 464.5 284 459.5C284.5 454.5 288 448.5 281.5 445.5C275 442.5 264 451.5 264 455.5C264 459.5 255 475.5 270.5 495C288.5 510.5 307.5 522.5 321 519C334.5 515.5 339.5 493 339.5 485C339.5 477 341 442.5 329 430.5C317 418.5 302.5 406 270.5 406C238.5 406 218 417 213 425C208 433 187.5 473 186.5 499.5C185.5 526 189 558 195.5 572C202 586 218 615 218 627C218 639 210.5 668 212 678C213.5 688 226 722 226.5 731C227 740 230.5 814.5 229.5 831C228.5 847.5 225 956.5 225.5 972.5C226 988.5 232 1083 236 1112.5C240 1142 262 1224.5 272 1235C282 1245.5 303 1257.5 312.5 1256.5C322 1255.5 341.5 1254 354.5 1241.5C367.5 1229 392 1191.5 400 1182.5C408 1173.5 433.5 1149 463.5 1138.5C493.5 1128 569 1105 584.5 1103.5C600 1102 654.5 1119.5 663.5 1124.5C672.5 1129.5 727 1152 774 1151.5C821 1151 920 1139 945 1130C970 1121 1084 1076 1095.5 1075C1107 1074 1128.5 1074 1129 1078.5C1129.5 1083 1129.5 1090.5 1118 1084.5C1106.5 1078.5 1086 1031.5 1081 1011.5C1076 991.5 1071 974 1076 966.5C1081 959 1112.5 944.5 1133 941C1153.5 937.5 1207 929 1222 939C1237 949 1257.5 967.5 1269 1009.5C1280.5 1051.5 1285 1097 1284 1110.5C1283 1124 1277.5 1197 1272.5 1210.5C1267.5 1224 1261.5 1237.5 1246.5 1242.5C1231.5 1247.5 1203.5 1251.5 1192 1252.5C1180.5 1253.5 1073.5 1258.5 1060.5 1258.5C1047.5 1258.5 921.5 1262.5 899.5 1264C877.5 1265.5 840 1270.5 830.5 1274.5C821 1278.5 784 1289.5 793 1287.5C776.5 1287 739.8 1285.1 725 1281.5C706.5 1277 670 1273 656 1275C642 1277 618.5 1283 601 1290C583.5 1297 570.5 1298.5 567 1295.5C563.5 1292.5 558 1273 561.5 1265.5C565 1258 581.5 1241.5 587 1237.5C592.5 1233.5 595.5 1229.5 589.5 1229.5C583.5 1229.5 570 1237 567 1244C564 1251 529.5 1279.5 538 1275C526.333 1280.17 500.3 1289.3 489.5 1284.5C476 1278.5 462 1267.5 469 1252.5C476 1237.5 489.5 1224.5 497.5 1220C505.5 1215.5 547 1194.5 549 1190C551 1185.5 552 1181.5 545 1180.5C538 1179.5 519.5 1187 511.5 1195C503.5 1203 495.5 1210 489.5 1217.5C483.5 1225 461 1262 458 1265.5C455 1269 444 1283 438 1278C432 1273 426 1253.5 427 1241.5C428 1229.5 434 1214.5 441 1206C448 1197.5 468.5 1186 474.5 1180.5C480.5 1175 532 1154.5 529 1150.5C526 1146.5 510 1141.5 497.5 1144C485 1146.5 460 1170.5 456 1177.5C452 1184.5 436.5 1216.5 434.5 1223C432.5 1229.5 427.5 1253.5 422 1256.5C416.5 1259.5 406 1260.5 400 1256.5C394 1252.5 389 1245.5 391.5 1237.5C394 1229.5 409.5 1206 414.5 1199.5C419.5 1193 444.5 1161.5 445.5 1156C446.5 1150.5 452 1137.5 452.5 1124.5C453 1111.5 466 994.5 466 987C466 979.5 470.5 889.5 472 884.5C473.5 879.5 473.5 875 478 875.5C482.5 876 491 886.5 495 900.5C499 914.5 499 948.5 495 962C491 975.5 476 994 453.5 999.5C431 1005 394 1029.5 388 1040C382 1050.5 371.5 1066.5 374.5 1079C377.5 1091.5 389 1107.5 394 1110C399 1112.5 406 1110.5 409.5 1103.5C413 1096.5 411.5 1066.5 409.5 1055C407.5 1043.5 390 941 388 932.5C386 924 365 802 363 781C361 760 364.5 672 374 653C383.5 634 403 605.5 426 602.5C449 599.5 481 600 492.5 612.5C504 625 509 636 508 653C507 670 501.5 733.5 503.5 749C505.5 764.5 511 787 516.5 789C522 791 534.5 773.5 542.5 770.5C550.5 767.5 556 766.5 568 766C580 765.5 692.5 768 699.5 768C706.5 768 729.5 773 732 779.5C734.5 786 741 789.5 729.5 794.5C718 799.5 690.5 790.5 681.5 785C672.5 779.5 631.5 745 622.5 727C613.5 709 580.5 661 571 653C561.5 645 512.5 592 508 586.5C503.5 581 499 566.5 503.5 561.5C508 556.5 511 551 516 554.5C521 558 521 566 518.5 569.5C516 573 509 580.5 498.5 579.5C488 578.5 473.5 577.5 456.5 569.5C439.5 561.5 414.5 548 402 534.5C389.5 521 368.5 484.5 366 472C363.5 459.5 367 445.5 373.5 445.5C380 445.5 388 442 395 445.5C402 449 421.5 459.5 433.5 469C445.5 478.5 509.5 535 516 542C522.5 549 570.5 586 592 594.5C613.5 603 642 612 656.5 614C671 616 719.5 621.5 729 621.5C738.5 621.5 817.5 622 825 618C832.5 614 849 603 852.5 596.5C856 590 872.5 556.5 875.5 540C877.9 526.8 885.833 481.167 889.5 460C890.333 449.167 891.5 424.4 889.5 412C887 396.5 881.5 363 873 356C864.5 349 863.5 340 838.5 338.5C813.5 337 793.5 338.5 781 331C768.5 323.5 756.5 312 747 306C737.5 300 734 299 729.5 302.5C725 306 723.5 308 723 319.5C722.5 331 724.5 361 721 373C717.5 385 715 402.5 692 415.5C669 428.5 640 440 625 440.5C610 441 595.5 439.5 588 434.5C580.5 429.5 551.5 396 546 393.5C540.5 391 527 384.5 512 390.5C500 395.3 478.333 405.167 469 409.5L416 436C410.667 437.5 399 440.5 395 440.5C390 440.5 378.5 441.5 377.5 436C376.5 430.5 382.5 422.5 387 420C391.5 417.5 435 393.5 441.5 390.5C448 387.5 512.5 358.5 517 355.5C521.5 352.5 536 345 541 341C546 337 567 322.5 572 319.5C577 316.5 616 297 622.5 294.5C629 292 665.5 282.5 672 281C678.5 279.5 713.5 271.5 721.5 267C729.5 262.5 743 251 745 248C747 245 760 230.5 763 228.5C766 226.5 795.5 207 802 203C808.5 199 847.5 181 860 178.5C872.5 176 894.5 173 901 175C907.5 177 915 177.5 915 186C915 194.5 906.5 210 907 220C907.5 230 913 245.5 915 250.5C917 255.5 914 286.5 900.5 300C887 313.5 866.5 323.5 857 326C847.5 328.5 826 332 818.5 331C811 330 793.5 324 782.5 316.5C771.5 309 742 290.5 727 289C712 287.5 663.5 294 645.5 300C627.5 306 597 317 589.5 325.5C582 334 565.5 355.5 566.5 367C567.5 378.5 567.5 394 578.5 406.5C589.5 419 606.5 431 614 431.5C621.5 432 645.5 428 653.5 424C661.5 420 693.5 400.5 698 391C702.5 381.5 709 366.5 710.5 356.5C712 346.5 718 315.5 720.5 307C723 298.5 732.5 279.5 741.5 269C750.5 258.5 778.5 231.5 791 224C803.5 216.5 830 201.5 845 199.5C860 197.5 869.5 199.5 874 203C878.5 206.5 896 230.5 900.5 242C905 253.5 910.792 265.5 911.5 271.5C912.208 277.5 909.5 287 903 294C896.5 301 886 308 879.5 313C873 318 864.5 330.5 863.5 335C862.5 339.5 863.5 355.5 864.5 365.5C865.5 375.5 875.5 427 877 436C878.5 445 879.5 480 880 490.5C880.5 501 875.5 547 875.5 556C875.5 565 881 596 885 607C889 618 903.5 659 881.5 690C859.5 721 806.5 755 799 765C791.5 775 764 812.5 763 840.5C762 868.5 768.5 956.5 770 976C771.5 995.5 777 1053.5 776.5 1070C776 1086.5 778 1135.5 774 1140C770 1144.5 769.5 1138 768 1134C766.5 1130 756 1032.5 754.5 1022.5C753 1012.5 747.5 921.5 746.5 905.5C745.5 889.5 744 846 746.5 834.5C749 823 759 776 766 763C773 750 799.5 697 805.5 685.5C811.5 674 851.5 614 862 603.5C872.5 593 891 570.5 906 558.5C921 546.5 961.5 516 991.5 506C1021.5 496 1048.5 493 1067 510.5C1085.5 528 1128 601 1140 628C1152 655 1244 860.5 1245.5 878C1247 895.5 1257 910 1243 911.5C1229 913 1177 911.5 1166.5 911.5C1156 911.5 1121 922.5 1107.5 929.5C1094 936.5 1070 949 1059 947.5C1048 946 1039 936.5 1041.5 929.5C1044 922.5 1057.5 910 1065.5 906.5C1073.5 903 1126.5 889 1142.5 886.5C1158.5 884 1208 878.5 1215 881.5C1222 884.5 1244 887 1263 925C1282 963 1307.5 1098 1307.5 1142C1307.5 1186 1307 1235.5 1295.5 1247C1284 1258.5 1275.5 1269 1237.5 1274.5C1199.5 1280 968 1292 946.5 1293C925 1294 653.5 1309 640.5 1309C627.5 1309 525.5 1304 511.5 1301.5C497.5 1299 400 1276 386.5 1272.5C373 1269 257 1250.5 236 1250C215 1249.5 110.5 1242 92.9999 1247.5C75.4999 1253 46.4999 1263 35.4999 1283C24.4999 1303 4.49994 1359 2.99994 1379.5C1.49994 1400 2.99994 1417.5 9.49994 1422C15.9999 1426.5 31.5 1437 70 1440.5C108.5 1444 206 1448.5 217 1448.5C225.8 1448.5 370 1448.5 441 1448.5C543.5 1450.67 750.5 1456.2 758.5 1461C768.5 1467 772 1469 766.5 1471C761 1473 753.5 1470.27 747.5 1464.5C741.5 1458.73 674 1345 670 1334.5C666 1324 666 1325 670 1324C674 1323 693.5 1348.5 697 1355C700.5 1361.5 742.5 1431 750.5 1434C758.5 1437 768.5 1443.5 769 1446.5C769.5 1449.5 764 1449.5 762.5 1446.5C761 1443.5 760 1428 764.5 1415.5C769 1403 781 1368.5 801.5 1356.5C822 1344.5 855.5 1329.5 877.5 1326.5C899.5 1323.5 954.5 1317.5 977 1317.5C999.5 1317.5 1084 1323 1107.5 1329.5C1131 1336 1203.5 1358 1222.5 1365.5C1241.5 1373 1315.5 1402 1327 1403.5C1338.5 1405 1350 1408.5 1351.5 1403.5C1353 1398.5 1346 1387.5 1336.5 1379C1327 1370.5 1257 1304.5 1253.5 1300C1250 1295.5 1239 1281.5 1259.5 1295C1280 1308.5 1376 1378.5 1377 1386C1378 1393.5 1379 1398 1371.5 1405C1364 1412 1344 1425.5 1334.5 1427.5C1325 1429.5 1295 1434.5 1271.5 1432.5C1248 1430.5 1223 1426.5 1210.5 1424C1198 1421.5 1102.5 1394.5 1091.5 1390.5C1080.5 1386.5 983 1358.5 948 1355C913 1351.5 862.5 1349.5 841 1360.5C819.5 1371.5 794 1390.5 783.5 1404.5C773 1418.5 771.759 1422 766.5 1429.5C761.241 1437 769 1441.5 737.5 1434C706 1426.5 604 1419.5 583 1417.5C562 1415.5 440 1410 421.5 1409.5C406.7 1409.1 240.667 1406 159.5 1404.5" stroke="#DCD8C4" stroke-width="3"/>
</svg>
