<svg width="24" height="24" viewBox="0 0 24 24" fill="none" xmlns="http://www.w3.org/2000/svg">
<path d="M12 0C8.74101 0 8.33234 0.0138258 7.0524 0.0722013C5.77514 0.13047 4.90283 0.333355 4.13952 0.629949C3.35041 0.936617 2.6812 1.34696 2.0141 2.01406C1.34696 2.68117 0.936617 3.35045 0.629984 4.13956C0.333319 4.90283 0.130505 5.77514 0.0721656 7.0524C0.0137901 8.33234 0 8.74101 0 12C0 15.259 0.0137901 15.6677 0.0721656 16.9476C0.130505 18.2249 0.333319 19.0972 0.629984 19.8604C0.936653 20.6495 1.347 21.3188 2.0141 21.9859C2.68124 22.653 3.35041 23.0634 4.13952 23.3701C4.90283 23.6666 5.77514 23.8695 7.0524 23.9278C8.33234 23.9862 8.74101 24 12 24C15.259 24 15.6677 23.9862 16.9476 23.9278C18.2249 23.8695 19.0972 23.6666 19.8604 23.3701C20.6495 23.0634 21.3188 22.653 21.9859 21.9859C22.653 21.3188 23.0634 20.6495 23.3701 19.8604C23.6666 19.0972 23.8695 18.2249 23.9278 16.9476C23.9862 15.6677 24 15.259 24 12C24 8.74101 23.9862 8.33234 23.9278 7.0524C23.8695 5.77514 23.6666 4.90283 23.3701 4.13956C23.0634 3.35045 22.653 2.68117 21.9859 2.01406C21.3188 1.34696 20.6495 0.936617 19.8604 0.629949C19.0972 0.333355 18.2249 0.13047 16.9476 0.0722013C15.6677 0.0138258 15.259 0 12 0ZM12 2.16215C15.2041 2.16215 15.5837 2.1744 16.849 2.23213C18.019 2.28547 18.6544 2.48096 19.0772 2.6453C19.6374 2.86301 20.0371 3.12302 20.457 3.54294C20.877 3.96286 21.137 4.36263 21.3547 4.92273C21.519 5.34558 21.7145 5.98099 21.7679 7.15097C21.8256 8.41633 21.8379 8.79588 21.8379 12C21.8379 15.2041 21.8256 15.5837 21.7679 16.849C21.7145 18.019 21.519 18.6544 21.3547 19.0772C21.137 19.6374 20.877 20.0371 20.457 20.457C20.0371 20.877 19.6374 21.137 19.0773 21.3547C18.6544 21.519 18.019 21.7145 16.849 21.7679C15.5839 21.8256 15.2044 21.8379 12 21.8379C8.79563 21.8379 8.41619 21.8256 7.15097 21.7678C5.98096 21.7145 5.34558 21.519 4.92277 21.3547C4.36259 21.137 3.96286 20.877 3.54297 20.457C3.12306 20.0371 2.86301 19.6374 2.6453 19.0773C2.48096 18.6544 2.28551 18.019 2.23213 16.849C2.1744 15.5837 2.16215 15.2041 2.16215 12C2.16215 8.79588 2.1744 8.41633 2.23213 7.15097C2.28551 5.98096 2.48096 5.34558 2.6453 4.92277C2.86301 4.36259 3.12306 3.96286 3.54294 3.54297C3.96286 3.12302 4.36263 2.86301 4.92273 2.6453C5.34558 2.48096 5.98099 2.28547 7.15097 2.23213C8.41633 2.1744 8.79592 2.16215 12 2.16215Z" fill="#100F0D"/>
<path d="M12 16C9.79076 16 7.99991 14.2091 7.99991 12C7.99991 9.79079 9.79076 7.99994 12 7.99994C14.2091 7.99994 15.9999 9.79079 15.9999 12C15.9999 14.2091 14.2091 16 12 16ZM12 5.83779C8.59664 5.83779 5.83777 8.59666 5.83777 12C5.83777 15.4032 8.59664 18.1621 12 18.1621C15.4032 18.1621 18.1621 15.4032 18.1621 12C18.1621 8.59666 15.4032 5.83779 12 5.83779ZM19.8456 5.59432C19.8456 6.38964 19.2008 7.03431 18.4056 7.03431C17.6103 7.03431 16.9656 6.38964 16.9656 5.59432C16.9656 4.79904 17.6103 4.1543 18.4056 4.1543C19.2008 4.1543 19.8456 4.79904 19.8456 5.59432Z" fill="#100F0D"/>
</svg>
