<svg width="580" height="260" viewBox="0 0 580 260" fill="none" xmlns="http://www.w3.org/2000/svg">
<rect width="580" height="260" fill="white"/>
<path d="M139.344 81.4062H134.969L121.219 95.0391H125.633L131.57 89.1406V140H142.43V81.4062H139.344ZM166.609 81.4062H162.234L148.484 95.0391H152.898L158.836 89.1406V140H169.695V81.4062H166.609ZM194.031 96.6406C190.633 96.6406 187.508 97.4219 184.617 98.9844V93.9062C184.617 91.3281 185.516 89.1406 187.352 87.3047C189.148 85.5078 191.375 84.6094 193.953 84.6094C196.531 84.6094 198.719 85.5078 200.555 87.3047C202.352 89.1406 203.25 91.3281 203.25 93.9062V95.7812L211.844 91.9922C207.664 84.9219 201.727 81.4062 194.031 81.4062C188.445 81.4062 183.68 83.3594 179.734 87.3047C175.789 91.25 173.797 96.0156 173.797 101.602V116.836V119.805V122.305H173.953C174.695 127.383 176.922 131.602 180.672 134.961C184.422 138.32 188.875 140 194.031 140C199.617 140 204.383 138.047 208.328 134.102C212.273 130.156 214.266 125.391 214.266 119.805V116.836C214.266 111.25 212.273 106.523 208.328 102.578C204.383 98.6328 199.617 96.6406 194.031 96.6406ZM203.25 127.617C203.25 130.195 202.352 132.383 200.555 134.219C198.719 136.016 196.531 136.914 193.953 136.914C191.375 136.914 189.148 136.016 187.352 134.219C185.516 132.383 184.617 130.195 184.617 127.617V122.305V109.141C184.617 106.562 185.516 104.375 187.352 102.578C189.148 100.742 191.375 99.8438 193.953 99.8438C196.531 99.8438 198.719 100.742 200.555 102.578C202.352 104.375 203.25 106.562 203.25 109.141V127.617ZM216.766 110.859H239.852L231.219 140H242.43L251.062 110.859H274.969V107.773H217.664L216.766 110.859ZM233.016 85.7812L265.828 105.117H271.883L233.016 82.2266V81.4062H222.234V105.156H233.016V85.7812ZM279.031 115.508H316.805L309.578 140H320.789L327.977 115.586V115.508V114.102V112.422H279.93L279.031 115.508ZM327.977 81.4062H317.234V110.352H327.977V92.5781L337.234 85.3906V81.5234L327.977 88.7109V81.4062ZM312 110.352H312.898V81.4062H302.117V94.5703H291.062L292.508 81.4062H281.648L279.031 107.188V107.266V108.633V110.352H302.117H312ZM289.695 107.266L290.711 97.6562H302.117V107.266H289.695ZM386.688 84.1797H376.375V137.031H358.953L365.75 113.75H363.641C367 112.891 369.773 111.172 371.922 108.516C374.07 105.859 375.125 102.734 375.125 99.2188C375.125 94.2188 373.094 90.1953 368.992 87.1484H375.477V84.1797H361.922V81.4062H351.609V84.1797H337.977V87.1484H344.5C340.398 90.1953 338.328 94.2188 338.328 99.2188C338.328 103.32 339.773 106.875 342.703 109.766C345.594 112.695 349.109 114.141 353.25 114.141H354.891L348.211 137.031H338.562L337.703 140H376.375H379.852H386.688V109.023L393.367 103.828V100.078L386.688 105.273V84.1797ZM348.641 103.086V95.3516C348.641 93.0859 349.422 91.1719 351.023 89.6094C352.586 88.0078 354.5 87.2266 356.727 87.2266C358.992 87.2266 360.867 88.0078 362.469 89.6094C364.031 91.1719 364.852 93.0859 364.852 95.3516V103.086C364.852 105.312 364.031 107.227 362.469 108.828C360.867 110.391 358.992 111.211 356.727 111.211C354.5 111.211 352.586 110.391 351.023 108.828C349.422 107.227 348.641 105.312 348.641 103.086ZM426.648 89.9609H431.609V86.875H427.859L430.086 81.4062H418.562L416.375 86.875H398.719L397.82 89.9609H415.164L395.281 140H406.492L418.211 110.898L425.555 140H428.719L420.164 106.055L426.648 89.9609ZM434.578 105.156L426.219 111.68L424.617 116.836L434.578 109.023V139.766H445.32V81.4062H434.578V105.156ZM446.18 139.766H456.922V81.4062H446.18V139.766Z" fill="black"/>
<path d="M168.113 166.703H165.926L159.051 173.52H161.258L164.227 170.57V196H169.656V166.703H168.113ZM181.746 166.703H179.559L172.684 173.52H174.891L177.859 170.57V196H183.289V166.703H181.746ZM195.457 174.32C193.758 174.32 192.195 174.711 190.75 175.492V172.953C190.75 171.664 191.199 170.57 192.117 169.652C193.016 168.754 194.129 168.305 195.418 168.305C196.707 168.305 197.801 168.754 198.719 169.652C199.617 170.57 200.066 171.664 200.066 172.953V173.891L204.363 171.996C202.273 168.461 199.305 166.703 195.457 166.703C192.664 166.703 190.281 167.68 188.309 169.652C186.336 171.625 185.34 174.008 185.34 176.801V184.418V185.902V187.152H185.418C185.789 189.691 186.902 191.801 188.777 193.48C190.652 195.16 192.879 196 195.457 196C198.25 196 200.633 195.023 202.605 193.051C204.578 191.078 205.574 188.695 205.574 185.902V184.418C205.574 181.625 204.578 179.262 202.605 177.289C200.633 175.316 198.25 174.32 195.457 174.32ZM200.066 189.809C200.066 191.098 199.617 192.191 198.719 193.109C197.801 194.008 196.707 194.457 195.418 194.457C194.129 194.457 193.016 194.008 192.117 193.109C191.199 192.191 190.75 191.098 190.75 189.809V187.152V180.57C190.75 179.281 191.199 178.188 192.117 177.289C193.016 176.371 194.129 175.922 195.418 175.922C196.707 175.922 197.801 176.371 198.719 177.289C199.617 178.188 200.066 179.281 200.066 180.57V189.809ZM246.199 166.703L241.57 185.609L236.961 166.703H236.844H231.531H231.414L226.805 185.609L222.176 166.703H216.746L223.914 196H224.266H229.344H229.695L234.188 177.602L238.68 196H239.031H244.109H244.461L251.629 166.703H246.199ZM260.73 176.469C257.762 176.469 255.477 177.836 253.855 180.57L257.176 182.035V181.312C257.176 180.316 257.527 179.457 258.23 178.754C258.934 178.051 259.773 177.699 260.77 177.699C261.766 177.699 262.625 178.051 263.328 178.754C264.031 179.457 264.383 180.316 264.383 181.312V184.359C263.816 184.164 263.23 184.086 262.605 184.086H258.875C257.234 184.086 255.828 184.672 254.656 185.824C253.504 186.996 252.918 188.402 252.918 190.043C252.918 191.684 253.504 193.09 254.656 194.262C255.828 195.414 257.234 196 258.875 196H262.605C263.582 196 264.461 195.785 265.281 195.355L268.562 196V190.043V184.301C268.562 182.133 267.801 180.297 266.277 178.754C264.734 177.23 262.898 176.469 260.73 176.469ZM264.305 191.195C264.305 192.191 263.953 193.051 263.25 193.754C262.547 194.457 261.707 194.809 260.711 194.809C259.715 194.809 258.855 194.457 258.152 193.754C257.449 193.051 257.098 192.191 257.098 191.195V188.891C257.098 187.875 257.449 187.035 258.152 186.332C258.855 185.629 259.715 185.277 260.711 185.277C261.707 185.277 262.547 185.629 263.25 186.332C263.953 187.035 264.305 187.875 264.305 188.891V191.195ZM283.953 191.449C283.816 192.406 283.406 193.188 282.723 193.832C282.02 194.457 281.199 194.77 280.242 194.77C279.207 194.77 278.328 194.398 277.586 193.676C276.863 192.953 276.492 192.074 276.492 191.039V187.25L276.531 187.27V181.137H285.32V179.887H276.531V175.668H272.117V179.887H270.184V181.137H272.117V187.895C272.117 190.121 272.898 192.035 274.5 193.617C276.082 195.199 277.996 196 280.242 196C283.465 196 285.887 194.477 287.547 191.449H283.953ZM299.148 191.156C299.148 192.152 298.816 192.992 298.113 193.715C297.41 194.418 296.57 194.77 295.574 194.77C294.578 194.77 293.738 194.418 293.035 193.715C292.352 192.992 292 192.152 292 191.156V186.312L302.449 181.859C302.449 181.723 302.449 181.605 302.43 181.488C302.312 180.414 301.863 179.496 301.082 178.734C299.5 177.152 297.527 176.41 295.145 176.469C293.016 176.664 291.277 177.523 289.91 179.066C288.523 180.609 287.84 182.426 287.84 184.516V185.258V185.941V188.168C287.84 190.336 288.602 192.172 290.125 193.715C291.629 195.238 293.465 196 295.613 196C298.562 196 300.848 194.633 302.449 191.879L299.148 190.434V191.156ZM292 181.449C292 180.473 292.312 179.613 292.977 178.871C293.641 178.148 294.461 177.758 295.457 177.699C296.512 177.699 297.391 178.051 298.094 178.734C298.797 179.438 299.148 180.297 299.148 181.312V181.957L292 185.023V181.449ZM320.027 181.723C318.426 178.227 315.887 176.469 312.41 176.469C310.555 176.469 308.934 177.016 307.488 178.129L304.246 176.84V184.652V188.734V196H308.68V191.84V187.758V181.469C308.68 180.434 309.031 179.555 309.773 178.812C310.496 178.09 311.395 177.719 312.43 177.719C313.465 177.719 314.344 178.09 315.086 178.812C315.809 179.555 316.18 180.434 316.18 181.469V185.551L320.027 181.723ZM355.73 166.703H355.535L346.375 193.656L337.215 166.703H337.02H331.629V196H337.02V171.176L345.477 196H345.574H347.176H347.273L355.73 171.176V196H361.121V166.703H355.73ZM374.07 191.156C374.07 192.152 373.738 192.992 373.035 193.715C372.332 194.418 371.492 194.77 370.496 194.77C369.5 194.77 368.66 194.418 367.957 193.715C367.273 192.992 366.922 192.152 366.922 191.156V186.312L377.371 181.859C377.371 181.723 377.371 181.605 377.352 181.488C377.234 180.414 376.785 179.496 376.004 178.734C374.422 177.152 372.449 176.41 370.066 176.469C367.938 176.664 366.199 177.523 364.832 179.066C363.445 180.609 362.762 182.426 362.762 184.516V185.258V185.941V188.168C362.762 190.336 363.523 192.172 365.047 193.715C366.551 195.238 368.387 196 370.535 196C373.484 196 375.77 194.633 377.371 191.879L374.07 190.434V191.156ZM366.922 181.449C366.922 180.473 367.234 179.613 367.898 178.871C368.562 178.148 369.383 177.758 370.379 177.699C371.434 177.699 372.312 178.051 373.016 178.734C373.719 179.438 374.07 180.297 374.07 181.312V181.957L366.922 185.023V181.449ZM379.168 169.809V175.023V177.27V196L383.211 195.199V174.262V171.996V166.703L379.168 169.809ZM392.938 176.469C390.77 176.469 388.934 177.23 387.391 178.754C385.867 180.277 385.105 182.133 385.105 184.281V188.188C385.105 190.336 385.867 192.191 387.391 193.715C388.934 195.238 390.77 196 392.938 196C395.105 196 396.941 195.238 398.484 193.715C400.008 192.191 400.77 190.336 400.77 188.188V184.281C400.77 182.133 400.008 180.277 398.484 178.754C396.941 177.23 395.105 176.469 392.938 176.469ZM396.531 191.215C396.531 192.211 396.18 193.051 395.477 193.754C394.773 194.457 393.914 194.809 392.918 194.809C391.922 194.809 391.082 194.457 390.379 193.754C389.676 193.051 389.324 192.211 389.324 191.215V181.312C389.324 180.336 389.676 179.477 390.379 178.773C391.082 178.09 391.922 177.738 392.918 177.738C393.914 177.738 394.773 178.09 395.477 178.773C396.18 179.477 396.531 180.336 396.531 181.312V191.215ZM407.02 196V191.84V187.758V181.469C407.02 180.434 407.371 179.555 408.113 178.812C408.836 178.09 409.715 177.719 410.75 177.719C411.785 177.719 412.664 178.09 413.387 178.812C414.109 179.555 414.48 180.434 414.48 181.469V185.297L414.441 185.277V196H418.855V188.734V186.957V184.652C418.855 182.387 418.055 180.453 416.473 178.871C414.891 177.27 412.977 176.469 410.73 176.469C408.895 176.469 407.254 177.016 405.848 178.129L402.605 176.84V184.652V188.734V196H407.02Z" fill="black"/>
</svg>
