<svg width="580" height="260" viewBox="0 0 580 260" fill="none" xmlns="http://www.w3.org/2000/svg">
<rect width="580" height="260" fill="white"/>
<path d="M62.569 111.651C58.411 111.525 54.442 111.273 50.725 111.021C47.134 110.706 44.929 112.848 44.929 115.557C44.929 118.707 47.134 120.219 50.725 120.534C64.207 121.542 81.532 121.542 95.455 120.534C99.172 120.282 101.377 118.707 101.377 115.557C101.377 112.848 99.172 110.769 95.518 111.021C91.801 111.273 87.769 111.462 83.674 111.588C83.737 110.895 83.8 110.265 83.8 109.572C84.115 109.572 84.367 109.572 84.682 109.572C94.636 109.131 98.479 109.068 98.479 105.54C98.479 102.012 95.203 102.138 85.438 102.138C79.957 102.138 74.413 102.264 68.743 102.579C67.42 102.642 67.231 101.193 68.617 101.067C74.098 100.752 83.611 100.626 89.659 100.626C93.817 100.626 96.526 99.618 97.597 97.602C99.046 94.83 98.92 90.231 97.66 87.774C96.337 85.128 91.738 83.616 82.855 83.175C75.169 82.797 69.562 82.797 61.939 83.49C54.001 84.183 48.016 85.128 48.142 90.294C48.268 94.83 54.568 95.46 64.963 95.46C71.704 95.46 77.122 94.893 82.666 94.2C84.178 94.074 84.43 95.523 82.918 95.649C75.295 96.72 65.593 97.035 54.757 96.846C51.544 96.783 49.276 97.854 48.457 99.618C47.701 101.193 47.449 103.902 48.457 106.17C49.528 108.69 53.749 109.257 59.545 109.572C60.49 109.635 61.435 109.698 62.443 109.698C62.443 110.328 62.506 111.021 62.569 111.651ZM68.869 127.086C69.058 126.582 69.436 126.456 69.814 126.582C73.531 127.464 76.051 129.165 76.555 133.26C77.122 137.355 80.902 139.182 88.399 139.182C95.392 139.182 99.172 137.607 99.172 132.819C99.172 126.015 90.1 122.676 73.846 122.676C56.899 122.676 47.071 125.448 47.071 132.441C47.071 137.733 52.111 139.182 60.868 139.182C69.688 139.182 74.728 137.733 74.728 133.386C74.728 130.236 72.334 128.724 69.499 128.094C68.995 127.968 68.806 127.527 68.869 127.086ZM153.931 139.875C150.025 139.875 147.379 136.977 147.946 131.307C149.08 117.762 149.08 104.154 148.009 91.176C147.379 84.939 150.025 81.978 153.931 81.978C157.396 81.978 159.853 84.498 160.294 89.664C161.302 103.272 161.302 118.644 160.294 132.315C159.853 137.355 157.396 139.875 153.931 139.875ZM131.44 121.605C131.566 122.298 131.692 123.054 131.755 123.81C132.574 134.646 125.644 137.04 118.084 137.04C109.957 137.04 106.177 132.315 105.169 124.629C103.972 116.187 103.972 105.225 105.169 96.783C106.177 89.097 108.823 85.317 113.296 84.498C117.076 83.868 120.667 83.868 124.384 84.372C128.794 85.002 131.692 88.215 131.692 94.137C131.692 100.248 129.046 104.217 124.384 104.217H118.084C119.155 107.052 119.155 111.273 118.336 114.045C116.887 114.612 115.753 115.179 114.871 115.809C114.115 116.313 114.745 117.447 115.501 116.943C117.58 115.431 120.478 114.675 123.817 114.675C124.195 114.675 124.636 114.675 125.014 114.738C125.014 114.171 124.951 113.667 124.951 113.037C124.951 106.674 126.652 104.028 129.487 104.28L134.338 104.721C134.212 100.311 133.96 95.964 133.582 91.68C133.078 85.506 135.661 82.671 139.567 82.671C143.032 82.671 145.552 85.128 145.867 90.105C147.001 103.524 147.001 118.644 145.867 132.063C145.552 137.04 143.032 139.497 139.567 139.497C135.661 139.497 133.078 136.599 133.519 131.055C133.834 127.842 134.023 124.629 134.149 121.416L131.44 121.605ZM210.518 139.875C205.415 139.875 201.95 136.977 202.58 131.307C204.155 117.762 204.155 104.154 202.643 91.176C201.95 84.939 205.415 81.978 210.518 81.978C214.928 81.978 218.078 84.498 218.582 89.664C219.968 103.272 219.968 118.644 218.582 132.315C218.078 137.355 214.928 139.875 210.518 139.875ZM165.536 127.527C164.717 122.298 164.528 116.817 165.536 112.281C166.544 107.367 168.119 103.902 173.663 103.902C177.632 103.902 182.042 103.713 186.074 103.083C187.019 102.957 187.019 101.004 186.074 101.13C182.294 101.697 178.199 101.949 174.482 101.949C167.615 101.949 165.536 99.303 165.536 94.2C165.536 89.16 168.686 85.947 174.86 84.687C179.963 83.742 183.995 83.742 188.405 84.372C193.382 85.065 197.603 86.829 198.737 92.625C199.619 97.665 199.682 103.398 198.737 107.619C198.107 110.328 196.154 111.21 193.445 111.21C186.263 111.273 179.711 112.344 175.553 114.297C174.545 114.801 175.238 116.565 176.246 116.187C179.837 114.612 185.885 113.1 190.358 113.1C197.225 113.1 200.501 116.754 201.068 123.369C201.824 134.52 193.319 137.418 184.247 137.418C173.285 137.418 166.418 133.827 165.536 127.527ZM276.176 98.673C275.987 95.586 275.798 92.625 275.483 89.664C274.979 84.498 271.829 81.978 267.419 81.978C262.316 81.978 258.914 84.939 259.544 91.176C261.119 104.154 261.119 117.762 259.481 131.307C258.914 136.977 262.316 139.875 267.419 139.875C271.829 139.875 274.979 137.355 275.483 132.315C275.861 128.661 276.113 124.881 276.302 121.101L278.003 121.353C280.901 121.668 282.602 118.266 282.602 109.824C282.602 101.445 280.901 97.98 278.003 98.484L276.176 98.673ZM241.526 137.67C254.189 137.67 258.536 127.023 258.536 110.706C258.536 94.326 254.819 83.742 241.526 83.742C228.233 83.742 224.516 94.326 224.516 110.706C224.516 127.023 228.863 137.67 241.526 137.67ZM240.455 114.801V106.674C240.455 105.603 242.471 105.603 242.471 106.674V114.801C242.471 115.809 240.455 115.809 240.455 114.801ZM323.027 109.761C324.728 109.698 326.24 109.572 327.5 109.446C330.839 109.131 333.044 110.895 333.044 113.541C333.044 116.439 331.154 118.329 327.878 118.581C321.956 119.148 309.167 119.148 303.56 118.644C300.284 118.392 298.394 116.439 298.394 113.541C298.394 110.895 300.284 109.131 303.56 109.509C305.009 109.635 306.836 109.761 308.915 109.824V108.69C308.915 108.501 308.915 108.312 308.915 108.123C304.757 108.123 297.638 108.123 297.386 102.453C297.134 98.169 299.528 96.531 302.111 95.964C304.316 95.46 306.206 94.767 307.34 93.759C306.836 93.759 306.332 93.696 305.765 93.696C301.103 93.507 298.772 92.247 298.772 89.475C298.772 86.64 301.103 85.38 305.765 85.191C306.836 85.128 307.907 85.065 308.915 85.065C308.663 84.624 308.6 84.183 308.6 83.805C308.6 81.978 310.868 80.529 315.971 80.529C321.2 80.529 323.468 81.978 323.468 83.805C323.468 84.183 323.405 84.624 323.153 85.065C324.098 85.065 325.106 85.128 326.114 85.191C330.776 85.38 333.044 86.64 333.044 89.475C333.044 92.247 330.776 93.507 326.114 93.696C325.421 93.759 324.791 93.822 324.161 93.822C325.61 94.83 327.752 95.523 329.768 96.027C332.729 96.783 334.304 99.303 333.863 102.453C333.359 106.485 331.28 108.249 326.744 108.249C325.232 108.249 324.035 108.249 323.027 108.123C323.027 108.312 323.027 108.501 323.027 108.69V109.761ZM350.369 110.202C350.306 111.021 350.18 111.84 350.054 112.659C349.424 117.258 346.4 119.4 341.99 119.4C336.887 119.4 333.548 116.88 334.241 111.84C335.123 104.091 335.123 97.224 334.304 90.168C333.548 84.435 336.887 81.915 341.99 81.915C346.4 81.915 349.487 84.12 350.054 88.782C350.18 89.727 350.306 90.735 350.432 91.68L352.385 91.428C355.283 91.113 356.984 94.011 356.984 100.941C356.984 107.808 355.283 110.769 352.385 110.391L350.369 110.202ZM316.916 104.154H317.861C318.176 104.154 318.491 104.154 318.743 104.154C318.68 103.713 318.68 103.209 318.68 102.642C318.68 99.87 318.05 98.043 315.467 96.468C314.711 96.027 313.136 96.657 314.081 97.224C316.097 98.358 316.916 99.87 316.916 103.02C316.916 103.398 316.916 103.776 316.916 104.154ZM321.578 124.818C323.72 124.692 325.988 124.692 328.193 124.818V123.873C328.193 118.959 347.723 118.392 349.613 124.692C350.621 127.653 350.684 131.811 349.424 135.024C348.479 137.67 345.077 138.678 339.848 139.056C329.957 139.812 319.814 139.812 309.86 139.056C304.631 138.678 301.292 137.67 300.284 135.024C299.15 131.811 299.15 127.653 300.095 124.692C302.111 118.392 321.578 118.959 321.578 123.873V124.818ZM320.318 132.315C323.216 133.827 326.492 133.827 329.39 132.315C330.146 131.937 330.146 131.307 329.957 130.866C329.768 130.299 329.264 130.047 328.697 130.299C326.366 131.748 323.216 131.748 320.948 130.236C320.507 130.047 319.814 130.236 319.562 130.866C319.31 131.181 319.436 131.748 320.318 132.315ZM383.267 95.586C384.212 97.413 384.212 100.122 383.456 102.264C384.716 101.697 385.724 101.445 387.11 101.445C388.244 101.445 389.378 101.697 390.26 102.201C390.386 98.106 390.26 94.263 389.882 90.231C389.378 84.939 391.709 82.671 395.426 82.671C398.576 82.671 400.844 84.624 401.222 88.845C401.285 89.727 401.411 90.546 401.474 91.428H403.364C403.301 90.861 403.301 90.231 403.238 89.664C402.734 84.372 405.191 82.041 408.908 82.041C412.058 82.041 414.452 84.057 414.83 88.152C415.523 95.523 415.523 104.406 414.83 111.714C414.452 115.872 412.058 117.825 408.908 117.825C405.191 117.825 402.734 115.557 403.175 110.895C403.238 110.076 403.301 109.32 403.364 108.501H401.411C401.348 109.131 401.285 109.824 401.222 110.454C400.844 114.738 398.576 116.628 395.426 116.628C393.095 116.628 391.268 115.683 390.386 113.856C388.496 115.62 385.787 116.502 382.826 116.502C380.369 116.502 376.841 115.935 374.258 112.155C373.88 111.651 373.061 112.092 373.313 112.596C373.817 113.541 374.762 114.675 376.085 115.431C374.069 116.502 370.982 116.943 368.462 116.943C363.044 116.943 359.327 113.919 358.319 109.005C357.185 103.713 357.185 96.342 358.319 90.861C359.327 86.01 362.036 83.049 366.95 83.049C369.344 83.049 372.746 83.301 374.321 85.065C373.376 86.01 372.557 87.207 372.179 88.845C371.99 89.412 373.124 89.727 373.313 89.097C374.384 85.695 377.093 83.049 380.747 83.049C385.661 83.049 388.811 84.624 388.811 90.42C388.811 94.074 387.11 95.586 385.094 95.586H383.267ZM368.084 95.586C369.218 97.413 369.218 100.5 368.273 102.579C369.092 102.201 370.541 101.886 371.99 101.886C372.368 101.886 372.62 101.949 372.935 101.949V95.586H368.084ZM362.099 129.543C362.099 121.794 370.226 117.384 388.748 117.384C407.27 117.384 415.334 121.794 415.334 129.543C415.334 137.418 408.593 139.812 388.748 139.812C368.966 139.812 362.099 137.418 362.099 129.543ZM383.456 128.22C383.078 128.85 383.393 129.417 384.212 129.858C387.11 131.37 390.386 131.37 393.284 129.858C393.788 129.606 394.166 128.976 393.851 128.346C393.725 127.842 393.095 127.401 392.528 127.716C390.197 128.976 387.11 128.913 384.905 127.653C384.401 127.401 383.708 127.59 383.456 128.22ZM451.319 128.85C449.051 134.394 444.389 138.111 436.892 137.607C429.395 137.04 424.355 131.37 424.859 122.55C425.615 112.722 433.868 103.902 442.499 99.177C443.57 98.547 442.436 96.594 441.428 97.35C437.837 99.933 433.112 101.949 428.702 102.264C424.04 102.705 418.874 100.185 417.992 95.586C417.173 90.672 420.323 87.459 424.859 85.758C428.702 84.372 433.112 83.931 438.656 83.931C445.523 83.931 449.429 86.829 451.382 91.554H456.8C456.8 91.428 456.737 91.302 456.737 91.176C456.044 84.939 459.509 81.978 464.612 81.978C469.022 81.978 472.172 84.498 472.676 89.664C474.062 103.272 474.062 118.644 472.676 132.315C472.172 137.355 469.022 139.875 464.612 139.875C459.509 139.875 456.044 136.977 456.674 131.307C456.8 130.488 456.863 129.669 456.926 128.85H451.319ZM457.871 113.541C457.934 111.273 457.871 109.068 457.808 106.8H453.776C453.839 109.005 453.902 111.273 453.839 113.541H457.871ZM506.331 116.943C506.394 118.707 506.457 120.723 506.394 123.117C506.016 135.465 504.378 137.67 500.724 137.67C496.062 137.67 494.424 135.717 494.424 123.054C494.424 118.203 493.92 113.856 493.164 110.769C492.66 109.068 491.085 109.572 491.463 111.147C492.282 113.982 492.912 118.392 492.912 123.999C492.912 135.465 490.959 137.418 485.289 137.418C480.501 137.418 477.54 133.197 477.288 122.55C477.099 113.037 478.926 109.131 481.068 105.099C482.076 103.209 482.58 101.508 482.895 98.988C479.934 98.547 477.225 96.783 477.225 93.318C477.225 89.034 481.068 86.64 484.596 88.278C483.399 87.396 483.147 86.451 483.147 85.569C483.147 83.238 486.612 81.663 491.778 81.663C496.881 81.663 500.346 83.238 500.346 85.569C500.346 86.451 500.094 87.396 498.897 88.278C502.362 86.64 506.268 89.034 506.268 93.318C506.268 96.594 503.748 98.358 500.913 98.925C501.228 100.185 501.606 101.382 502.11 102.453H508.851C508.725 98.799 508.536 95.208 508.221 91.617C507.654 85.38 510.174 82.608 514.143 82.608C517.608 82.608 520.065 85.065 520.443 90.042C521.514 103.461 521.514 118.581 520.443 132C520.065 136.977 517.608 139.434 514.143 139.434C510.174 139.434 507.591 136.536 508.095 130.992C508.473 126.33 508.788 121.605 508.914 116.943H506.331ZM528.192 139.812C524.286 139.812 521.64 136.914 522.207 131.244C523.341 117.699 523.467 104.091 522.27 91.113C521.703 84.876 524.286 81.915 528.192 81.915C531.657 81.915 534.114 84.435 534.555 89.601C535.563 103.209 535.563 118.581 534.555 132.252C534.114 137.292 531.657 139.812 528.192 139.812Z" fill="black"/>
<path d="M159.932 187.838C159.286 183.044 159.286 175.938 159.932 169.818C160.204 166.996 161.87 164.99 164.964 164.99C169.826 164.99 170.404 170.192 169.928 175.734C169.554 180.188 168.398 182.636 166.732 184.71C166.358 185.22 167.004 185.696 167.412 185.22C169.18 182.976 171.356 181.072 174.314 181.072C178.428 181.072 180.128 183.554 180.4 186.512C180.978 192.36 175.606 194.094 169.656 194.094C164.658 194.094 160.578 192.904 159.932 187.838ZM181.386 183.928C181.386 190.048 186.044 194.638 192.368 194.638C198.42 194.638 202.398 189.606 202.466 183.928C202.466 178.318 199.236 172.572 192.47 172.572C185.772 172.572 181.42 177.298 181.386 183.928ZM190.906 185.832C191.722 184.2 191.994 182.806 192.13 181.14C192.164 180.562 193.32 180.528 193.286 181.31C193.252 183.01 193.014 184.846 192.096 186.206C191.62 186.852 190.634 186.342 190.906 185.832ZM206.929 182.67C206.929 182.84 206.929 183.01 206.929 183.18C207.133 189.878 207.677 194.298 214.239 194.298C217.911 194.298 221.175 192.632 221.379 189.606C221.617 186.104 219.713 184.574 217.707 184.438C216.143 184.302 214.579 185.254 213.763 186.818C213.559 187.226 212.845 187.022 213.049 186.444C213.423 185.526 214.715 184.234 216.279 183.826C216.381 183.214 216.415 182.466 216.415 181.65L217.333 181.548C219.747 181.276 221.107 180.29 221.107 177.672C221.107 175.87 220.597 174.578 219.475 173.932C218.659 173.456 217.231 173.354 215.803 173.422C215.803 173.388 215.803 173.354 215.803 173.32C215.463 169.852 214.069 169.138 211.451 169.138C208.765 169.138 207.371 169.852 207.099 173.32C207.065 173.762 207.065 174.204 207.031 174.646C204.753 175.054 203.359 175.768 203.359 178.454C203.359 180.256 203.869 181.514 204.991 182.16C205.467 182.432 206.147 182.67 206.929 182.67ZM225.855 182.67C225.855 182.84 225.855 183.01 225.855 183.18C226.059 189.878 226.603 194.298 233.165 194.298C236.837 194.298 240.101 192.632 240.305 189.606C240.543 186.104 238.639 184.574 236.633 184.438C235.069 184.302 233.505 185.254 232.689 186.818C232.485 187.226 231.771 187.022 231.975 186.444C232.349 185.526 233.641 184.234 235.205 183.826C235.307 183.214 235.341 182.466 235.341 181.65L236.259 181.548C238.673 181.276 240.033 180.29 240.033 177.672C240.033 175.87 239.523 174.578 238.401 173.932C237.585 173.456 236.157 173.354 234.729 173.422C234.729 173.388 234.729 173.354 234.729 173.32C234.389 169.852 232.995 169.138 230.377 169.138C227.691 169.138 226.297 169.852 226.025 173.32C225.991 173.762 225.991 174.204 225.957 174.646C223.679 175.054 222.285 175.768 222.285 178.454C222.285 180.256 222.795 181.514 223.917 182.16C224.393 182.432 225.073 182.67 225.855 182.67ZM246.208 192.768C247.976 193.89 250.118 194.298 252.294 194.298C253.96 194.298 255.014 194.23 256.646 193.72C260.012 192.666 261.168 191.068 260.42 188.926C259.468 186.104 258.142 186.138 255.082 187.022C254.674 187.124 254.028 187.26 253.586 187.26C251.172 187.26 249.472 185.9 249.336 184.914C249.234 184.268 250.016 184.268 250.186 184.54C251.206 186.172 253.926 186.308 255.694 185.866C259.128 185.05 260.76 183.554 260.93 180.324C261.236 174.952 257.088 172.572 252.26 172.572C250.458 172.572 248.554 172.946 246.854 173.728C243.352 175.36 241.516 179.576 241.584 183.792C241.652 187.294 243.148 190.83 246.208 192.768ZM250.73 180.018C250.186 180.154 249.948 179.032 250.628 178.76C252.158 178.114 253.994 178.386 255.592 178.726C256.374 178.862 256.068 180.018 255.524 179.95C253.892 179.61 252.464 179.542 250.73 180.018ZM271.723 173.354C270.601 174.51 269.819 176.074 269.683 177.706C269.581 178.522 270.295 178.624 270.465 177.91C271.349 173.864 273.423 172.3 276.551 172.538C279.373 172.742 280.325 175.666 280.291 177.57C280.291 179.372 279.883 182.534 276.585 183.044C275.497 183.214 274.239 182.738 273.185 181.888C272.675 181.446 272.403 181.888 272.403 182.466C272.335 184.914 272.199 187.396 271.961 189.81C271.689 192.36 270.295 194.366 267.473 194.366C264.583 194.366 263.155 192.36 262.951 189.81C262.577 184.846 262.747 179.916 262.815 174.952C262.849 173.83 263.427 172.912 264.311 172.776C265.025 172.64 266.011 172.572 267.065 172.572C269.037 172.572 271.111 172.878 271.723 173.354ZM286.771 174.102C284.459 174.102 282.317 172.402 282.317 169.376C282.317 166.554 284.493 164.65 286.771 164.65C289.253 164.65 291.225 167.03 291.225 169.478C291.225 171.994 289.355 174.102 286.771 174.102ZM282.215 191.204C281.569 187.192 281.569 182.738 282.215 178.726C282.453 177.162 283.881 175.87 286.771 175.87C289.559 175.87 290.953 177.162 291.225 178.726C291.905 182.738 291.905 187.192 291.225 191.204C290.953 192.802 289.559 194.06 286.771 194.06C283.881 194.06 282.453 192.802 282.215 191.204ZM306.944 191.544C307.352 193.38 308.508 194.332 310.412 194.332C312.35 194.332 313.506 193.278 313.948 191.272C314.9 187.124 314.934 181.752 313.744 178.42C312.35 174.476 309.256 172.572 303.85 172.572C298.58 172.572 294.126 174.782 294.126 178.216C294.126 180.12 295.52 181.514 298.172 181.514C301.096 181.514 303.748 180.086 305.074 178.148C305.516 177.502 306.502 178.182 306.06 178.862C304.938 180.562 302.728 181.99 299.566 182.636C296.098 183.316 293.48 185.458 293.48 188.858C293.48 192.598 296.54 194.638 300.416 194.638C303.068 194.638 305.414 193.856 306.944 191.544ZM301.164 189.13C300.382 189.232 300.11 188.144 300.654 188.008C302.456 187.566 303.68 186.852 304.972 185.764C305.414 185.424 306.264 186.24 305.584 186.784C304.326 187.838 302.796 188.926 301.164 189.13ZM338.144 194.298C341.238 194.298 343.788 193.822 345.692 192.802C348.276 191.408 348.446 188.62 347.256 186.342C346.032 183.928 343.346 182.16 340.592 183.554C340.014 183.86 339.198 184.098 338.144 184.098C334.914 184.098 333.656 181.922 333.656 179.44C333.656 177.026 334.914 174.85 338.144 174.85C339.198 174.85 340.014 175.088 340.592 175.394C343.278 176.754 345.896 175.122 347.188 172.776C348.446 170.532 348.378 167.54 345.692 166.18C343.788 165.126 341.238 164.65 338.144 164.65C327.332 164.65 324.102 171.314 324.102 179.474C324.102 187.668 327.332 194.298 338.144 194.298ZM359.564 184.132C359.666 183.826 359.938 183.656 360.21 183.656C360.482 183.656 360.788 183.826 360.856 184.234C360.924 186.002 361.026 187.736 361.23 189.504C361.502 192.054 362.862 194.06 365.752 194.06C368.574 194.06 370.002 192.054 370.24 189.504C370.58 186.342 370.784 183.86 370.75 180.732C370.716 176.278 368.54 172.572 364.154 172.572C361.978 172.572 359.972 173.558 358.51 175.564C358.034 176.244 357.592 176.924 357.252 177.638C356.912 178.25 356.13 177.876 356.47 177.026C357.116 175.53 357.864 174.51 359.156 173.524C359.122 172.368 359.02 170.124 358.918 169.138C358.578 165.67 357.184 164.956 354.566 164.956C351.88 164.956 350.452 165.67 350.214 169.138C349.976 172.776 349.738 177.74 349.772 181.616V182.806C349.84 185.05 349.942 187.26 350.18 189.504C350.452 192.054 351.812 194.06 354.702 194.06C357.524 194.06 358.918 192.054 359.19 189.504C359.36 187.736 359.462 185.934 359.564 184.132ZM385.47 191.544C385.878 193.38 387.034 194.332 388.938 194.332C390.876 194.332 392.032 193.278 392.474 191.272C393.426 187.124 393.46 181.752 392.27 178.42C390.876 174.476 387.782 172.572 382.376 172.572C377.106 172.572 372.652 174.782 372.652 178.216C372.652 180.12 374.046 181.514 376.698 181.514C379.622 181.514 382.274 180.086 383.6 178.148C384.042 177.502 385.028 178.182 384.586 178.862C383.464 180.562 381.254 181.99 378.092 182.636C374.624 183.316 372.006 185.458 372.006 188.858C372.006 192.598 375.066 194.638 378.942 194.638C381.594 194.638 383.94 193.856 385.47 191.544ZM379.69 189.13C378.908 189.232 378.636 188.144 379.18 188.008C380.982 187.566 382.206 186.852 383.498 185.764C383.94 185.424 384.79 186.24 384.11 186.784C382.852 187.838 381.322 188.926 379.69 189.13ZM402 178.488C401.626 178.352 401.456 178.012 401.694 177.57C402.238 176.516 403.598 174.884 405.026 174.034C404.992 172.912 404.856 170.464 404.754 169.512C404.516 166.996 402.952 164.99 400.13 164.99C397.24 164.99 395.676 166.996 395.438 169.512C395.064 173.15 394.894 177.808 394.962 181.684C395.064 189.946 398.566 194.298 407.44 194.298C413.288 194.298 419.272 191.782 419.272 183.078C419.272 176.176 414.886 173.592 410.602 173.592C407.168 173.592 404.346 175.088 402.714 178.08C402.51 178.42 402.374 178.556 402 178.488ZM406.556 183.35C405.978 182.908 406.692 181.922 407.168 182.262C408.63 183.282 409.956 183.792 411.588 184.098C412.132 184.234 411.962 185.424 411.214 185.322C409.548 184.982 407.916 184.37 406.556 183.35Z" fill="black"/>
</svg>
