<svg width="580" height="260" viewBox="0 0 580 260" fill="none" xmlns="http://www.w3.org/2000/svg">
<rect width="580" height="260" fill="white"/>
<path d="M47.7876 118.282H102.22V115.384H83.3826C82.6896 115.384 82.2486 114.943 82.2486 114.25V111.415H101.212V108.517H62.3406V104.926H95.9196C99.1326 104.926 101.212 102.91 101.212 100.264C101.212 97.681 99.1326 95.665 95.9196 95.665H62.3406V92.2H95.9196C99.1326 92.2 101.212 90.058 101.212 87.475C101.212 84.892 99.1326 82.75 95.9196 82.75H48.9846V85.648H87.2886V89.302H53.6466C50.4966 89.302 48.4176 91.318 48.4176 93.901C48.4176 96.547 50.4966 98.563 53.6466 98.563H87.2886V102.028H53.6466C50.4966 102.028 48.4176 104.107 48.4176 106.69C48.4176 109.336 50.4966 111.415 53.6466 111.415H67.7586V115.384H47.7876V118.282ZM47.2206 135.733C65.5536 135.733 82.2486 131.449 82.2486 122.062V120.424H67.7586V122.062C67.7586 127.543 59.0646 133.465 47.2206 133.465V135.733ZM85.1466 128.425C85.1466 132.772 88.0446 135.67 92.4546 135.67C96.7386 135.67 99.6366 132.772 99.6366 128.425C99.6366 124.078 96.7386 121.18 92.4546 121.18C88.0446 121.18 85.1466 124.078 85.1466 128.425ZM148.42 135.67H161.146V82.75H148.42V135.67ZM133.93 135.04H146.089V82.75H133.93V105.43H125.992V108.328H133.93V135.04ZM132.166 130.504C129.835 131.701 126.748 132.142 123.724 132.142H122.023C121.015 132.142 120.322 131.449 120.322 130.441V85.648H131.032V82.75H107.533V128.11C107.533 132.268 110.305 135.04 114.526 135.04H123.283C126.496 135.04 129.709 134.599 132.166 133.402V130.504ZM181.264 132.772V122.566H196.447C200.983 122.566 204.007 119.542 204.007 114.943C204.007 110.344 200.983 107.383 196.447 107.383H181.264V97.996H196.447C200.983 97.996 204.007 94.972 204.007 90.373C204.007 85.774 200.983 82.75 196.447 82.75H168.475V85.648H190.084V95.098H174.901C170.365 95.098 167.341 98.059 167.341 102.658C167.341 107.257 170.365 110.281 174.901 110.281H190.084V119.668H175.405C170.491 119.668 167.341 122.818 167.341 127.669C167.341 132.52 170.491 135.67 175.405 135.67H194.368C199.345 135.67 204.259 134.914 206.716 133.402V135.67H220.639V82.75H206.716V130.504C204.448 132.016 199.534 132.772 194.809 132.772H181.264ZM243.151 136.804C255.184 136.804 260.098 127.606 260.098 109.147C260.098 90.688 254.554 81.49 243.151 81.49C231.748 81.49 226.267 90.688 226.267 109.147C226.267 127.606 231.181 136.804 243.151 136.804ZM262.744 135.607H276.667V108.706H282.148V105.178H276.667V82.687H262.744V135.607ZM243.151 134.473C240.505 134.473 239.875 128.929 239.875 109.147C239.875 89.365 240.505 83.821 243.151 83.821C245.86 83.821 246.49 89.365 246.49 109.147C246.49 128.929 245.86 134.473 243.151 134.473ZM311.242 85.648H315.022V82.75H298.831V106.879C298.831 111.037 301.603 113.872 305.761 113.872H312.628C314.644 113.872 317.038 113.431 318.802 112.045C319.999 113.179 321.7 113.872 323.716 113.872H330.583C332.725 113.872 336.442 113.431 338.521 112.108V113.872H351.247V100.012H356.161V96.547H351.247V82.75H338.521V109.021C336.568 110.344 332.914 110.785 330.961 110.785C329.953 110.785 329.26 110.092 329.26 109.021V85.648H335.875V82.75H316.786V106.879C316.786 108.013 316.975 109.021 317.353 109.903C315.967 110.533 314.392 110.785 312.817 110.785C311.809 110.785 311.242 110.092 311.242 109.021V85.648ZM299.083 119.92H337.324V135.67H351.247V118.786C351.247 117.715 350.554 117.022 349.546 117.022H299.083V119.92ZM360.34 103.792H374.263V103.729L386.989 97.303L399.715 103.792H413.638V82.75H399.715V87.853L386.989 94.342L374.263 87.916V82.75H360.34V103.792ZM389.824 95.791L399.715 90.751V100.894L389.824 95.791ZM374.263 100.831V90.814L384.154 95.791L374.263 100.831ZM360.34 129.622H360.403C360.781 133.276 363.427 135.67 367.27 135.67H413.638V132.772H375.964C374.956 132.772 374.263 132.016 374.263 131.008V126.409H413.386V123.511H374.263V117.715H413.638V114.817H394.234V110.029H414.205V107.131H359.773V110.029H379.744V114.817H360.34V129.622ZM459.208 135.607H473.131V82.687H459.208V106.69H455.932C455.365 89.932 449.065 82.057 437.599 82.057C425.629 82.057 419.266 90.688 419.266 109.147C419.266 127.606 425.629 136.237 437.599 136.237C449.38 136.237 455.743 127.921 455.995 110.218H459.208V135.607ZM437.599 133.906C434.071 133.906 433.126 128.929 433.126 109.147C433.126 89.365 434.071 84.388 437.599 84.388C441.127 84.388 442.072 89.365 442.072 109.147C442.072 128.929 441.127 133.906 437.599 133.906ZM476.995 134.473C481.783 134.473 486.508 132.646 490.036 129.433C490.855 132.52 493.438 134.473 497.029 134.473C501.313 134.473 504.211 131.512 504.211 127.165C504.211 122.881 501.313 119.92 497.029 119.92C496.525 119.92 496.021 119.983 495.517 120.046C495.769 118.849 495.958 117.526 495.958 116.203V93.145H503.14V90.247H495.958V82.75H484.366V90.247H478.129V93.145H484.366V116.203C484.366 126.283 481.594 132.142 476.995 132.142V134.473ZM505.66 135.04H517.882V82.75H505.66V105.997H498.856V109.525H505.66V135.04ZM519.898 135.67H532.624V82.75H519.898V135.67Z" fill="black"/>
<path d="M154.247 192.448H175.497V190.884H161.727V189.014H175.497V187.45H161.727V165.18H154.247V192.448ZM176.718 183.268C176.718 176.91 180.832 173.17 188.006 173.17C195.18 173.17 199.294 176.91 199.294 183.268C199.294 189.626 195.18 193.366 188.006 193.366C180.832 193.366 176.718 189.626 176.718 183.268ZM188.006 191.938C190.828 191.938 192.086 189.456 192.086 183.268C192.086 177.08 190.828 174.598 188.006 174.598C185.184 174.598 183.926 177.08 183.926 183.268C183.926 189.456 185.184 191.938 188.006 191.938ZM217.361 192.448V190.884H214.267C212.703 190.884 211.513 189.626 211.513 187.212V175.244H216.715V173.68H211.513V167.458H204.305V173.68H200.905V175.244H204.305V186.294C204.305 190 207.433 192.448 212.805 192.448H217.361ZM235.291 192.448V190.884H232.197C230.633 190.884 229.443 189.626 229.443 187.212V175.244H234.645V173.68H229.443V167.458H222.235V173.68H218.835V175.244H222.235V186.294C222.235 190 225.363 192.448 230.735 192.448H235.291ZM251.774 187.314C251.774 190.442 250.414 192.006 247.932 192.006C245.212 192.006 244.158 189.422 244.09 183.71H259.152V182.792C259.152 176.536 254.902 173.17 248 173.17C240.86 173.17 236.882 176.57 236.882 182.792C236.882 189.524 240.758 193.366 247.932 193.366C254.8 193.366 258.642 191.394 258.982 187.314H251.774ZM244.056 182.146C244.056 176.434 245.28 174.53 248 174.53C250.72 174.53 251.944 176.434 251.944 182.146H244.056ZM263.083 192.448H270.291V180.31C271.175 177.216 273.079 175.244 275.629 175.244H277.261V173.68H275.391C273.113 173.68 271.549 174.462 270.291 176.264V173.68H263.083V192.448ZM280.109 167.288C280.109 169.498 281.673 170.994 284.019 170.994C286.331 170.994 287.929 169.498 287.929 167.288C287.929 165.044 286.331 163.582 284.019 163.582C281.673 163.582 280.109 165.044 280.109 167.288ZM280.415 192.448H287.623V173.68H280.415V192.448ZM294.05 176.026C296.464 175.38 298.98 174.904 301.428 174.904H302.448C304.624 174.904 304.862 176.026 304.862 178.066V179.494H302.754C295.58 179.494 291.568 181.806 291.568 186.668C291.568 190.578 294.424 192.686 299.422 192.686C301.326 192.686 303.434 192.278 304.862 191.19C304.862 191.53 304.964 192.108 305.032 192.448H312.206C312.138 191.496 312.07 188.98 312.07 187.926V179.12C312.07 174.36 309.214 173.17 302.788 173.17C299.694 173.17 296.464 173.578 293.642 174.224L294.05 176.026ZM304.862 188.096C304.454 189.592 303.094 190.51 301.53 190.51C299.966 190.51 298.776 189.32 298.776 186.668C298.776 183.812 300.612 181.058 304.318 181.058H304.862V188.096ZM324.679 192.448H336.137C345.113 192.448 350.111 188.334 350.111 178.814C350.111 169.294 345.113 165.18 336.137 165.18H324.679V192.448ZM332.159 191.19V166.438H336.137C339.605 166.438 342.631 168.614 342.631 178.814C342.631 189.014 339.605 191.19 336.137 191.19H332.159ZM367.588 192.448H374.796V165.146H367.588V175.244C366.432 173.918 364.426 173.17 362.386 173.17C356.198 173.17 352.662 176.57 352.662 183.03C352.662 189.286 356.266 192.89 362.386 192.89C364.562 192.89 366.398 191.938 367.588 190.34V192.448ZM367.588 188.164C367.044 189.694 365.65 191.02 364.256 191.02C361.162 191.02 359.836 187.416 359.836 183.03C359.836 178.95 361.162 175.04 364.256 175.04C365.65 175.04 366.976 175.89 367.588 177.114V188.164ZM381.208 176.026C383.622 175.38 386.138 174.904 388.586 174.904H389.606C391.782 174.904 392.02 176.026 392.02 178.066V179.494H389.912C382.738 179.494 378.726 181.806 378.726 186.668C378.726 190.578 381.582 192.686 386.58 192.686C388.484 192.686 390.592 192.278 392.02 191.19C392.02 191.53 392.122 192.108 392.19 192.448H399.364C399.296 191.496 399.228 188.98 399.228 187.926V179.12C399.228 174.36 396.372 173.17 389.946 173.17C386.852 173.17 383.622 173.578 380.8 174.224L381.208 176.026ZM392.02 188.096C391.612 189.592 390.252 190.51 388.688 190.51C387.124 190.51 385.934 189.32 385.934 186.668C385.934 183.812 387.77 181.058 391.476 181.058H392.02V188.096ZM404.681 198.092C407.435 198.806 409.883 199.146 413.283 199.146C420.627 199.146 423.925 196.324 423.925 190.544V173.68H416.717V175.04C415.833 173.816 414.099 173.17 412.229 173.17C405.565 173.17 402.267 177.454 402.267 183.302C402.267 189.15 405.939 193.4 412.297 193.4C414.201 193.4 415.663 192.924 417.125 191.802C417.125 195.372 415.901 197.412 412.671 197.412C410.223 197.412 407.503 196.936 405.089 196.29L404.681 198.092ZM416.717 189.286C416.241 190.952 414.609 191.836 412.977 191.836C410.155 191.836 409.475 187.416 409.475 183.302C409.475 179.12 410.257 174.734 413.351 174.734C415.153 174.734 416.717 176.026 416.717 177.794V189.286Z" fill="black"/>
</svg>
