<svg width="580" height="260" viewBox="0 0 580 260" fill="none" xmlns="http://www.w3.org/2000/svg">
<rect width="580" height="260" fill="white"/>
<path d="M137.229 103.5H145.869V108.96H137.229V138.24H131.229V82.56H137.229V103.5ZM104.529 123.72C111.009 123.72 118.009 123.14 125.529 121.98L126.249 127.26C118.689 128.54 111.109 129.18 103.509 129.18H93.9691V86.64H100.029V123.72H104.529ZM162.504 97.32H195.204V102.78H156.504V83.76H162.504V97.32ZM201.864 107.82V113.04H178.704V118.86H195.504V138.24H155.964V118.86H172.764V113.04H149.544V107.82H201.864ZM161.964 133.2H189.504V123.9H161.964V133.2ZM231.518 102.9C227.598 108.26 221.058 113.06 211.898 117.3L209.138 112.14C216.338 108.7 221.598 105.16 224.918 101.52C228.238 97.84 229.898 93.9 229.898 89.7V85.44H235.898V89.7C235.898 92.54 235.378 95.24 234.338 97.8L256.058 112.32L252.818 117.3L231.518 102.9ZM206.438 134.04V128.58H258.758V134.04H206.438ZM306.653 138.24V82.56H312.473V138.24H306.653ZM283.133 123.84H294.893V83.4H300.533V137.1H294.893V129.3H283.133V123.84ZM291.773 116.16C288.493 116.68 284.433 117.08 279.593 117.36C279.073 124.52 278.353 131.62 277.433 138.66L271.853 138C272.813 130.56 273.513 123.76 273.953 117.6C272.833 117.64 271.253 117.66 269.213 117.66H263.153L262.853 112.2H269.573C273.213 112.2 277.113 112.06 281.273 111.78C281.673 109.42 282.033 106.7 282.353 103.62C278.073 104.14 273.253 104.4 267.893 104.4H265.313L265.013 99.24H268.133C270.253 99.24 272.673 99.18 275.393 99.06C278.153 98.94 280.633 98.76 282.833 98.52C283.033 95.64 283.133 93.46 283.133 91.98V91.56H266.153V86.4H288.833V89.88C288.833 93.04 288.673 96.54 288.353 100.38C288.033 104.22 287.593 107.86 287.033 111.3C288.873 111.14 290.233 111 291.113 110.88L291.773 116.16ZM361.927 82.56H367.927V138.24H361.927V109.5H351.847V112.32C351.847 118.64 350.487 123.34 347.767 126.42C345.047 129.46 341.507 130.98 337.147 130.98C332.747 130.98 329.167 129.46 326.407 126.42C323.687 123.34 322.327 118.64 322.327 112.32V103.86C322.327 97.54 323.687 92.86 326.407 89.82C329.167 86.74 332.747 85.2 337.147 85.2C341.507 85.2 345.047 86.74 347.767 89.82C350.487 92.86 351.847 97.54 351.847 103.86V104.04H361.927V82.56ZM345.907 103.92C345.907 99.32 345.107 95.96 343.507 93.84C341.907 91.72 339.787 90.66 337.147 90.66C334.467 90.66 332.327 91.72 330.727 93.84C329.127 95.96 328.327 99.32 328.327 103.92V112.26C328.327 116.82 329.127 120.18 330.727 122.34C332.367 124.46 334.507 125.52 337.147 125.52C339.787 125.52 341.907 124.46 343.507 122.34C345.107 120.18 345.907 116.82 345.907 112.26V103.92ZM419.902 138.24V82.56H425.722V138.24H419.902ZM395.482 100.02H407.542V83.4H413.182V137.1H407.542V105.48H395.482V100.02ZM387.982 123.72C392.822 123.72 397.762 123.34 402.802 122.58L403.402 127.86C398.442 128.74 393.022 129.18 387.142 129.18H379.282V86.64H385.282V123.72H387.982ZM463.176 128.58H486.336V134.04H434.016V128.58H457.236V116.4H455.856C452.576 116.4 449.696 115.72 447.216 114.36C444.736 113 442.816 111.14 441.456 108.78C440.096 106.42 439.416 103.78 439.416 100.86C439.416 97.98 440.096 95.38 441.456 93.06C442.816 90.7 444.736 88.84 447.216 87.48C449.696 86.12 452.576 85.44 455.856 85.44H464.556C467.836 85.44 470.716 86.12 473.196 87.48C475.676 88.84 477.596 90.7 478.956 93.06C480.316 95.38 480.996 97.98 480.996 100.86C480.996 103.78 480.316 106.42 478.956 108.78C477.596 111.14 475.676 113 473.196 114.36C470.716 115.72 467.836 116.4 464.556 116.4H463.176V128.58ZM445.356 100.92C445.356 103.92 446.396 106.36 448.476 108.24C450.556 110.12 453.376 111.06 456.936 111.06H463.476C467.036 111.06 469.856 110.12 471.936 108.24C474.016 106.36 475.056 103.92 475.056 100.92C475.056 97.92 474.016 95.5 471.936 93.66C469.856 91.78 467.036 90.84 463.476 90.84H456.936C453.376 90.84 450.556 91.78 448.476 93.66C446.396 95.5 445.356 97.92 445.356 100.92Z" fill="black"/>
<path d="M149.79 191.91H147.63V167.79H149.7L163.71 188.1V167.79H165.87V191.91H163.83L149.79 171.57V191.91ZM177.348 174.12C178.688 174.12 179.868 174.39 180.888 174.93C181.908 175.45 182.698 176.22 183.258 177.24C183.838 178.24 184.128 179.43 184.128 180.81V191.91H182.178L182.028 189.51C181.528 190.39 180.808 191.08 179.868 191.58C178.948 192.1 177.878 192.36 176.658 192.36H175.488C174.388 192.36 173.398 192.13 172.518 191.67C171.658 191.21 170.978 190.57 170.478 189.75C169.998 188.93 169.758 188.01 169.758 186.99C169.758 185.39 170.348 184.11 171.528 183.15C172.728 182.19 174.388 181.71 176.508 181.71H181.968V180.96C181.968 179.46 181.558 178.28 180.738 177.42C179.918 176.56 178.738 176.13 177.198 176.13C176.098 176.13 175.138 176.37 174.318 176.85C173.518 177.33 172.888 178 172.428 178.86L170.478 177.96C171.078 176.8 171.988 175.87 173.208 175.17C174.428 174.47 175.808 174.12 177.348 174.12ZM176.958 190.35C178.218 190.35 179.328 189.99 180.288 189.27C181.268 188.57 181.828 187.64 181.968 186.48V183.66H176.658C175.058 183.66 173.868 183.96 173.088 184.56C172.308 185.16 171.918 185.97 171.918 186.99C171.918 188.03 172.268 188.85 172.968 189.45C173.688 190.05 174.648 190.35 175.848 190.35H176.958ZM196.509 174.12C198.549 174.12 200.149 174.78 201.309 176.1C202.489 177.4 203.079 179.13 203.079 181.29V191.91H200.919V181.41C200.919 179.75 200.509 178.46 199.689 177.54C198.889 176.6 197.679 176.13 196.059 176.13C195.039 176.13 194.119 176.36 193.299 176.82C192.499 177.28 191.869 177.92 191.409 178.74C190.949 179.54 190.719 180.46 190.719 181.5V191.91H188.529V174.57H190.509L190.689 177.33C191.249 176.33 192.029 175.55 193.029 174.99C194.049 174.41 195.209 174.12 196.509 174.12ZM219.453 174.57H221.613V191.91H219.633L219.483 189.18C218.923 190.16 218.133 190.93 217.113 191.49C216.093 192.07 214.933 192.36 213.633 192.36C211.613 192.36 210.013 191.7 208.833 190.38C207.653 189.08 207.063 187.35 207.063 185.19V174.57H209.253V185.07C209.253 186.75 209.653 188.06 210.453 189C211.273 189.92 212.483 190.38 214.083 190.38C215.123 190.38 216.043 190.15 216.843 189.69C217.663 189.23 218.303 188.59 218.763 187.77C219.223 186.95 219.453 186.02 219.453 184.98V174.57ZM244.317 174.12C245.477 174.12 246.497 174.42 247.377 175.02C248.277 175.62 248.967 176.46 249.447 177.54C249.947 178.62 250.197 179.87 250.197 181.29V191.91H248.037V181.35C248.037 179.71 247.667 178.43 246.927 177.51C246.187 176.57 245.157 176.1 243.837 176.1C242.537 176.1 241.467 176.6 240.627 177.6C239.807 178.6 239.397 179.9 239.397 181.5V191.91H237.267V181.35C237.267 179.71 236.897 178.43 236.157 177.51C235.437 176.57 234.407 176.1 233.067 176.1C231.747 176.1 230.687 176.6 229.887 177.6C229.087 178.58 228.687 179.88 228.687 181.5V191.91H226.497V174.57H228.477L228.627 177.12C229.147 176.18 229.827 175.45 230.667 174.93C231.507 174.39 232.477 174.12 233.577 174.12C234.797 174.12 235.857 174.45 236.757 175.11C237.657 175.75 238.337 176.65 238.797 177.81C239.297 176.69 240.027 175.8 240.987 175.14C241.967 174.46 243.077 174.12 244.317 174.12ZM262.517 185.34C263.137 186.98 264.117 188.23 265.457 189.09C266.817 189.95 268.427 190.38 270.287 190.38C272.167 190.38 273.687 189.99 274.847 189.21C276.007 188.43 276.587 187.35 276.587 185.97C276.587 184.69 276.177 183.7 275.357 183C274.537 182.3 273.387 181.74 271.907 181.32L268.247 180.24C264.027 179.02 261.917 176.83 261.917 173.67C261.917 172.41 262.257 171.3 262.937 170.34C263.637 169.38 264.587 168.64 265.787 168.12C266.987 167.6 268.327 167.34 269.807 167.34C271.947 167.34 273.777 167.87 275.297 168.93C276.817 169.99 277.897 171.39 278.537 173.13L276.647 174C276.047 172.52 275.167 171.37 274.007 170.55C272.847 169.73 271.447 169.32 269.807 169.32C268.087 169.32 266.697 169.71 265.637 170.49C264.577 171.27 264.047 172.33 264.047 173.67C264.047 174.91 264.457 175.88 265.277 176.58C266.117 177.28 267.257 177.84 268.697 178.26L272.357 179.34C274.277 179.92 275.817 180.72 276.977 181.74C278.157 182.76 278.747 184.17 278.747 185.97C278.747 187.27 278.377 188.4 277.637 189.36C276.897 190.32 275.887 191.06 274.607 191.58C273.327 192.1 271.887 192.36 270.287 192.36C267.947 192.36 265.917 191.82 264.197 190.74C262.497 189.66 261.297 188.14 260.597 186.18L262.517 185.34ZM295.232 174.57H297.242V197.01H295.082V189.3C294.422 190.32 293.562 191.1 292.502 191.64C291.442 192.18 290.272 192.45 288.992 192.45C287.752 192.45 286.582 192.13 285.482 191.49C284.382 190.87 283.492 189.96 282.812 188.76C282.132 187.54 281.792 186.11 281.792 184.47V182.1C281.792 180.46 282.132 179.04 282.812 177.84C283.492 176.64 284.382 175.72 285.482 175.08C286.582 174.44 287.752 174.12 288.992 174.12C290.292 174.12 291.472 174.4 292.532 174.96C293.592 175.5 294.452 176.29 295.112 177.33L295.232 174.57ZM289.562 190.47C290.602 190.47 291.542 190.23 292.382 189.75C293.222 189.27 293.882 188.58 294.362 187.68C294.842 186.76 295.082 185.67 295.082 184.41V182.19C295.082 180.93 294.832 179.85 294.332 178.95C293.852 178.03 293.192 177.33 292.352 176.85C291.532 176.37 290.602 176.13 289.562 176.13C288.502 176.13 287.552 176.37 286.712 176.85C285.872 177.31 285.202 178 284.702 178.92C284.222 179.84 283.982 180.93 283.982 182.19V184.41C283.982 185.67 284.222 186.76 284.702 187.68C285.202 188.58 285.872 189.27 286.712 189.75C287.552 190.23 288.502 190.47 289.562 190.47ZM314.082 174.57H316.242V191.91H314.262L314.112 189.18C313.552 190.16 312.762 190.93 311.742 191.49C310.722 192.07 309.562 192.36 308.262 192.36C306.242 192.36 304.642 191.7 303.462 190.38C302.282 189.08 301.692 187.35 301.692 185.19V174.57H303.882V185.07C303.882 186.75 304.282 188.06 305.082 189C305.902 189.92 307.112 190.38 308.712 190.38C309.752 190.38 310.672 190.15 311.472 189.69C312.292 189.23 312.932 188.59 313.392 187.77C313.852 186.95 314.082 186.02 314.082 184.98V174.57ZM327.816 174.12C329.156 174.12 330.336 174.39 331.356 174.93C332.376 175.45 333.166 176.22 333.726 177.24C334.306 178.24 334.596 179.43 334.596 180.81V191.91H332.646L332.496 189.51C331.996 190.39 331.276 191.08 330.336 191.58C329.416 192.1 328.346 192.36 327.126 192.36H325.956C324.856 192.36 323.866 192.13 322.986 191.67C322.126 191.21 321.446 190.57 320.946 189.75C320.466 188.93 320.226 188.01 320.226 186.99C320.226 185.39 320.816 184.11 321.996 183.15C323.196 182.19 324.856 181.71 326.976 181.71H332.436V180.96C332.436 179.46 332.026 178.28 331.206 177.42C330.386 176.56 329.206 176.13 327.666 176.13C326.566 176.13 325.606 176.37 324.786 176.85C323.986 177.33 323.356 178 322.896 178.86L320.946 177.96C321.546 176.8 322.456 175.87 323.676 175.17C324.896 174.47 326.276 174.12 327.816 174.12ZM327.426 190.35C328.686 190.35 329.796 189.99 330.756 189.27C331.736 188.57 332.296 187.64 332.436 186.48V183.66H327.126C325.526 183.66 324.336 183.96 323.556 184.56C322.776 185.16 322.386 185.97 322.386 186.99C322.386 188.03 322.736 188.85 323.436 189.45C324.156 190.05 325.116 190.35 326.316 190.35H327.426ZM345.597 174.12C346.477 174.12 347.247 174.24 347.907 174.48L347.397 176.43C346.597 176.23 345.887 176.13 345.267 176.13C344.467 176.13 343.757 176.38 343.137 176.88C342.517 177.38 342.037 178.05 341.697 178.89C341.357 179.73 341.187 180.64 341.187 181.62V191.91H338.997V174.57H341.007L341.127 177.3C341.587 176.32 342.197 175.55 342.957 174.99C343.717 174.41 344.597 174.12 345.597 174.12ZM364.801 184.02H351.481V184.26C351.481 185.54 351.741 186.65 352.261 187.59C352.781 188.51 353.471 189.21 354.331 189.69C355.211 190.17 356.161 190.41 357.181 190.41C358.361 190.41 359.441 190.11 360.421 189.51C361.421 188.91 362.131 188.06 362.551 186.96L364.561 187.65C364.021 189.17 363.071 190.33 361.711 191.13C360.351 191.95 358.841 192.36 357.181 192.36C355.781 192.36 354.481 192.05 353.281 191.43C352.101 190.81 351.151 189.9 350.431 188.7C349.711 187.48 349.351 186.03 349.351 184.35V182.13C349.351 180.45 349.701 179.01 350.401 177.81C351.101 176.59 352.031 175.67 353.191 175.05C354.371 174.43 355.661 174.12 357.061 174.12C358.501 174.12 359.801 174.44 360.961 175.08C362.141 175.7 363.071 176.64 363.751 177.9C364.451 179.14 364.801 180.64 364.801 182.4V184.02ZM357.061 176.07C356.021 176.07 355.081 176.31 354.241 176.79C353.421 177.25 352.761 177.94 352.261 178.86C351.761 179.76 351.501 180.84 351.481 182.1H362.641C362.641 180.24 362.121 178.77 361.081 177.69C360.061 176.61 358.721 176.07 357.061 176.07ZM378.394 191.91H376.234V167.79H378.304L392.314 188.1V167.79H394.474V191.91H392.434L378.394 171.57V191.91ZM413.961 184.02H400.641V184.26C400.641 185.54 400.901 186.65 401.421 187.59C401.941 188.51 402.631 189.21 403.491 189.69C404.371 190.17 405.321 190.41 406.341 190.41C407.521 190.41 408.601 190.11 409.581 189.51C410.581 188.91 411.291 188.06 411.711 186.96L413.721 187.65C413.181 189.17 412.231 190.33 410.871 191.13C409.511 191.95 408.001 192.36 406.341 192.36C404.941 192.36 403.641 192.05 402.441 191.43C401.261 190.81 400.311 189.9 399.591 188.7C398.871 187.48 398.511 186.03 398.511 184.35V182.13C398.511 180.45 398.861 179.01 399.561 177.81C400.261 176.59 401.191 175.67 402.351 175.05C403.531 174.43 404.821 174.12 406.221 174.12C407.661 174.12 408.961 174.44 410.121 175.08C411.301 175.7 412.231 176.64 412.911 177.9C413.611 179.14 413.961 180.64 413.961 182.4V184.02ZM406.221 176.07C405.181 176.07 404.241 176.31 403.401 176.79C402.581 177.25 401.921 177.94 401.421 178.86C400.921 179.76 400.661 180.84 400.641 182.1H411.801C411.801 180.24 411.281 178.77 410.241 177.69C409.221 176.61 407.881 176.07 406.221 176.07ZM425.209 192.36C423.809 192.36 422.509 192.05 421.309 191.43C420.109 190.83 419.149 189.94 418.429 188.76C417.709 187.56 417.349 186.14 417.349 184.5V181.95C417.349 180.31 417.709 178.9 418.429 177.72C419.149 176.54 420.109 175.65 421.309 175.05C422.509 174.43 423.809 174.12 425.209 174.12C426.629 174.12 427.939 174.43 429.139 175.05C430.339 175.65 431.299 176.54 432.019 177.72C432.739 178.9 433.099 180.31 433.099 181.95V184.5C433.099 186.14 432.739 187.56 432.019 188.76C431.299 189.94 430.339 190.83 429.139 191.43C427.939 192.05 426.629 192.36 425.209 192.36ZM425.209 190.38C426.249 190.38 427.199 190.14 428.059 189.66C428.939 189.2 429.639 188.52 430.159 187.62C430.679 186.7 430.939 185.63 430.939 184.41V182.07C430.939 180.85 430.679 179.79 430.159 178.89C429.639 177.99 428.939 177.31 428.059 176.85C427.199 176.37 426.249 176.13 425.209 176.13C424.169 176.13 423.219 176.37 422.359 176.85C421.499 177.31 420.809 177.99 420.289 178.89C419.789 179.77 419.539 180.83 419.539 182.07V184.41C419.539 185.63 419.789 186.7 420.289 187.62C420.809 188.52 421.499 189.2 422.359 189.66C423.219 190.14 424.169 190.38 425.209 190.38Z" fill="black"/>
</svg>
