<svg width="580" height="260" viewBox="0 0 580 260" fill="none" xmlns="http://www.w3.org/2000/svg">
<rect width="580" height="260" fill="white"/>
<path d="M170.233 141.962C180.628 141.962 190.078 138.308 190.078 128.354C190.078 120.983 184.471 114.683 170.233 114.683C155.995 114.683 150.388 120.983 150.388 128.354C150.388 138.308 159.838 141.962 170.233 141.962ZM135.268 112.037H146.419C146.419 101.264 146.86 95.972 149.191 95.972C151.711 95.972 151.963 101.264 151.963 112.037H163.114C163.114 101.579 160.342 95.153 155.302 92.507V87.593C155.302 84.758 152.152 83.309 149.191 83.309C146.23 83.309 143.08 84.758 143.08 87.593V92.507C138.04 95.09 135.268 101.516 135.268 112.037ZM163.555 128.417C163.555 123.251 165.445 119.345 170.233 119.345C174.895 119.345 176.911 123.377 176.911 128.417C176.911 133.394 175.021 137.363 170.233 137.363C165.445 137.363 163.555 133.394 163.555 128.417ZM164.752 112.352H176.155V99.878H179.872V113.927H191.401V86.27C191.401 83.561 188.44 82.238 185.605 82.238C183.085 82.238 179.872 83.435 179.872 86.27V94.838H176.155V86.207C176.155 83.498 173.131 82.238 170.422 82.238C167.587 82.238 164.752 83.561 164.752 86.207V112.352ZM202.552 128.291H216.664C216.664 114.116 223.216 104.981 235.123 101.012V84.758H200.284V89.798H221.704V99.563C210.112 104.351 202.552 113.486 202.552 128.291ZM230.083 110.273H240.289V137.867H253.708V86.9C253.708 83.813 250.18 82.238 246.967 82.238C243.439 82.238 240.289 83.876 240.289 86.9V105.233H230.083V110.273ZM293.272 140.513C303.289 140.513 311.353 139.694 317.59 138.497V133.331C310.408 134.654 303.289 135.347 296.737 135.347C289.744 135.347 287.791 133.709 287.791 125.897V119.66H273.742V126.716C273.742 136.733 278.719 140.513 293.272 140.513ZM261.898 115.754H276.01C276.01 105.233 277.081 97.169 281.05 97.169C285.208 97.169 286.216 105.17 286.216 115.754H300.202C300.202 101.39 293.083 92.318 280.987 92.318C269.017 92.318 261.898 101.327 261.898 115.754ZM263.158 89.798H298.06V84.758H263.158V89.798ZM303.352 122.117H316.771V86.9C316.771 83.813 313.243 82.238 310.03 82.238C306.502 82.238 303.352 83.876 303.352 86.9V122.117ZM356.272 140.513C366.289 140.513 374.353 139.757 380.59 138.686V133.52C373.408 134.654 366.289 135.347 359.737 135.347C352.744 135.347 350.791 133.646 350.791 125.897V121.235H336.742V126.716C336.742 136.733 341.719 140.513 356.272 140.513ZM324.835 117.077H338.947C338.947 108.383 340.081 101.012 343.924 101.012C347.767 101.012 349.027 107.627 349.027 117.077H363.013C363.013 104.288 355.642 96.161 343.861 96.161C331.954 96.161 324.835 104.414 324.835 117.077ZM326.158 94.082H361.69V89.042H350.602V85.703C350.602 82.616 347.074 81.041 343.924 81.041C340.396 81.041 337.246 82.679 337.246 85.703V89.042H326.158V94.082ZM359.863 103.028H366.352V123.377H379.771V86.9C379.771 83.813 376.243 82.238 373.03 82.238C369.502 82.238 366.352 83.876 366.352 86.9V97.988H359.863V103.028ZM417.319 137.552H428.722V86.207C428.722 83.498 425.698 82.238 423.178 82.238C420.154 82.238 417.319 83.561 417.319 86.207V100.067H412.531V105.107H417.319V137.552ZM387.268 127.787H398.545C398.545 112.1 398.545 100.508 401.128 100.508C403.648 100.508 403.648 112.1 403.648 127.787H414.736C414.736 108.635 412.405 95.72 401.065 95.72C390.292 95.72 387.268 108.635 387.268 127.787ZM388.276 93.2H413.728V88.16H406.672V85.64C406.672 82.553 404.089 80.978 401.065 80.978C397.6 80.978 395.395 82.616 395.395 85.64V88.16H388.276V93.2ZM431.872 137.867H443.401V86.27C443.401 83.561 440.44 82.238 437.857 82.238C435.085 82.238 431.872 83.435 431.872 86.27V137.867Z" fill="black"/>
<path d="M105.185 177.346C104.777 177.244 104.505 177.142 104.403 177.074C103.417 176.598 102.669 175.85 102.159 174.864C101.717 174.048 101.513 173.164 101.513 172.212V171.872C101.547 170.988 101.683 170.206 101.887 169.526C102.091 168.846 102.363 168.268 102.635 167.86C102.907 167.452 103.247 167.112 103.621 166.806C104.029 166.5 104.369 166.296 104.641 166.16C104.947 166.024 105.253 165.956 105.593 165.888C105.933 165.82 106.137 165.786 106.239 165.786C106.375 165.786 106.443 165.786 106.511 165.786H106.783C106.987 165.786 107.259 165.82 107.531 165.888C107.837 165.956 108.177 166.092 108.517 166.228C108.891 166.364 109.265 166.602 109.605 166.942C109.945 167.282 110.285 167.656 110.591 168.132C110.897 168.608 111.135 169.22 111.305 170.002C111.509 170.784 111.577 171.668 111.577 172.654H117.085C117.051 171.498 116.813 170.478 116.405 169.56C115.997 168.676 115.487 167.928 114.909 167.384C114.297 166.84 113.617 166.398 112.801 165.99C111.985 165.582 111.271 165.31 110.625 165.14C109.979 165.004 109.299 164.868 108.585 164.766C107.837 164.698 107.361 164.63 107.123 164.63H106.545C104.981 164.596 103.417 164.834 101.785 165.378C97.9773 166.636 96.0393 169.152 96.0053 172.96C95.9713 174.388 96.2093 175.544 96.7193 176.496C97.1953 177.448 98.1133 178.298 99.4733 179.046C100.799 179.828 102.669 180.542 105.117 181.222C107.157 181.698 108.857 182.616 110.217 183.942C111.577 185.268 112.223 186.696 112.155 188.192V188.26V188.396C112.087 189.28 111.951 190.062 111.713 190.742C111.475 191.456 111.203 192.034 110.897 192.442C110.557 192.85 110.183 193.224 109.775 193.53C109.367 193.836 108.993 194.04 108.653 194.176C108.313 194.312 107.939 194.38 107.599 194.448C107.225 194.516 106.987 194.55 106.851 194.55H106.545C105.933 194.584 105.287 194.482 104.607 194.21C102.159 193.326 100.935 191.15 100.935 187.682L94.8153 187.988C94.8153 189.178 95.0193 190.232 95.4613 191.184C95.9033 192.136 96.4473 192.918 97.1273 193.462C97.7733 194.006 98.5553 194.482 99.4393 194.89C100.323 195.298 101.139 195.604 101.887 195.774C102.635 195.978 103.417 196.114 104.233 196.182C105.049 196.25 105.593 196.318 105.865 196.318C106.137 196.318 106.375 196.318 106.545 196.284H107.191C107.599 196.284 108.177 196.25 108.857 196.148C109.537 196.08 110.319 195.944 111.169 195.774C111.985 195.604 112.835 195.298 113.651 194.89C114.467 194.482 115.249 194.006 115.929 193.462C116.609 192.918 117.187 192.136 117.629 191.184C118.037 190.232 118.275 189.178 118.275 187.988C118.275 187.104 118.139 186.288 117.901 185.54C117.663 184.792 117.391 184.112 117.051 183.568C116.711 183.024 116.201 182.48 115.521 181.936C114.841 181.392 114.229 180.984 113.719 180.644C113.175 180.338 112.427 179.998 111.475 179.59C110.489 179.182 109.707 178.876 109.129 178.672C108.551 178.468 107.701 178.196 106.613 177.822C105.967 177.618 105.491 177.482 105.185 177.346ZM134.644 186.968V192.918L134.168 193.326C133.828 193.598 133.352 193.904 132.74 194.21C132.128 194.516 131.516 194.686 130.904 194.72C130.768 194.754 130.632 194.754 130.496 194.754H130.19C130.156 194.754 129.986 194.754 129.68 194.686C129.34 194.618 129.102 194.55 128.932 194.448C128.728 194.346 128.49 194.176 128.184 193.938C127.844 193.7 127.606 193.394 127.436 193.054C127.232 192.714 127.062 192.238 126.926 191.66C126.79 191.116 126.688 190.47 126.688 189.722V189.654V189.552V189.416C126.688 187.546 127.164 186.152 128.116 185.268C128.252 185.132 128.456 184.962 128.694 184.826C129.306 184.452 129.884 184.282 130.496 184.316C132.094 184.452 133.488 185.336 134.644 186.968ZM128.66 182.65C127.844 182.786 127.028 183.024 126.28 183.296C125.702 183.534 125.158 183.806 124.648 184.146C124.41 184.282 124.206 184.452 124.002 184.588C123.73 184.792 123.458 185.03 123.254 185.268C122.03 186.526 121.418 187.954 121.418 189.552C121.418 190.606 121.69 191.592 122.268 192.544C122.812 193.496 123.628 194.312 124.648 194.924C126.28 196.012 128.252 196.556 130.496 196.556C131.958 196.556 133.318 196.318 134.61 195.808V196.318H140.22V184.18C140.152 183.092 139.846 182.038 139.37 181.018C138.826 179.998 138.146 179.114 137.262 178.366C135.494 176.904 133.42 176.156 131.04 176.156C128.626 176.156 126.552 176.904 124.818 178.366C124.002 179.046 123.322 179.862 122.812 180.814H126.926C127.198 180.304 127.504 179.862 127.878 179.488C128.252 179.148 128.592 178.876 128.932 178.706C129.272 178.57 129.612 178.434 129.986 178.366C130.326 178.298 130.598 178.23 130.734 178.23C130.87 178.23 130.972 178.23 131.04 178.264H131.38C131.584 178.264 131.822 178.332 132.162 178.502C132.468 178.672 132.774 178.91 133.114 179.216C133.454 179.488 133.76 179.998 134.032 180.712C134.304 181.426 134.474 182.276 134.576 183.262C133.284 182.786 131.924 182.548 130.496 182.548C129.884 182.548 129.272 182.582 128.66 182.65ZM151.53 185.982C151.53 184.894 151.632 183.942 151.836 183.058C152.006 182.174 152.21 181.494 152.448 180.95C152.686 180.406 152.958 179.964 153.298 179.59C153.638 179.216 153.91 178.944 154.182 178.774C154.454 178.638 154.726 178.502 155.032 178.434C155.304 178.366 155.508 178.298 155.61 178.298H155.848C156.188 178.298 156.596 178.366 157.072 178.536C159.044 179.42 160.064 181.902 160.166 185.982H151.53ZM166.66 185.982C166.592 184.826 166.286 183.704 165.776 182.616C165.164 181.392 164.382 180.338 163.396 179.42C161.288 177.55 158.772 176.598 155.848 176.598C152.924 176.598 150.408 177.55 148.334 179.42C147.314 180.338 146.498 181.392 145.92 182.616C145.308 183.908 145.036 185.234 145.036 186.628C145.036 188.056 145.308 189.416 145.92 190.674C146.498 191.898 147.314 192.986 148.334 193.87C150.408 195.74 152.924 196.658 155.848 196.658C158.772 196.658 161.288 195.74 163.396 193.87C164.348 192.986 165.13 191.966 165.708 190.81H159.758C159.554 191.626 159.248 192.34 158.908 192.952C158.568 193.564 158.228 193.972 157.922 194.21C157.582 194.482 157.242 194.652 156.902 194.788C156.528 194.924 156.29 194.992 156.154 194.992H155.848C155.508 195.026 155.1 194.924 154.658 194.72C152.686 193.87 151.632 191.422 151.53 187.376H166.66C166.66 187.206 166.694 187.002 166.694 186.798V186.628V186.492C166.694 186.356 166.66 186.186 166.66 185.982ZM176.859 185.812C176.859 184.724 176.927 183.772 177.063 182.922C177.199 182.072 177.335 181.392 177.539 180.882C177.743 180.372 177.981 179.93 178.253 179.556C178.525 179.182 178.763 178.91 179.001 178.74C179.205 178.604 179.443 178.468 179.681 178.4C179.919 178.332 180.089 178.298 180.191 178.298C180.259 178.298 180.327 178.298 180.395 178.332L180.599 178.298C180.701 178.298 180.871 178.332 181.075 178.4C181.279 178.468 181.483 178.604 181.755 178.74C181.993 178.876 182.231 179.148 182.469 179.488C182.741 179.862 182.945 180.304 183.149 180.78C183.353 181.256 183.523 181.902 183.659 182.718C183.795 183.534 183.897 184.452 183.897 185.472V185.812V196.284H189.507V185.812C189.507 183.092 188.657 180.882 186.957 179.216C185.393 177.686 183.387 176.904 180.939 176.904C179.443 176.904 178.083 177.244 176.825 177.89V176.972H171.249V196.216H176.825L176.859 185.812ZM205.4 195.196H205.264H205.162C205.026 195.23 204.924 195.23 204.788 195.23C204.652 195.23 204.38 195.162 204.006 195.094C203.632 194.992 203.292 194.856 202.952 194.686C202.612 194.482 202.272 194.21 201.864 193.802C201.456 193.394 201.116 192.884 200.844 192.306C200.572 191.728 200.334 190.98 200.13 190.062C199.926 189.11 199.824 188.056 199.824 186.9C199.824 185.71 199.926 184.656 200.13 183.704C200.334 182.752 200.572 182.004 200.878 181.426C201.15 180.848 201.524 180.372 201.932 179.964C202.34 179.556 202.714 179.284 203.054 179.08C203.394 178.91 203.734 178.774 204.108 178.706C204.482 178.638 204.72 178.57 204.856 178.57C204.992 178.57 205.094 178.57 205.162 178.604C205.23 178.604 205.366 178.57 205.57 178.57C205.74 178.536 206.046 178.57 206.454 178.638C206.862 178.706 207.27 178.808 207.678 178.91C208.086 179.012 208.528 179.216 209.072 179.488C209.582 179.76 210.058 180.134 210.5 180.542V192.612L210.262 192.85C208.766 194.414 207.134 195.196 205.4 195.196ZM204.89 209.136H204.584C204.38 209.136 204.108 209.068 203.768 209C203.428 208.898 203.088 208.762 202.68 208.592C202.272 208.422 201.864 208.15 201.456 207.742C201.048 207.334 200.708 206.824 200.368 206.28C200.028 205.702 199.756 204.954 199.552 204.002C199.348 203.05 199.246 201.996 199.246 200.806H194.112C194.112 202.2 194.316 203.458 194.724 204.58C195.132 205.702 195.642 206.62 196.254 207.3C196.866 207.98 197.614 208.558 198.43 209.034C199.28 209.51 200.062 209.85 200.742 210.054C201.422 210.258 202.17 210.394 202.918 210.496C203.666 210.598 204.176 210.666 204.448 210.666C204.72 210.666 204.924 210.666 205.06 210.632H205.672C206.08 210.666 206.624 210.632 207.27 210.53C207.916 210.394 208.63 210.258 209.412 210.054C210.194 209.85 210.976 209.476 211.758 209C212.54 208.524 213.254 207.946 213.9 207.266C214.546 206.586 215.056 205.702 215.464 204.58C215.872 203.458 216.042 202.2 216.042 200.806V177.04H210.466V178.264C209.65 177.856 208.698 177.55 207.678 177.346C206.658 177.142 205.944 177.04 205.57 177.04C205.196 177.04 204.89 177.04 204.652 177.04H204.04C203.632 177.04 203.122 177.074 202.476 177.21C201.83 177.312 201.116 177.448 200.334 177.652C199.586 177.856 198.804 178.196 198.022 178.672C197.24 179.148 196.526 179.726 195.88 180.406C195.234 181.086 194.69 181.97 194.282 183.092C193.874 184.214 193.67 185.472 193.67 186.9C193.67 188.328 193.908 189.586 194.316 190.708C194.724 191.83 195.234 192.714 195.846 193.394C196.458 194.074 197.172 194.652 198.022 195.128C198.872 195.604 199.654 195.944 200.334 196.148C201.014 196.352 201.762 196.522 202.51 196.624C203.258 196.726 203.768 196.794 204.04 196.794H204.652H205.468C206.012 196.76 206.794 196.658 207.746 196.454C208.732 196.25 209.65 195.944 210.466 195.536V200.568C210.466 201.758 210.364 202.812 210.16 203.764C209.956 204.716 209.684 205.498 209.378 206.076C209.072 206.654 208.698 207.164 208.256 207.572C207.848 208.014 207.44 208.32 207.1 208.49C206.76 208.694 206.386 208.83 205.978 208.932C205.57 209.034 205.298 209.102 205.162 209.102C205.026 209.102 204.958 209.136 204.89 209.136ZM231.663 195.196H231.527H231.425C231.289 195.23 231.187 195.23 231.051 195.23C230.915 195.23 230.643 195.162 230.269 195.094C229.895 194.992 229.555 194.856 229.215 194.686C228.875 194.482 228.535 194.21 228.127 193.802C227.719 193.394 227.379 192.884 227.107 192.306C226.835 191.728 226.597 190.98 226.393 190.062C226.189 189.11 226.087 188.056 226.087 186.9C226.087 185.71 226.189 184.656 226.393 183.704C226.597 182.752 226.835 182.004 227.141 181.426C227.413 180.848 227.787 180.372 228.195 179.964C228.603 179.556 228.977 179.284 229.317 179.08C229.657 178.91 229.997 178.774 230.371 178.706C230.745 178.638 230.983 178.57 231.119 178.57C231.255 178.57 231.357 178.57 231.425 178.604C231.493 178.604 231.629 178.57 231.833 178.57C232.003 178.536 232.309 178.57 232.717 178.638C233.125 178.706 233.533 178.808 233.941 178.91C234.349 179.012 234.791 179.216 235.335 179.488C235.845 179.76 236.321 180.134 236.763 180.542V192.612L236.525 192.85C235.029 194.414 233.397 195.196 231.663 195.196ZM231.153 209.136H230.847C230.643 209.136 230.371 209.068 230.031 209C229.691 208.898 229.351 208.762 228.943 208.592C228.535 208.422 228.127 208.15 227.719 207.742C227.311 207.334 226.971 206.824 226.631 206.28C226.291 205.702 226.019 204.954 225.815 204.002C225.611 203.05 225.509 201.996 225.509 200.806H220.375C220.375 202.2 220.579 203.458 220.987 204.58C221.395 205.702 221.905 206.62 222.517 207.3C223.129 207.98 223.877 208.558 224.693 209.034C225.543 209.51 226.325 209.85 227.005 210.054C227.685 210.258 228.433 210.394 229.181 210.496C229.929 210.598 230.439 210.666 230.711 210.666C230.983 210.666 231.187 210.666 231.323 210.632H231.935C232.343 210.666 232.887 210.632 233.533 210.53C234.179 210.394 234.893 210.258 235.675 210.054C236.457 209.85 237.239 209.476 238.021 209C238.803 208.524 239.517 207.946 240.163 207.266C240.809 206.586 241.319 205.702 241.727 204.58C242.135 203.458 242.305 202.2 242.305 200.806V177.04H236.729V178.264C235.913 177.856 234.961 177.55 233.941 177.346C232.921 177.142 232.207 177.04 231.833 177.04C231.459 177.04 231.153 177.04 230.915 177.04H230.303C229.895 177.04 229.385 177.074 228.739 177.21C228.093 177.312 227.379 177.448 226.597 177.652C225.849 177.856 225.067 178.196 224.285 178.672C223.503 179.148 222.789 179.726 222.143 180.406C221.497 181.086 220.953 181.97 220.545 183.092C220.137 184.214 219.933 185.472 219.933 186.9C219.933 188.328 220.171 189.586 220.579 190.708C220.987 191.83 221.497 192.714 222.109 193.394C222.721 194.074 223.435 194.652 224.285 195.128C225.135 195.604 225.917 195.944 226.597 196.148C227.277 196.352 228.025 196.522 228.773 196.624C229.521 196.726 230.031 196.794 230.303 196.794H230.915H231.731C232.275 196.76 233.057 196.658 234.009 196.454C234.995 196.25 235.913 195.944 236.729 195.536V200.568C236.729 201.758 236.627 202.812 236.423 203.764C236.219 204.716 235.947 205.498 235.641 206.076C235.335 206.654 234.961 207.164 234.519 207.572C234.111 208.014 233.703 208.32 233.363 208.49C233.023 208.694 232.649 208.83 232.241 208.932C231.833 209.034 231.561 209.102 231.425 209.102C231.289 209.102 231.221 209.136 231.153 209.136ZM253.065 185.982C253.065 184.894 253.167 183.942 253.371 183.058C253.541 182.174 253.745 181.494 253.983 180.95C254.221 180.406 254.493 179.964 254.833 179.59C255.173 179.216 255.445 178.944 255.717 178.774C255.989 178.638 256.261 178.502 256.567 178.434C256.839 178.366 257.043 178.298 257.145 178.298H257.383C257.723 178.298 258.131 178.366 258.607 178.536C260.579 179.42 261.599 181.902 261.701 185.982H253.065ZM268.195 185.982C268.127 184.826 267.821 183.704 267.311 182.616C266.699 181.392 265.917 180.338 264.931 179.42C262.823 177.55 260.307 176.598 257.383 176.598C254.459 176.598 251.943 177.55 249.869 179.42C248.849 180.338 248.033 181.392 247.455 182.616C246.843 183.908 246.571 185.234 246.571 186.628C246.571 188.056 246.843 189.416 247.455 190.674C248.033 191.898 248.849 192.986 249.869 193.87C251.943 195.74 254.459 196.658 257.383 196.658C260.307 196.658 262.823 195.74 264.931 193.87C265.883 192.986 266.665 191.966 267.243 190.81H261.293C261.089 191.626 260.783 192.34 260.443 192.952C260.103 193.564 259.763 193.972 259.457 194.21C259.117 194.482 258.777 194.652 258.437 194.788C258.063 194.924 257.825 194.992 257.689 194.992H257.383C257.043 195.026 256.635 194.924 256.193 194.72C254.221 193.87 253.167 191.422 253.065 187.376H268.195C268.195 187.206 268.229 187.002 268.229 186.798V186.628V186.492C268.229 186.356 268.195 186.186 268.195 185.982ZM287.03 190.912C286.792 191.728 286.486 192.442 286.112 193.054C285.738 193.666 285.398 194.074 285.058 194.312C284.718 194.584 284.378 194.754 284.004 194.89C283.596 195.026 283.358 195.094 283.222 195.094H282.882H282.644C282.44 195.094 282.236 195.06 281.964 194.958C281.692 194.89 281.386 194.754 281.08 194.584C280.74 194.414 280.434 194.108 280.094 193.7C279.754 193.292 279.482 192.816 279.21 192.238C278.938 191.694 278.7 190.912 278.53 189.96C278.36 189.008 278.292 187.954 278.292 186.764C278.292 185.574 278.36 184.486 278.53 183.534C278.7 182.582 278.904 181.834 279.176 181.256C279.448 180.712 279.754 180.202 280.094 179.794C280.434 179.386 280.774 179.114 281.08 178.944C281.352 178.774 281.658 178.638 281.998 178.536C282.304 178.468 282.508 178.4 282.61 178.4H282.882H283.188C283.392 178.4 283.664 178.468 284.004 178.604C284.344 178.74 284.684 178.944 285.058 179.182C285.398 179.454 285.772 179.862 286.146 180.44C286.486 181.052 286.792 181.766 287.03 182.582C287.302 183.772 287.472 185.166 287.472 186.764C287.472 188.362 287.302 189.756 287.03 190.912ZM293.014 182.582C292.402 181.392 291.586 180.372 290.566 179.488C288.39 177.652 285.84 176.7 282.882 176.7C279.89 176.7 277.34 177.652 275.198 179.488C274.144 180.372 273.328 181.426 272.716 182.65C272.07 183.942 271.764 185.302 271.764 186.73C271.764 188.192 272.07 189.552 272.716 190.81C273.328 192.068 274.144 193.122 275.198 194.006C277.34 195.842 279.89 196.76 282.882 196.76C285.874 196.76 288.424 195.842 290.566 194.006C291.586 193.156 292.402 192.136 293.014 190.946L293.048 190.844C293.66 189.552 294 188.226 294 186.798C294 185.336 293.66 183.976 293.048 182.684C293.014 182.65 293.014 182.616 293.014 182.582ZM311.06 196.08C312.25 196.624 313.508 196.896 314.834 196.896C316.194 196.896 317.452 196.624 318.642 196.08C319.832 195.536 320.852 194.788 321.702 193.836C323.538 191.864 324.456 189.518 324.456 186.73V165.004H318.88V186.73C318.88 187.954 318.812 189.042 318.676 189.994C318.54 190.946 318.336 191.728 318.098 192.306C317.894 192.884 317.622 193.36 317.282 193.768C316.976 194.176 316.704 194.482 316.432 194.652C316.194 194.856 315.922 194.992 315.65 195.06C315.378 195.128 315.174 195.196 315.072 195.196C314.97 195.196 314.902 195.196 314.868 195.162L314.63 195.196C314.494 195.196 314.29 195.162 314.052 195.06C313.814 194.958 313.542 194.822 313.27 194.652C312.964 194.482 312.658 194.176 312.386 193.768C312.114 193.36 311.842 192.884 311.604 192.306C311.366 191.728 311.162 190.946 311.026 189.994C310.89 189.042 310.822 187.954 310.822 186.73H305.212C305.212 189.518 306.13 191.864 307.966 193.836C308.85 194.788 309.87 195.536 311.06 196.08ZM331.733 172.11C332.685 172.178 333.535 171.872 334.283 171.226C334.997 170.58 335.371 169.764 335.439 168.778C335.507 167.826 335.201 166.976 334.555 166.228C333.909 165.514 333.093 165.14 332.141 165.072C331.155 165.004 330.305 165.31 329.591 165.956C328.843 166.602 328.469 167.418 328.401 168.37C328.333 169.356 328.639 170.206 329.285 170.954C329.931 171.702 330.747 172.076 331.733 172.11ZM329.149 196.318H334.725V177.04H329.149V196.318ZM345.265 185.812C345.265 184.724 345.333 183.772 345.469 182.922C345.605 182.072 345.741 181.392 345.945 180.882C346.149 180.372 346.387 179.93 346.659 179.556C346.931 179.182 347.169 178.91 347.407 178.74C347.611 178.604 347.849 178.468 348.087 178.4C348.325 178.332 348.495 178.298 348.597 178.298C348.665 178.298 348.733 178.298 348.801 178.332L349.005 178.298C349.107 178.298 349.277 178.332 349.481 178.4C349.685 178.468 349.889 178.604 350.161 178.74C350.399 178.876 350.637 179.148 350.875 179.488C351.147 179.862 351.351 180.304 351.555 180.78C351.759 181.256 351.929 181.902 352.065 182.718C352.201 183.534 352.303 184.452 352.303 185.472V185.812V196.284H357.913V185.812C357.913 183.092 357.063 180.882 355.363 179.216C353.799 177.686 351.793 176.904 349.345 176.904C347.849 176.904 346.489 177.244 345.231 177.89V176.972H339.655V196.216H345.231L345.265 185.812ZM373.024 178.4H373.33C373.534 178.4 373.806 178.468 374.146 178.604C374.486 178.74 374.826 178.944 375.2 179.182C375.54 179.454 375.914 179.862 376.288 180.44C376.628 181.052 376.934 181.766 377.172 182.582H383.156C382.544 181.392 381.728 180.372 380.708 179.488C378.566 177.652 376.016 176.7 373.024 176.7C370.032 176.7 367.482 177.652 365.34 179.488C364.286 180.372 363.47 181.426 362.858 182.65C362.212 183.942 361.906 185.302 361.906 186.73C361.906 188.192 362.212 189.552 362.858 190.81C363.47 192.068 364.286 193.122 365.34 194.006C367.482 195.842 370.032 196.76 373.024 196.76C376.016 196.76 378.566 195.842 380.708 194.006C381.728 193.156 382.544 192.136 383.156 190.946H377.172C376.934 191.762 376.628 192.442 376.254 193.054C375.88 193.666 375.54 194.074 375.2 194.346C374.86 194.584 374.52 194.788 374.146 194.924C373.738 195.06 373.5 195.128 373.364 195.128H373.024H372.786C372.582 195.128 372.378 195.06 372.106 194.992C371.834 194.89 371.562 194.754 371.222 194.584C370.882 194.414 370.576 194.142 370.236 193.734C369.896 193.326 369.624 192.816 369.352 192.272C369.08 191.694 368.842 190.946 368.672 189.994C368.502 189.042 368.434 187.954 368.434 186.764C368.434 185.574 368.502 184.52 368.672 183.568C368.842 182.616 369.046 181.834 369.318 181.29C369.59 180.712 369.896 180.236 370.236 179.828C370.576 179.42 370.916 179.114 371.222 178.944C371.494 178.774 371.8 178.638 372.14 178.57C372.446 178.468 372.65 178.434 372.752 178.434L373.024 178.4ZM398.197 177.006H397.381C396.837 177.006 396.055 177.108 395.103 177.312C394.151 177.516 393.233 177.822 392.417 178.196V165.038H386.807V196.284H392.417V192.544V180.508C393.063 179.896 393.811 179.454 394.661 179.114C395.545 178.774 396.191 178.604 396.599 178.57C397.007 178.57 397.381 178.536 397.653 178.536C397.823 178.536 397.993 178.57 398.163 178.57C398.367 178.604 398.639 178.672 398.979 178.808C399.319 178.944 399.659 179.08 399.965 179.284C400.305 179.488 400.645 179.828 400.985 180.236C401.325 180.644 401.631 181.154 401.903 181.698C402.175 182.276 402.379 183.024 402.515 183.908C402.685 184.792 402.753 185.778 402.753 186.866V196.284H409.145V186.866C409.145 185.472 408.941 184.214 408.533 183.092C408.125 181.97 407.615 181.086 407.003 180.406C406.391 179.726 405.677 179.148 404.827 178.672C404.011 178.196 403.229 177.822 402.549 177.618C401.869 177.414 401.121 177.278 400.339 177.176C399.591 177.074 399.081 177.006 398.809 177.006H398.197ZM420.21 185.982C420.21 184.894 420.312 183.942 420.516 183.058C420.686 182.174 420.89 181.494 421.128 180.95C421.366 180.406 421.638 179.964 421.978 179.59C422.318 179.216 422.59 178.944 422.862 178.774C423.134 178.638 423.406 178.502 423.712 178.434C423.984 178.366 424.188 178.298 424.29 178.298H424.528C424.868 178.298 425.276 178.366 425.752 178.536C427.724 179.42 428.744 181.902 428.846 185.982H420.21ZM435.34 185.982C435.272 184.826 434.966 183.704 434.456 182.616C433.844 181.392 433.062 180.338 432.076 179.42C429.968 177.55 427.452 176.598 424.528 176.598C421.604 176.598 419.088 177.55 417.014 179.42C415.994 180.338 415.178 181.392 414.6 182.616C413.988 183.908 413.716 185.234 413.716 186.628C413.716 188.056 413.988 189.416 414.6 190.674C415.178 191.898 415.994 192.986 417.014 193.87C419.088 195.74 421.604 196.658 424.528 196.658C427.452 196.658 429.968 195.74 432.076 193.87C433.028 192.986 433.81 191.966 434.388 190.81H428.438C428.234 191.626 427.928 192.34 427.588 192.952C427.248 193.564 426.908 193.972 426.602 194.21C426.262 194.482 425.922 194.652 425.582 194.788C425.208 194.924 424.97 194.992 424.834 194.992H424.528C424.188 195.026 423.78 194.924 423.338 194.72C421.366 193.87 420.312 191.422 420.21 187.376H435.34C435.34 187.206 435.374 187.002 435.374 186.798V186.628V186.492C435.374 186.356 435.34 186.186 435.34 185.982ZM454.175 190.912C453.937 191.728 453.631 192.442 453.257 193.054C452.883 193.666 452.543 194.074 452.203 194.312C451.863 194.584 451.523 194.754 451.149 194.89C450.741 195.026 450.503 195.094 450.367 195.094H450.027H449.789C449.585 195.094 449.381 195.06 449.109 194.958C448.837 194.89 448.531 194.754 448.225 194.584C447.885 194.414 447.579 194.108 447.239 193.7C446.899 193.292 446.627 192.816 446.355 192.238C446.083 191.694 445.845 190.912 445.675 189.96C445.505 189.008 445.437 187.954 445.437 186.764C445.437 185.574 445.505 184.486 445.675 183.534C445.845 182.582 446.049 181.834 446.321 181.256C446.593 180.712 446.899 180.202 447.239 179.794C447.579 179.386 447.919 179.114 448.225 178.944C448.497 178.774 448.803 178.638 449.143 178.536C449.449 178.468 449.653 178.4 449.755 178.4H450.027H450.333C450.537 178.4 450.809 178.468 451.149 178.604C451.489 178.74 451.829 178.944 452.203 179.182C452.543 179.454 452.917 179.862 453.291 180.44C453.631 181.052 453.937 181.766 454.175 182.582C454.447 183.772 454.617 185.166 454.617 186.764C454.617 188.362 454.447 189.756 454.175 190.912ZM460.159 182.582C459.547 181.392 458.731 180.372 457.711 179.488C455.535 177.652 452.985 176.7 450.027 176.7C447.035 176.7 444.485 177.652 442.343 179.488C441.289 180.372 440.473 181.426 439.861 182.65C439.215 183.942 438.909 185.302 438.909 186.73C438.909 188.192 439.215 189.552 439.861 190.81C440.473 192.068 441.289 193.122 442.343 194.006C444.485 195.842 447.035 196.76 450.027 196.76C453.019 196.76 455.569 195.842 457.711 194.006C458.731 193.156 459.547 192.136 460.159 190.946L460.193 190.844C460.805 189.552 461.145 188.226 461.145 186.798C461.145 185.336 460.805 183.976 460.193 182.684C460.159 182.65 460.159 182.616 460.159 182.582ZM470.74 185.812C470.74 184.724 470.808 183.772 470.944 182.922C471.08 182.072 471.216 181.392 471.42 180.882C471.624 180.372 471.862 179.93 472.134 179.556C472.406 179.182 472.644 178.91 472.882 178.74C473.086 178.604 473.324 178.468 473.562 178.4C473.8 178.332 473.97 178.298 474.072 178.298C474.14 178.298 474.208 178.298 474.276 178.332L474.48 178.298C474.582 178.298 474.752 178.332 474.956 178.4C475.16 178.468 475.364 178.604 475.636 178.74C475.874 178.876 476.112 179.148 476.35 179.488C476.622 179.862 476.826 180.304 477.03 180.78C477.234 181.256 477.404 181.902 477.54 182.718C477.676 183.534 477.778 184.452 477.778 185.472V185.812V196.284H483.388V185.812C483.388 183.092 482.538 180.882 480.838 179.216C479.274 177.686 477.268 176.904 474.82 176.904C473.324 176.904 471.964 177.244 470.706 177.89V176.972H465.13V196.216H470.706L470.74 185.812Z" fill="black"/>
</svg>
