<svg width="580" height="260" viewBox="0 0 580 260" fill="none" xmlns="http://www.w3.org/2000/svg">
<rect width="580" height="260" fill="white"/>
<path d="M156.102 127.824C156.102 129.744 155.59 131.344 154.566 132.752C153.542 134.096 151.942 135.248 149.766 136.144C147.59 137.04 144.774 137.68 141.446 138.128C137.99 138.512 133.958 138.768 129.222 138.768C124.486 138.768 120.39 138.512 117.062 138.128C113.606 137.68 110.854 137.04 108.678 136.144C106.502 135.248 104.902 134.096 103.878 132.752C102.854 131.344 102.342 129.744 102.342 127.824C102.342 125.968 102.854 124.304 103.878 122.896C104.902 121.552 106.502 120.4 108.678 119.504C110.854 118.608 113.606 117.968 117.062 117.52C120.39 117.136 124.486 116.88 129.222 116.88C133.958 116.88 137.99 117.136 141.446 117.52C144.774 117.968 147.59 118.608 149.766 119.504C151.942 120.4 153.542 121.552 154.566 122.896C155.59 124.304 156.102 125.968 156.102 127.824ZM100.102 85.776C100.102 84.496 100.358 83.536 100.87 82.96C101.382 82.448 102.278 82.192 103.622 82.192H116.998C117.51 82.192 117.894 82.32 118.15 82.448C118.342 82.704 118.47 83.024 118.47 83.536V85.328C118.47 85.84 118.342 86.224 118.15 86.352C117.894 86.608 117.51 86.672 116.998 86.672H114.694C113.734 86.672 113.094 86.864 112.774 87.184C112.39 87.568 112.198 88.144 112.198 88.976V103.056C112.198 104.912 112.966 105.808 114.63 105.808C116.486 105.808 118.278 105.168 120.006 103.76V85.776C120.006 84.496 120.262 83.536 120.774 82.96C121.286 82.448 122.182 82.192 123.526 82.192H137.158C137.67 82.192 138.054 82.32 138.31 82.448C138.502 82.704 138.63 83.024 138.63 83.536V85.328C138.63 85.84 138.502 86.224 138.31 86.352C138.054 86.608 137.67 86.672 137.158 86.672H134.662C133.701 86.672 133.062 86.864 132.742 87.184C132.358 87.568 132.166 88.144 132.166 88.976V103.056C132.166 104.912 132.934 105.808 134.597 105.808C135.238 105.808 135.878 105.744 136.582 105.552C137.222 105.424 137.798 105.168 138.438 104.656C138.95 104.272 139.462 104.336 139.974 104.976L140.806 106C141.19 106.512 141.126 107.088 140.614 107.6C139.846 108.368 139.078 109.072 138.182 109.712C137.222 110.48 136.198 111.12 135.174 111.632C134.022 112.208 132.87 112.656 131.654 112.976C130.374 113.36 129.03 113.488 127.622 113.488C125.574 113.488 123.974 113.104 122.694 112.208C121.414 111.44 120.582 110.032 120.198 108.112C118.406 109.776 116.422 111.12 114.374 112.016C112.198 113.04 110.022 113.488 107.718 113.488C105.286 113.488 103.43 112.912 102.15 111.632C100.742 110.416 100.102 108.368 100.102 105.552V85.776ZM155.142 95.824H160.454C161.03 95.824 161.414 95.952 161.67 96.144C161.798 96.4 161.926 96.72 161.926 97.168V98.96C161.926 99.472 161.798 99.792 161.67 99.984C161.414 100.24 161.03 100.304 160.454 100.304H155.142V111.184C155.142 112.464 154.886 113.424 154.374 113.936C153.862 114.512 152.902 114.768 151.558 114.768H145.67C144.262 114.768 143.366 114.512 142.854 113.936C142.342 113.424 142.086 112.464 142.086 111.184V85.136C142.086 83.856 142.342 82.96 142.854 82.384C143.366 81.872 144.262 81.552 145.67 81.552H151.558C152.902 81.552 153.862 81.872 154.374 82.384C154.886 82.96 155.142 83.856 155.142 85.136V95.824ZM115.142 127.824C115.142 130 116.23 131.6 118.534 132.688C120.71 133.712 124.294 134.288 129.222 134.288C134.086 134.288 137.67 133.712 139.974 132.688C142.15 131.6 143.302 130 143.302 127.824C143.302 125.648 142.15 124.048 139.974 122.96C137.67 121.936 134.086 121.36 129.222 121.36C124.294 121.36 120.71 121.936 118.534 122.96C116.23 124.048 115.142 125.648 115.142 127.824ZM200.069 89.232C200.069 92.688 199.686 95.76 199.046 98.32C199.174 100.368 199.494 102.032 200.134 103.44C200.71 104.848 201.542 105.936 202.566 106.64C203.59 107.408 204.742 107.728 206.15 107.728C207.43 107.728 208.902 107.344 210.502 106.512C211.142 106.192 211.782 105.936 212.422 105.744C213.062 105.616 213.766 105.552 214.534 105.552C215.302 105.552 216.006 105.68 216.774 105.936C217.414 106.192 218.054 106.576 218.694 107.088C219.206 107.664 219.654 108.304 220.038 109.072C220.358 109.904 220.55 110.864 220.55 111.888C220.55 114.192 219.654 115.984 217.99 117.136C216.262 118.416 214.022 118.992 211.334 118.992C207.174 118.992 203.718 117.84 201.03 115.536C198.278 113.232 196.614 109.904 196.038 105.424C193.606 109.136 190.214 112.016 185.862 114C181.446 116.048 176.07 117.456 169.798 118.352C169.03 118.48 168.582 118.416 168.326 118.224C168.07 118.096 167.878 117.84 167.814 117.456L167.494 116.112C167.366 115.728 167.43 115.408 167.622 115.152C167.75 114.96 168.07 114.768 168.71 114.576C171.59 113.808 174.214 112.72 176.518 111.248C178.822 109.84 180.742 108.112 182.406 105.936C183.942 103.888 185.158 101.456 186.054 98.64C186.822 95.888 187.27 92.752 187.27 89.232V85.136C187.27 83.856 187.526 82.896 188.038 82.32C188.55 81.808 189.446 81.552 190.79 81.552H196.55C197.83 81.552 198.79 81.808 199.302 82.32C199.814 82.832 200.069 83.792 200.069 85.136V89.232ZM221.19 129.808C221.702 129.808 222.086 129.936 222.342 130.128C222.534 130.256 222.662 130.64 222.662 131.152V132.944C222.662 133.456 222.534 133.776 222.342 134.032C222.086 134.16 221.702 134.288 221.19 134.288H166.342C165.766 134.288 165.382 134.16 165.19 134.032C164.934 133.776 164.87 133.456 164.87 132.944V131.152C164.87 130.64 164.934 130.256 165.19 130.128C165.382 129.936 165.766 129.808 166.342 129.808H221.19ZM244.452 91.28H268.58V85.136C268.58 83.856 268.836 82.896 269.348 82.32C269.86 81.808 270.756 81.552 272.1 81.552H278.116C279.396 81.552 280.356 81.808 280.868 82.32C281.38 82.896 281.636 83.856 281.636 85.136V109.136C281.636 110.48 281.38 111.376 280.868 111.888C280.356 112.464 279.396 112.72 278.116 112.72H272.1C270.756 112.72 269.86 112.464 269.348 111.888C268.836 111.376 268.58 110.48 268.58 109.136V107.472C264.484 109.136 260.196 110.416 255.652 111.312C251.044 112.272 246.244 112.72 241.188 112.72C237.604 112.72 235.044 112.016 233.635 110.608C232.1 109.264 231.396 107.088 231.396 104.144V85.136C231.396 83.856 231.652 82.896 232.164 82.32C232.676 81.808 233.572 81.552 234.916 81.552H240.932C242.212 81.552 243.172 81.808 243.684 82.32C244.196 82.896 244.452 83.856 244.452 85.136V91.28ZM283.94 117.904C284.452 117.904 284.836 118.032 285.092 118.16C285.284 118.416 285.412 118.736 285.412 119.248V121.04C285.412 121.552 285.284 121.936 285.092 122.064C284.836 122.32 284.452 122.384 283.94 122.384H263.076V133.904C263.076 135.184 262.819 136.144 262.308 136.72C261.796 137.232 260.836 137.488 259.556 137.488H253.54C252.196 137.488 251.3 137.232 250.788 136.72C250.276 136.144 250.02 135.184 250.02 133.904V122.384H229.092C228.516 122.384 228.132 122.32 227.94 122.064C227.684 121.936 227.62 121.552 227.62 121.04V119.248C227.62 118.736 227.684 118.416 227.94 118.16C228.132 118.032 228.516 117.904 229.092 117.904H283.94ZM247.588 105.552C255.14 105.552 262.116 104.848 268.58 103.376V95.76H244.452V102.608C244.452 103.824 244.644 104.592 245.156 104.976C245.54 105.36 246.372 105.552 247.588 105.552ZM332.034 105.04H335.746V85.136C335.746 83.856 336.002 82.96 336.514 82.384C337.026 81.872 337.922 81.552 339.33 81.552H343.362C344.706 81.552 345.666 81.872 346.178 82.384C346.69 82.96 346.946 83.856 346.946 85.136V133.904C346.946 135.184 346.69 136.08 346.178 136.656C345.666 137.168 344.706 137.488 343.362 137.488H339.33C337.922 137.488 337.026 137.168 336.514 136.656C336.002 136.08 335.746 135.184 335.746 133.904V109.52H332.034V133.904C332.034 135.184 331.778 136.08 331.266 136.656C330.754 137.168 329.794 137.488 328.45 137.488H324.418C323.01 137.488 322.114 137.168 321.602 136.656C321.09 136.08 320.833 135.184 320.833 133.904V85.136C320.833 83.856 321.09 82.96 321.602 82.384C322.114 81.872 323.01 81.552 324.418 81.552H328.45C329.794 81.552 330.754 81.872 331.266 82.384C331.778 82.96 332.034 83.856 332.034 85.136V105.04ZM302.722 127.056C302.722 128.08 302.914 128.72 303.362 129.104C303.746 129.488 304.514 129.68 305.666 129.68C307.266 129.68 308.93 129.424 310.594 128.784C312.194 128.272 313.602 127.568 314.882 126.672C315.394 126.352 315.778 126.16 316.098 126.16C316.354 126.224 316.674 126.416 316.93 126.736L317.762 127.824C318.146 128.464 318.082 128.976 317.57 129.488C315.202 131.728 312.322 133.52 308.994 134.864C305.602 136.144 302.018 136.848 298.306 136.848C293.122 136.848 290.562 134.16 290.562 128.912V85.776C290.562 84.496 290.818 83.536 291.33 82.96C291.842 82.448 292.738 82.192 294.082 82.192H314.946C315.458 82.192 315.842 82.32 316.098 82.448C316.29 82.704 316.418 83.024 316.418 83.536V85.328C316.418 85.84 316.29 86.224 316.098 86.352C315.842 86.608 315.458 86.672 314.946 86.672H304.642C303.874 86.672 303.426 86.8 303.17 87.056C302.85 87.376 302.722 87.888 302.722 88.656V127.056ZM393.361 82.192C393.937 82.192 394.321 82.32 394.577 82.512C394.705 82.768 394.833 83.088 394.833 83.536V85.328C394.833 85.84 394.705 86.16 394.577 86.352C394.321 86.608 393.937 86.672 393.361 86.672H387.985V108.304C387.985 112.4 387.665 115.856 387.089 118.736C386.449 121.68 385.489 124.176 384.273 126.224C384.657 126.8 385.104 127.12 385.617 127.248C386.065 127.376 386.576 127.44 387.217 127.312C387.793 127.312 388.433 127.184 389.073 127.056C389.713 126.928 390.353 126.864 391.057 126.864C392.529 126.864 393.745 127.312 394.769 128.08C395.729 128.912 396.241 130.128 396.241 131.856C396.241 133.328 395.729 134.544 394.769 135.44C393.745 136.336 392.337 136.784 390.673 136.784C388.625 136.784 386.833 136.144 385.361 134.928C383.825 133.648 382.673 131.856 381.777 129.552C380.113 131.216 378.129 132.624 375.825 133.776C373.521 134.8 370.897 135.76 367.953 136.656C367.312 136.784 366.801 136.848 366.545 136.848C366.161 136.72 365.905 136.528 365.777 136.208L365.073 134.736C364.689 134.032 364.881 133.52 365.649 133.136C367.441 132.24 368.977 131.216 370.257 130.064C371.473 128.912 372.497 127.44 373.329 125.712C374.097 124.048 374.737 121.936 375.121 119.504C375.505 117.136 375.697 114.192 375.697 110.736V86.672H371.281V108.816C371.281 112.656 370.961 115.92 370.449 118.736C369.873 121.552 368.977 124.048 367.697 126.096C366.353 128.208 364.625 130 362.513 131.408C360.337 132.816 357.713 134.096 354.641 135.12C354.001 135.312 353.489 135.376 353.233 135.376C352.913 135.312 352.657 135.12 352.465 134.8L351.633 133.328C351.312 132.688 351.441 132.176 352.209 131.728C353.361 130.96 354.321 130.064 355.217 129.104C356.049 128.208 356.753 126.992 357.329 125.52C357.841 124.112 358.289 122.384 358.609 120.272C358.865 118.224 358.993 115.728 358.993 112.656V86.672H354.193C353.617 86.672 353.233 86.608 353.105 86.352C352.849 86.16 352.785 85.84 352.785 85.328V83.536C352.785 83.088 352.849 82.768 353.105 82.512C353.233 82.32 353.617 82.192 354.193 82.192H393.361ZM410.577 133.904C410.577 135.184 410.321 136.08 409.809 136.656C409.297 137.168 408.337 137.488 406.993 137.488H402.001C400.593 137.488 399.697 137.168 399.185 136.656C398.673 136.08 398.417 135.184 398.417 133.904V85.136C398.417 83.856 398.673 82.96 399.185 82.384C399.697 81.872 400.593 81.552 402.001 81.552H406.993C408.337 81.552 409.297 81.872 409.809 82.384C410.321 82.96 410.577 83.856 410.577 85.136V133.904ZM461.314 105.04H465.026V85.136C465.026 83.856 465.282 82.96 465.794 82.384C466.306 81.872 467.202 81.552 468.61 81.552H472.642C473.986 81.552 474.946 81.872 475.458 82.384C475.97 82.96 476.226 83.856 476.226 85.136V133.904C476.226 135.184 475.97 136.08 475.458 136.656C474.946 137.168 473.986 137.488 472.642 137.488H468.61C467.202 137.488 466.306 137.168 465.794 136.656C465.282 136.08 465.026 135.184 465.026 133.904V109.52H461.314V133.904C461.314 135.184 461.058 136.08 460.546 136.656C460.034 137.168 459.074 137.488 457.73 137.488H453.698C452.29 137.488 451.394 137.168 450.882 136.656C450.37 136.08 450.114 135.184 450.114 133.904V85.136C450.114 83.856 450.37 82.96 450.882 82.384C451.394 81.872 452.29 81.552 453.698 81.552H457.73C459.074 81.552 460.034 81.872 460.546 82.384C461.058 82.96 461.314 83.856 461.314 85.136V105.04ZM420.034 86.672C419.394 86.672 419.01 86.608 418.882 86.352C418.626 86.16 418.562 85.84 418.562 85.328V83.536C418.562 83.088 418.626 82.768 418.882 82.512C419.01 82.32 419.394 82.192 420.034 82.192H442.818C444.226 82.192 445.122 82.512 445.634 83.024C446.082 83.664 446.338 84.56 446.338 85.776V97.488C446.338 108.368 444.034 117.072 439.49 123.472C434.882 130 428.098 134.352 419.202 136.72C418.242 136.912 417.602 136.72 417.346 136.08L416.706 134.672C416.322 133.904 416.642 133.328 417.602 132.88C420.482 131.472 422.978 129.808 425.026 127.888C427.01 125.968 428.674 123.664 429.954 120.912C431.17 118.224 432.066 114.96 432.706 111.184C433.218 107.472 433.538 103.12 433.538 98.064V88.656C433.538 87.888 433.41 87.376 433.154 87.056C432.833 86.8 432.322 86.672 431.618 86.672H420.034Z" fill="black"/>
<path d="M131.621 167.84C131.381 167.84 131.261 167.75 131.261 167.51V166.67C131.261 166.46 131.381 166.34 131.621 166.34H148.121C148.361 166.34 148.481 166.46 148.481 166.67V167.51C148.481 167.75 148.361 167.84 148.121 167.84H142.361V189.53C142.361 189.98 142.271 190.31 142.091 190.49C141.881 190.67 141.551 190.76 141.101 190.76H138.641C138.161 190.76 137.861 190.67 137.681 190.49C137.471 190.31 137.381 189.98 137.381 189.53V167.84H131.621ZM164.267 189.53C164.237 189.98 164.147 190.31 163.967 190.49C163.787 190.67 163.457 190.76 163.007 190.76H160.547C160.067 190.76 159.737 190.67 159.557 190.49C159.347 190.31 159.257 189.98 159.287 189.53V188.51C158.987 188.87 158.657 189.2 158.237 189.56C157.787 189.86 157.307 190.16 156.767 190.43C156.227 190.67 155.627 190.85 155.027 191.03C154.367 191.15 153.737 191.24 153.077 191.24C152.477 191.24 151.847 191.18 151.247 191.09C150.587 190.97 150.017 190.76 149.507 190.46C148.967 190.16 148.547 189.74 148.247 189.26C147.887 188.72 147.737 188.06 147.737 187.28C147.737 186.44 147.917 185.72 148.307 185.12C148.667 184.55 149.177 184.07 149.837 183.65C150.467 183.29 151.217 182.96 152.057 182.72C152.897 182.48 153.767 182.27 154.667 182.09C155.027 182.03 155.387 181.97 155.807 181.88C156.197 181.82 156.617 181.73 157.037 181.64L158.267 181.46C158.657 181.4 159.017 181.37 159.377 181.31V180.98C159.377 180.2 159.347 179.54 159.317 178.94C159.257 178.4 159.107 177.92 158.927 177.53C158.687 177.17 158.387 176.87 158.027 176.69C157.637 176.51 157.127 176.42 156.467 176.42C155.327 176.42 154.577 176.72 154.157 177.32C153.707 177.95 153.497 178.79 153.497 179.84C153.497 180.32 153.407 180.65 153.227 180.8C153.017 180.98 152.597 181.04 151.967 181.04H150.017C149.387 181.04 148.997 180.98 148.817 180.8C148.607 180.65 148.517 180.32 148.517 179.84C148.517 179.15 148.637 178.49 148.937 177.89C149.207 177.29 149.657 176.78 150.287 176.33C150.887 175.91 151.667 175.55 152.687 175.28C153.647 175.04 154.877 174.92 156.317 174.92C157.787 174.92 159.047 175.07 160.097 175.34C161.117 175.64 161.927 176.12 162.587 176.72C163.187 177.35 163.637 178.13 163.937 179.09C164.207 180.08 164.327 181.25 164.327 182.6L164.267 189.53ZM155.417 189.47C156.167 189.47 156.887 189.26 157.607 188.9C158.267 188.51 158.837 188.03 159.317 187.46L159.347 182.48C158.747 182.6 158.147 182.75 157.517 182.93C156.857 183.14 156.347 183.32 155.927 183.44C155.237 183.68 154.697 183.92 154.277 184.16C153.857 184.43 153.527 184.7 153.287 185C153.047 185.3 152.867 185.63 152.807 185.96C152.717 186.32 152.687 186.71 152.687 187.07C152.687 187.85 152.927 188.42 153.407 188.84C153.887 189.26 154.547 189.47 155.417 189.47ZM159.647 186.98C159.587 187.07 159.557 187.13 159.557 187.13L159.647 186.98ZM185.925 189.53C185.925 189.98 185.835 190.31 185.655 190.49C185.445 190.67 185.115 190.76 184.665 190.76H182.205C181.725 190.76 181.425 190.67 181.245 190.49C181.035 190.31 180.945 189.98 180.945 189.53V180.65C180.945 179.27 180.705 178.28 180.255 177.68C179.775 177.11 179.025 176.81 178.005 176.81C177.225 176.81 176.475 177.11 175.755 177.68C175.035 178.28 174.285 179.21 173.535 180.47V189.53C173.535 189.98 173.445 190.31 173.265 190.49C173.055 190.67 172.725 190.76 172.275 190.76H169.815C169.335 190.76 169.035 190.67 168.855 190.49C168.645 190.31 168.555 189.98 168.555 189.53V176.6C168.555 176.15 168.645 175.82 168.855 175.64C169.035 175.46 169.335 175.37 169.815 175.37H172.275C172.725 175.37 173.055 175.46 173.265 175.64C173.445 175.82 173.535 176.15 173.535 176.6V178.19C174.315 177.11 175.245 176.27 176.295 175.73C177.315 175.19 178.425 174.92 179.595 174.92C181.695 174.92 183.255 175.4 184.335 176.33C185.385 177.29 185.925 178.73 185.925 180.71V189.53ZM207.488 190.79C207.488 192.08 207.338 193.22 207.038 194.24C206.708 195.2 206.198 196.04 205.508 196.73C204.788 197.39 203.888 197.9 202.778 198.26C201.638 198.59 200.288 198.77 198.668 198.77C195.788 198.77 193.748 198.35 192.488 197.54C191.198 196.7 190.568 195.59 190.568 194.18C190.568 193.58 190.658 193.16 190.868 192.98C191.048 192.74 191.438 192.65 192.068 192.65H194.018C194.648 192.65 195.068 192.74 195.278 192.98C195.458 193.16 195.548 193.58 195.548 194.18C195.548 195.26 195.788 196.04 196.328 196.55C196.838 197.03 197.678 197.27 198.818 197.27C199.538 197.27 200.168 197.15 200.648 196.94C201.128 196.7 201.488 196.31 201.788 195.8C202.028 195.26 202.238 194.57 202.358 193.73C202.448 192.89 202.508 191.84 202.508 190.61V188.54C201.878 189.41 201.098 190.1 200.138 190.58C199.178 191.03 198.128 191.27 196.988 191.27C195.908 191.27 194.888 191.09 193.988 190.76C193.058 190.4 192.248 189.86 191.588 189.2C190.868 188.48 190.328 187.64 189.968 186.62C189.548 185.6 189.368 184.43 189.368 183.11C189.368 181.79 189.548 180.62 189.968 179.6C190.328 178.58 190.868 177.74 191.588 177.02C192.248 176.36 193.058 175.82 193.988 175.46C194.888 175.13 195.908 174.95 196.988 174.95C198.128 174.95 199.178 175.19 200.138 175.67C201.098 176.15 201.878 176.84 202.508 177.71V176.6C202.508 176.15 202.598 175.82 202.808 175.64C202.988 175.46 203.288 175.37 203.768 175.37H206.228C206.678 175.37 207.008 175.46 207.218 175.64C207.398 175.82 207.488 176.15 207.488 176.6V190.79ZM194.348 183.11C194.348 185.33 194.708 186.95 195.458 187.94C196.178 188.96 197.108 189.47 198.308 189.47C199.328 189.47 200.198 189.11 200.948 188.39C201.668 187.67 202.208 186.71 202.508 185.57V180.65C202.208 179.51 201.668 178.58 200.948 177.83C200.198 177.11 199.328 176.75 198.308 176.75C197.108 176.75 196.178 177.26 195.458 178.25C194.708 179.27 194.348 180.89 194.348 183.11ZM219.3 191.24C216.57 191.24 214.47 190.85 213 190.1C211.5 189.32 210.78 188.27 210.78 186.92C210.78 186.41 210.9 186.05 211.14 185.84C211.38 185.66 211.8 185.54 212.46 185.54H214.08C214.38 185.54 214.65 185.57 214.89 185.57C215.1 185.6 215.28 185.66 215.43 185.72C215.55 185.84 215.64 185.96 215.7 186.14C215.73 186.32 215.76 186.59 215.76 186.92C215.76 187.82 216.06 188.48 216.66 188.99C217.26 189.47 218.19 189.74 219.45 189.74C220.77 189.74 221.76 189.53 222.36 189.11C222.93 188.69 223.23 188 223.23 187.04C223.23 186.62 223.14 186.23 222.99 185.87C222.81 185.54 222.54 185.21 222.15 184.91C221.73 184.64 221.16 184.37 220.44 184.13C219.72 183.89 218.79 183.68 217.71 183.5C216.42 183.29 215.37 183.05 214.53 182.78C213.69 182.54 213.03 182.21 212.55 181.85C212.04 181.52 211.68 181.13 211.5 180.68C211.29 180.26 211.2 179.78 211.2 179.18C211.2 178.58 211.35 178.04 211.71 177.5C212.01 176.99 212.52 176.54 213.21 176.15C213.87 175.79 214.71 175.49 215.76 175.25C216.78 175.04 217.98 174.92 219.36 174.92C221.97 174.92 223.98 175.37 225.39 176.21C226.77 177.11 227.49 178.22 227.49 179.54C227.49 180.08 227.37 180.44 227.13 180.62C226.89 180.83 226.44 180.92 225.81 180.92H224.19C223.53 180.92 223.11 180.83 222.87 180.62C222.63 180.44 222.51 180.08 222.51 179.54C222.51 178.43 222.21 177.62 221.67 177.14C221.1 176.66 220.29 176.42 219.21 176.42C218.13 176.42 217.38 176.66 216.9 177.14C216.42 177.65 216.18 178.37 216.18 179.3C216.18 180.2 216.54 180.92 217.26 181.43C217.98 181.97 219.03 182.33 220.41 182.57C221.97 182.87 223.23 183.14 224.25 183.41C225.24 183.71 226.05 184.04 226.65 184.4C227.22 184.76 227.64 185.18 227.88 185.6C228.09 186.05 228.21 186.56 228.21 187.13C228.21 187.73 228.03 188.24 227.73 188.75C227.4 189.23 226.89 189.68 226.2 190.07C225.48 190.43 224.55 190.7 223.44 190.94C222.3 191.12 220.92 191.24 219.3 191.24ZM252.05 178.07C254.39 178.43 256.07 179.15 257.12 180.29C258.14 181.43 258.68 182.81 258.68 184.43C258.68 186.56 257.96 188.12 256.55 189.2C255.11 190.22 252.92 190.76 249.98 190.76H240.86C240.38 190.76 240.08 190.67 239.9 190.49C239.69 190.31 239.6 189.98 239.6 189.53V167.27C239.6 166.82 239.69 166.49 239.9 166.31C240.08 166.13 240.38 166.04 240.86 166.04H248.48C251.51 166.04 253.76 166.55 255.26 167.51C256.73 168.5 257.48 170.03 257.48 172.07C257.48 173.6 257.03 174.89 256.16 175.94C255.26 177.02 253.91 177.71 252.05 178.07ZM244.58 177.44H246.8C247.94 177.44 248.87 177.32 249.62 177.02C250.34 176.78 250.94 176.39 251.39 175.91C251.81 175.46 252.08 174.92 252.26 174.26C252.41 173.66 252.5 172.97 252.5 172.25C252.5 171.59 252.41 170.96 252.26 170.36C252.08 169.82 251.81 169.31 251.42 168.89C251 168.47 250.43 168.14 249.77 167.9C249.05 167.66 248.18 167.54 247.1 167.54H245.39C245.06 167.54 244.85 167.6 244.76 167.66C244.64 167.78 244.58 167.99 244.58 168.32V177.44ZM244.58 178.94V188.48C244.58 188.81 244.64 189.02 244.76 189.14C244.85 189.2 245.06 189.26 245.39 189.26H247.55C249.71 189.26 251.3 188.81 252.26 187.94C253.22 187.1 253.7 185.72 253.7 183.83C253.7 183.17 253.58 182.51 253.37 181.91C253.13 181.34 252.77 180.83 252.26 180.38C251.72 179.96 251.03 179.6 250.19 179.33C249.29 179.09 248.21 178.94 246.95 178.94H244.58ZM262.129 176.6C262.129 176.15 262.219 175.82 262.429 175.64C262.609 175.46 262.909 175.37 263.389 175.37H265.849C266.299 175.37 266.629 175.46 266.839 175.64C267.019 175.82 267.109 176.15 267.109 176.6V185.48C267.109 186.89 267.319 187.88 267.799 188.45C268.249 189.02 268.999 189.32 270.049 189.32C270.829 189.32 271.579 189.02 272.299 188.45C273.019 187.88 273.739 186.95 274.519 185.69V176.6C274.519 176.15 274.609 175.82 274.819 175.64C274.999 175.46 275.299 175.37 275.779 175.37H278.239C278.689 175.37 279.019 175.46 279.229 175.64C279.409 175.82 279.499 176.15 279.499 176.6V189.53C279.499 189.98 279.409 190.31 279.229 190.49C279.019 190.67 278.689 190.76 278.239 190.76H275.779C275.299 190.76 274.999 190.67 274.819 190.49C274.609 190.31 274.519 189.98 274.519 189.53V187.97C273.679 189.05 272.749 189.86 271.729 190.4C270.679 190.94 269.599 191.21 268.459 191.21C266.359 191.21 264.769 190.73 263.719 189.8C262.639 188.84 262.129 187.4 262.129 185.42V176.6ZM296.112 167.3C296.112 166.85 296.202 166.52 296.412 166.34C296.592 166.16 296.892 166.07 297.372 166.07H299.832C300.282 166.07 300.612 166.16 300.822 166.34C301.002 166.52 301.092 166.85 301.092 167.3V189.56C301.092 190.01 301.002 190.34 300.822 190.52C300.612 190.7 300.282 190.79 299.832 190.79H297.372C296.892 190.79 296.592 190.7 296.412 190.52C296.202 190.34 296.112 190.01 296.112 189.56V188.84C295.542 189.65 294.792 190.25 293.862 190.67C292.902 191.06 291.882 191.27 290.862 191.27C289.722 191.27 288.672 191.09 287.712 190.76C286.722 190.4 285.882 189.86 285.192 189.2C284.472 188.48 283.902 187.64 283.542 186.62C283.122 185.6 282.942 184.43 282.942 183.11C282.942 181.79 283.122 180.62 283.542 179.6C283.902 178.58 284.472 177.74 285.192 177.02C285.882 176.36 286.722 175.82 287.712 175.46C288.672 175.13 289.722 174.95 290.862 174.95C291.882 174.95 292.902 175.16 293.862 175.55C294.792 175.97 295.542 176.57 296.112 177.38V167.3ZM287.922 183.11C287.922 184.25 288.012 185.21 288.252 185.99C288.462 186.8 288.762 187.46 289.182 187.94C289.542 188.45 289.992 188.84 290.532 189.11C291.042 189.35 291.582 189.47 292.182 189.47C292.662 189.47 293.142 189.35 293.622 189.17C294.102 188.93 294.522 188.63 294.912 188.27C295.272 187.88 295.542 187.4 295.782 186.8C295.992 186.26 296.112 185.6 296.112 184.85V181.37C296.112 180.65 295.992 179.99 295.782 179.39C295.542 178.85 295.272 178.37 294.912 177.95C294.522 177.59 294.102 177.29 293.622 177.05C293.142 176.87 292.662 176.75 292.182 176.75C291.582 176.75 291.042 176.87 290.532 177.11C289.992 177.38 289.542 177.77 289.182 178.25C288.762 178.79 288.462 179.45 288.252 180.23C288.012 181.07 287.922 182.03 287.922 183.11ZM321.064 189.53C321.034 189.98 320.944 190.31 320.764 190.49C320.584 190.67 320.254 190.76 319.804 190.76H317.344C316.864 190.76 316.534 190.67 316.354 190.49C316.144 190.31 316.054 189.98 316.084 189.53V188.51C315.784 188.87 315.454 189.2 315.034 189.56C314.584 189.86 314.104 190.16 313.564 190.43C313.024 190.67 312.424 190.85 311.824 191.03C311.164 191.15 310.534 191.24 309.874 191.24C309.274 191.24 308.644 191.18 308.044 191.09C307.384 190.97 306.814 190.76 306.304 190.46C305.764 190.16 305.344 189.74 305.044 189.26C304.684 188.72 304.534 188.06 304.534 187.28C304.534 186.44 304.714 185.72 305.104 185.12C305.464 184.55 305.974 184.07 306.634 183.65C307.264 183.29 308.014 182.96 308.854 182.72C309.694 182.48 310.564 182.27 311.464 182.09C311.824 182.03 312.184 181.97 312.604 181.88C312.994 181.82 313.414 181.73 313.834 181.64L315.064 181.46C315.454 181.4 315.814 181.37 316.174 181.31V180.98C316.174 180.2 316.144 179.54 316.114 178.94C316.054 178.4 315.904 177.92 315.724 177.53C315.484 177.17 315.184 176.87 314.824 176.69C314.434 176.51 313.924 176.42 313.264 176.42C312.124 176.42 311.374 176.72 310.954 177.32C310.504 177.95 310.294 178.79 310.294 179.84C310.294 180.32 310.204 180.65 310.024 180.8C309.814 180.98 309.394 181.04 308.764 181.04H306.814C306.184 181.04 305.794 180.98 305.614 180.8C305.404 180.65 305.314 180.32 305.314 179.84C305.314 179.15 305.434 178.49 305.734 177.89C306.004 177.29 306.454 176.78 307.084 176.33C307.684 175.91 308.464 175.55 309.484 175.28C310.444 175.04 311.674 174.92 313.114 174.92C314.584 174.92 315.844 175.07 316.894 175.34C317.914 175.64 318.724 176.12 319.384 176.72C319.984 177.35 320.434 178.13 320.734 179.09C321.004 180.08 321.124 181.25 321.124 182.6L321.064 189.53ZM312.214 189.47C312.964 189.47 313.684 189.26 314.404 188.9C315.064 188.51 315.634 188.03 316.114 187.46L316.144 182.48C315.544 182.6 314.944 182.75 314.314 182.93C313.654 183.14 313.144 183.32 312.724 183.44C312.034 183.68 311.494 183.92 311.074 184.16C310.654 184.43 310.324 184.7 310.084 185C309.844 185.3 309.664 185.63 309.604 185.96C309.514 186.32 309.484 186.71 309.484 187.07C309.484 187.85 309.724 188.42 310.204 188.84C310.684 189.26 311.344 189.47 312.214 189.47ZM316.444 186.98C316.384 187.07 316.354 187.13 316.354 187.13L316.444 186.98ZM329.582 183.59C329.582 184.76 329.702 185.72 329.882 186.5C330.032 187.31 330.272 187.97 330.632 188.45C330.932 188.93 331.352 189.26 331.862 189.5C332.342 189.71 332.912 189.83 333.572 189.83C334.622 189.83 335.432 189.56 336.032 189.05C336.572 188.51 336.872 187.73 336.872 186.71C336.872 186.26 336.962 185.93 337.172 185.75C337.352 185.57 337.652 185.48 338.132 185.48H340.592C341.042 185.48 341.372 185.57 341.552 185.75C341.732 185.93 341.822 186.26 341.822 186.71C341.822 187.52 341.612 188.18 341.192 188.78C340.742 189.32 340.142 189.8 339.392 190.19C338.612 190.55 337.682 190.82 336.662 191C335.612 191.15 334.502 191.24 333.302 191.24C331.982 191.24 330.782 191.06 329.732 190.76C328.652 190.4 327.722 189.92 326.972 189.26C326.192 188.57 325.622 187.73 325.232 186.71C324.812 185.69 324.602 184.49 324.602 183.08C324.602 181.7 324.812 180.47 325.262 179.45C325.682 178.43 326.312 177.59 327.122 176.9C327.902 176.24 328.832 175.76 329.912 175.4C330.992 175.1 332.162 174.92 333.452 174.92C334.832 174.92 336.092 175.1 337.202 175.46C338.282 175.82 339.182 176.33 339.962 176.99C340.682 177.65 341.252 178.43 341.672 179.33C342.062 180.26 342.272 181.28 342.272 182.36C342.272 182.84 342.182 183.14 342.032 183.32C341.852 183.5 341.522 183.59 341.072 183.59H329.582ZM333.602 176.42C331.142 176.42 329.792 178.31 329.582 182.09H337.352C337.292 180.2 337.022 178.79 336.482 177.83C335.912 176.9 334.952 176.42 333.602 176.42ZM364.246 184.34C364.246 185.45 364.126 186.44 363.886 187.31C363.646 188.21 363.256 188.96 362.746 189.62C362.206 190.22 361.486 190.7 360.646 191.06C359.776 191.39 358.726 191.57 357.526 191.57C356.056 191.57 354.886 191.21 354.046 190.55C353.176 189.86 352.516 188.99 352.066 187.94C351.946 187.7 352.006 187.52 352.186 187.4L352.846 187.01C353.056 186.89 353.236 186.98 353.386 187.22C353.806 188.06 354.286 188.75 354.796 189.29C355.276 189.8 355.906 190.07 356.656 190.07C357.136 190.07 357.556 189.98 357.916 189.83C358.246 189.65 358.516 189.41 358.726 189.05C358.906 188.66 359.056 188.18 359.146 187.58C359.206 187.01 359.266 186.29 359.266 185.42V167.27C359.266 166.82 359.356 166.49 359.566 166.31C359.746 166.13 360.046 166.04 360.526 166.04H362.986C363.436 166.04 363.766 166.13 363.976 166.31C364.156 166.49 364.246 166.82 364.246 167.27V184.34ZM376.668 190.82C376.668 192.11 376.548 193.25 376.368 194.21C376.128 195.17 375.798 195.95 375.318 196.61C374.838 197.24 374.178 197.72 373.398 198.05C372.558 198.35 371.568 198.5 370.368 198.5C369.828 198.5 369.288 198.41 368.778 198.26C368.238 198.08 367.758 197.84 367.308 197.54C366.828 197.21 366.438 196.82 366.078 196.4C365.718 195.95 365.448 195.47 365.238 194.93C365.178 194.78 365.178 194.66 365.208 194.6C365.268 194.48 365.358 194.39 365.508 194.3L365.868 194.06C366.048 193.94 366.168 193.91 366.288 193.97C366.408 194 366.498 194.12 366.618 194.33C367.038 195.14 367.548 195.77 368.088 196.25C368.628 196.67 369.168 196.91 369.768 196.91C370.488 196.91 370.998 196.61 371.298 196.01C371.538 195.41 371.688 194.39 371.688 192.95V175.1C371.688 174.65 371.778 174.32 371.988 174.14C372.168 173.96 372.468 173.87 372.948 173.87H375.408C375.858 173.87 376.188 173.96 376.398 174.14C376.578 174.32 376.668 174.65 376.668 175.1V190.82ZM371.688 168.32C371.688 167.63 371.928 167.03 372.408 166.55C372.888 166.07 373.458 165.83 374.178 165.83C374.868 165.83 375.468 166.07 375.948 166.55C376.428 167.03 376.668 167.63 376.668 168.32C376.668 169.04 376.428 169.61 375.948 170.09C375.468 170.57 374.868 170.81 374.178 170.81C373.458 170.81 372.888 170.57 372.408 170.09C371.928 169.61 371.688 169.04 371.688 168.32ZM380.87 168.32C380.87 167.63 381.11 167.03 381.59 166.55C382.07 166.07 382.64 165.83 383.36 165.83C384.05 165.83 384.65 166.07 385.13 166.55C385.61 167.03 385.85 167.63 385.85 168.32C385.85 169.04 385.61 169.61 385.13 170.09C384.65 170.57 384.05 170.81 383.36 170.81C382.64 170.81 382.07 170.57 381.59 170.09C381.11 169.61 380.87 169.04 380.87 168.32ZM385.85 189.53C385.85 189.98 385.76 190.31 385.58 190.49C385.37 190.67 385.04 190.76 384.59 190.76H382.13C381.65 190.76 381.35 190.67 381.17 190.49C380.96 190.31 380.87 189.98 380.87 189.53V175.1C380.87 174.65 380.96 174.32 381.17 174.14C381.35 173.96 381.65 173.87 382.13 173.87H384.59C385.04 173.87 385.37 173.96 385.58 174.14C385.76 174.32 385.85 174.65 385.85 175.1V189.53ZM407.409 190.79C407.409 192.08 407.259 193.22 406.959 194.24C406.629 195.2 406.119 196.04 405.429 196.73C404.709 197.39 403.809 197.9 402.699 198.26C401.559 198.59 400.209 198.77 398.589 198.77C395.709 198.77 393.669 198.35 392.409 197.54C391.119 196.7 390.489 195.59 390.489 194.18C390.489 193.58 390.579 193.16 390.789 192.98C390.969 192.74 391.359 192.65 391.989 192.65H393.939C394.569 192.65 394.989 192.74 395.199 192.98C395.379 193.16 395.469 193.58 395.469 194.18C395.469 195.26 395.709 196.04 396.249 196.55C396.759 197.03 397.599 197.27 398.739 197.27C399.459 197.27 400.089 197.15 400.569 196.94C401.049 196.7 401.409 196.31 401.709 195.8C401.949 195.26 402.159 194.57 402.279 193.73C402.369 192.89 402.429 191.84 402.429 190.61V188.54C401.799 189.41 401.019 190.1 400.059 190.58C399.099 191.03 398.049 191.27 396.909 191.27C395.829 191.27 394.809 191.09 393.909 190.76C392.979 190.4 392.169 189.86 391.509 189.2C390.789 188.48 390.249 187.64 389.889 186.62C389.469 185.6 389.289 184.43 389.289 183.11C389.289 181.79 389.469 180.62 389.889 179.6C390.249 178.58 390.789 177.74 391.509 177.02C392.169 176.36 392.979 175.82 393.909 175.46C394.809 175.13 395.829 174.95 396.909 174.95C398.049 174.95 399.099 175.19 400.059 175.67C401.019 176.15 401.799 176.84 402.429 177.71V176.6C402.429 176.15 402.519 175.82 402.729 175.64C402.909 175.46 403.209 175.37 403.689 175.37H406.149C406.599 175.37 406.929 175.46 407.139 175.64C407.319 175.82 407.409 176.15 407.409 176.6V190.79ZM394.269 183.11C394.269 185.33 394.629 186.95 395.379 187.94C396.099 188.96 397.029 189.47 398.229 189.47C399.249 189.47 400.119 189.11 400.869 188.39C401.589 187.67 402.129 186.71 402.429 185.57V180.65C402.129 179.51 401.589 178.58 400.869 177.83C400.119 177.11 399.249 176.75 398.229 176.75C397.029 176.75 396.099 177.26 395.379 178.25C394.629 179.27 394.269 180.89 394.269 183.11ZM427.382 189.53C427.352 189.98 427.262 190.31 427.082 190.49C426.902 190.67 426.572 190.76 426.122 190.76H423.662C423.182 190.76 422.852 190.67 422.672 190.49C422.462 190.31 422.372 189.98 422.402 189.53V188.51C422.102 188.87 421.772 189.2 421.352 189.56C420.902 189.86 420.422 190.16 419.882 190.43C419.342 190.67 418.742 190.85 418.142 191.03C417.482 191.15 416.852 191.24 416.192 191.24C415.592 191.24 414.962 191.18 414.362 191.09C413.702 190.97 413.132 190.76 412.622 190.46C412.082 190.16 411.662 189.74 411.362 189.26C411.002 188.72 410.852 188.06 410.852 187.28C410.852 186.44 411.032 185.72 411.422 185.12C411.782 184.55 412.292 184.07 412.952 183.65C413.582 183.29 414.332 182.96 415.172 182.72C416.012 182.48 416.882 182.27 417.782 182.09C418.142 182.03 418.502 181.97 418.922 181.88C419.312 181.82 419.732 181.73 420.152 181.64L421.382 181.46C421.772 181.4 422.132 181.37 422.492 181.31V180.98C422.492 180.2 422.462 179.54 422.432 178.94C422.372 178.4 422.222 177.92 422.042 177.53C421.802 177.17 421.502 176.87 421.142 176.69C420.752 176.51 420.242 176.42 419.582 176.42C418.442 176.42 417.692 176.72 417.272 177.32C416.822 177.95 416.612 178.79 416.612 179.84C416.612 180.32 416.522 180.65 416.342 180.8C416.132 180.98 415.712 181.04 415.082 181.04H413.132C412.502 181.04 412.112 180.98 411.932 180.8C411.722 180.65 411.632 180.32 411.632 179.84C411.632 179.15 411.752 178.49 412.052 177.89C412.322 177.29 412.772 176.78 413.402 176.33C414.002 175.91 414.782 175.55 415.802 175.28C416.762 175.04 417.992 174.92 419.432 174.92C420.902 174.92 422.162 175.07 423.212 175.34C424.232 175.64 425.042 176.12 425.702 176.72C426.302 177.35 426.752 178.13 427.052 179.09C427.322 180.08 427.442 181.25 427.442 182.6L427.382 189.53ZM418.532 189.47C419.282 189.47 420.002 189.26 420.722 188.9C421.382 188.51 421.952 188.03 422.432 187.46L422.462 182.48C421.862 182.6 421.262 182.75 420.632 182.93C419.972 183.14 419.462 183.32 419.042 183.44C418.352 183.68 417.812 183.92 417.392 184.16C416.972 184.43 416.642 184.7 416.402 185C416.162 185.3 415.982 185.63 415.922 185.96C415.832 186.32 415.802 186.71 415.802 187.07C415.802 187.85 416.042 188.42 416.522 188.84C417.002 189.26 417.662 189.47 418.532 189.47ZM422.762 186.98C422.702 187.07 422.672 187.13 422.672 187.13L422.762 186.98ZM435.9 183.59C435.9 184.76 436.02 185.72 436.2 186.5C436.35 187.31 436.59 187.97 436.95 188.45C437.25 188.93 437.67 189.26 438.18 189.5C438.66 189.71 439.23 189.83 439.89 189.83C440.94 189.83 441.75 189.56 442.35 189.05C442.89 188.51 443.19 187.73 443.19 186.71C443.19 186.26 443.28 185.93 443.49 185.75C443.67 185.57 443.97 185.48 444.45 185.48H446.91C447.36 185.48 447.69 185.57 447.87 185.75C448.05 185.93 448.14 186.26 448.14 186.71C448.14 187.52 447.93 188.18 447.51 188.78C447.06 189.32 446.46 189.8 445.71 190.19C444.93 190.55 444 190.82 442.98 191C441.93 191.15 440.82 191.24 439.62 191.24C438.3 191.24 437.1 191.06 436.05 190.76C434.97 190.4 434.04 189.92 433.29 189.26C432.51 188.57 431.94 187.73 431.55 186.71C431.13 185.69 430.92 184.49 430.92 183.08C430.92 181.7 431.13 180.47 431.58 179.45C432 178.43 432.63 177.59 433.44 176.9C434.22 176.24 435.15 175.76 436.23 175.4C437.31 175.1 438.48 174.92 439.77 174.92C441.15 174.92 442.41 175.1 443.52 175.46C444.6 175.82 445.5 176.33 446.28 176.99C447 177.65 447.57 178.43 447.99 179.33C448.38 180.26 448.59 181.28 448.59 182.36C448.59 182.84 448.5 183.14 448.35 183.32C448.17 183.5 447.84 183.59 447.39 183.59H435.9ZM439.92 176.42C437.46 176.42 436.11 178.31 435.9 182.09H443.67C443.61 180.2 443.34 178.79 442.8 177.83C442.23 176.9 441.27 176.42 439.92 176.42Z" fill="black"/>
</svg>
