<svg width="1920" height="3874" viewBox="0 0 1920 3874" fill="none" xmlns="http://www.w3.org/2000/svg">
<g id="shapes">
<path id="o" d="M1769.35 1438.86C1769.43 1445.49 1764.12 1450.92 1757.49 1451C1750.87 1451.08 1745.43 1445.77 1745.35 1439.14C1745.28 1432.51 1750.59 1427.08 1757.21 1427C1763.84 1426.92 1769.28 1432.23 1769.35 1438.86Z" stroke="black"/>
<path id="o_2" d="M1769.56 1787C1769.59 1789.49 1767.6 1791.53 1765.11 1791.56C1762.63 1791.59 1760.59 1789.59 1760.56 1787.11C1760.53 1784.62 1762.52 1782.59 1765.01 1782.56C1767.49 1782.53 1769.53 1784.52 1769.56 1787Z" stroke="black"/>
<path id="o_3" d="M1662.59 1571.5C1662.63 1575.37 1659.53 1578.54 1655.67 1578.58C1651.8 1578.63 1648.63 1575.53 1648.59 1571.67C1648.54 1567.8 1651.64 1564.63 1655.51 1564.59C1659.37 1564.54 1662.54 1567.64 1662.59 1571.5Z" stroke="black"/>
<circle id="o_4" cx="326.058" cy="2025.06" r="4.5" transform="rotate(-0.667902 326.058 2025.06)" stroke="black"/>
<path id="x" d="M487.574 2119.82L500.332 2152.79M510.154 2130.57L477.18 2143.33" stroke="black"/>
<path id="x_2" d="M1509.09 1603.19L1493.15 1642.51M1520.13 1631.09L1480.81 1615.15" stroke="black"/>
<path id="x_3" d="M1755.67 1618.19L1750.36 1631.29M1758.92 1627.67L1745.81 1622.36" stroke="black"/>
<path id="x_4" d="M186.045 1888.38L174.277 1896.22M183.389 1898.04L175.546 1886.28" stroke="black"/>
<path id="x_5" d="M179.23 2110.59L204.331 2123.62M198.512 2105.23L185.476 2130.33" stroke="black"/>
<path id="o_5" d="M966.94 3606.56C965.179 3612.95 958.573 3616.7 952.183 3614.94C945.794 3613.18 942.042 3606.57 943.803 3600.18C945.563 3593.79 952.17 3590.04 958.56 3591.8C964.949 3593.56 968.701 3600.17 966.94 3606.56Z" stroke="black"/>
<circle id="o_6" cx="334.149" cy="3686.15" r="4.5" transform="rotate(15.4071 334.149 3686.15)" stroke="black"/>
<circle id="o_7" cx="444.76" cy="3781.53" r="8.24992" transform="rotate(15.4071 444.76 3781.53)" stroke="black"/>
<circle id="o_8" cx="652.223" cy="3603.22" r="7" transform="rotate(15.4071 652.223 3603.22)" stroke="black"/>
<path id="x_6" d="M719.498 3798L722.626 3833.22M738.216 3814.59L703 3817.71" stroke="black"/>
<path id="x_7" d="M1211.18 3764.31L1184.98 3797.68M1214.06 3794.18L1180.69 3767.98" stroke="black"/>
<path id="x_8" d="M1773.32 3746.31L1764.59 3757.43M1773.81 3756.32L1762.69 3747.59" stroke="black"/>
<path id="x_9" d="M129.479 3642.93L116 3647.2M124.251 3651.48L119.973 3638" stroke="black"/>
<circle id="o_9" cx="1725.37" cy="2710.37" r="12" transform="rotate(15.4071 1725.37 2710.37)" stroke="black"/>
<path id="o_10" d="M1772.49 2965.34C1771.83 2967.74 1769.35 2969.15 1766.95 2968.49C1764.56 2967.83 1763.15 2965.35 1763.81 2962.95C1764.47 2960.56 1766.95 2959.15 1769.34 2959.81C1771.74 2960.47 1773.15 2962.95 1772.49 2965.34Z" stroke="black"/>
<path id="o_11" d="M1843.49 2752.34C1842.83 2754.74 1840.35 2756.15 1837.95 2755.49C1835.56 2754.83 1834.15 2752.35 1834.81 2749.95C1835.47 2747.56 1837.95 2746.15 1840.34 2746.81C1842.74 2747.47 1844.15 2749.95 1843.49 2752.34Z" stroke="black"/>
<path id="x_10" d="M1840.16 2909L1852.01 2934.68M1858.68 2916.66L1833 2928.51" stroke="black"/>
<path id="x_11" d="M1754.63 2836L1745.9 2847.12M1755.12 2846.01L1744 2837.28" stroke="black"/>
<circle id="o_12" cx="1341.5" cy="587.499" r="12" stroke="black"/>
<circle id="o_13" cx="1542" cy="351.999" r="4.5" stroke="black"/>
<circle id="o_14" cx="127" cy="365.999" r="4.5" stroke="black"/>
<path id="x_12" d="M443.782 449.764L456.154 482.884M466.235 460.781L433.115 473.153" stroke="black"/>
<path id="x_13" d="M1468.22 1.19171L1451.83 40.3228M1478.94 29.2221L1439.81 12.8284" stroke="black"/>
<path id="x_14" d="M1663.57 252.818L1673.75 279.206M1681.57 261.567L1655.18 271.751" stroke="black"/>
<path id="x_15" d="M1317.72 306.192L1312.25 319.235M1320.85 315.714L1307.81 310.249" stroke="black"/>
<path id="x_16" d="M181.131 232.494L169.272 240.2M178.363 242.129L170.657 230.271" stroke="black"/>
</g>
</svg>
